<svg xmlns="http://www.w3.org/2000/svg" xmlns:xlink="http://www.w3.org/1999/xlink" width="1024" zoomAndPan="magnify" viewBox="0 0 768 767.999994" height="1024" preserveAspectRatio="xMidYMid meet" version="1.0"><defs><clipPath id="3631622499"><path d="M 76.800781 263 L 244 263 L 244 339 L 76.800781 339 Z M 76.800781 263 " clip-rule="nonzero"/></clipPath><clipPath id="a318726d25"><path d="M 76.800781 443 L 244 443 L 244 519 L 76.800781 519 Z M 76.800781 443 " clip-rule="nonzero"/></clipPath><clipPath id="51dd88cc7d"><path d="M 436 80.929688 L 512 80.929688 L 512 251 L 436 251 Z M 436 80.929688 " clip-rule="nonzero"/></clipPath><clipPath id="022033b291"><path d="M 255 80.929688 L 332 80.929688 L 332 251 L 255 251 Z M 255 80.929688 " clip-rule="nonzero"/></clipPath><clipPath id="09d14c0040"><path d="M 255 531 L 332 531 L 332 701.179688 L 255 701.179688 Z M 255 531 " clip-rule="nonzero"/></clipPath><clipPath id="890f3e5b95"><path d="M 436 531 L 512 531 L 512 701.179688 L 436 701.179688 Z M 436 531 " clip-rule="nonzero"/></clipPath></defs><path fill="#16182d" d="M 152.636719 410.011719 C 142.15625 410.011719 133.671875 401.476562 133.671875 391.054688 C 133.671875 380.582031 142.15625 372.101562 152.636719 372.101562 C 163.113281 372.101562 171.597656 380.582031 171.597656 391.054688 C 171.597656 401.476562 163.113281 410.011719 152.636719 410.011719 Z M 189.296875 381.578125 C 185.09375 365.230469 170.304688 353.167969 152.636719 353.167969 C 131.679688 353.167969 114.707031 370.109375 114.707031 391.054688 C 114.707031 411.949219 131.679688 428.945312 152.636719 428.945312 C 170.304688 428.945312 185.09375 416.828125 189.296875 400.535156 L 211.761719 400.535156 C 211.574219 397.382812 211.492188 394.234375 211.492188 391.054688 C 211.492188 387.878906 211.574219 384.730469 211.761719 381.578125 L 189.296875 381.578125 " fill-opacity="1" fill-rule="nonzero"/><g clip-path="url(#3631622499)"><path fill="#16182d" d="M 114.707031 319.992188 C 104.253906 319.992188 95.773438 311.460938 95.773438 301.039062 C 95.773438 290.589844 104.253906 282.105469 114.707031 282.105469 C 125.1875 282.105469 133.671875 290.589844 133.671875 301.039062 C 133.671875 311.460938 125.1875 319.992188 114.707031 319.992188 Z M 114.707031 263.152344 C 93.777344 263.152344 76.808594 280.113281 76.808594 301.039062 C 76.808594 321.933594 93.777344 338.953125 114.707031 338.953125 C 132.40625 338.953125 147.195312 326.808594 151.394531 310.515625 L 231.476562 310.515625 C 234.925781 303.972656 238.804688 297.671875 243.113281 291.585938 L 151.394531 291.585938 C 147.195312 275.242188 132.40625 263.152344 114.707031 263.152344 " fill-opacity="1" fill-rule="nonzero"/></g><g clip-path="url(#a318726d25)"><path fill="#16182d" d="M 114.707031 500.007812 C 104.253906 500.007812 95.773438 491.496094 95.773438 481.074219 C 95.773438 470.601562 104.253906 462.117188 114.707031 462.117188 C 125.1875 462.117188 133.671875 470.601562 133.671875 481.074219 C 133.671875 491.496094 125.1875 500.007812 114.707031 500.007812 Z M 151.394531 471.597656 C 147.195312 455.253906 132.40625 443.160156 114.707031 443.160156 C 93.777344 443.160156 76.808594 460.125 76.808594 481.074219 C 76.808594 501.945312 93.777344 518.960938 114.707031 518.960938 C 132.40625 518.960938 147.195312 506.84375 151.394531 490.527344 L 243.089844 490.527344 C 238.777344 484.46875 234.898438 478.140625 231.453125 471.597656 L 151.394531 471.597656 " fill-opacity="1" fill-rule="nonzero"/></g><path fill="#16182d" d="M 615.136719 372.101562 C 625.617188 372.101562 634.101562 380.636719 634.101562 391.054688 C 634.101562 401.53125 625.617188 410.011719 615.136719 410.011719 C 604.660156 410.011719 596.175781 401.53125 596.175781 391.054688 C 596.175781 380.636719 604.660156 372.101562 615.136719 372.101562 Z M 578.476562 400.535156 C 582.679688 416.882812 597.464844 428.945312 615.136719 428.945312 C 636.09375 428.945312 653.066406 412.003906 653.066406 391.054688 C 653.066406 370.164062 636.09375 353.167969 615.136719 353.167969 C 597.464844 353.167969 582.679688 365.285156 578.476562 381.578125 L 556.011719 381.578125 C 556.199219 384.730469 556.28125 387.878906 556.28125 391.054688 C 556.28125 394.234375 556.199219 397.382812 556.011719 400.535156 L 578.476562 400.535156 " fill-opacity="1" fill-rule="nonzero"/><path fill="#16182d" d="M 653.066406 500.007812 C 642.585938 500.007812 634.101562 491.523438 634.101562 481.074219 C 634.101562 470.652344 642.585938 462.117188 653.066406 462.117188 C 663.515625 462.117188 672 470.652344 672 481.074219 C 672 491.523438 663.515625 500.007812 653.066406 500.007812 Z M 653.066406 443.160156 C 635.367188 443.160156 620.578125 455.304688 616.375 471.597656 L 536.296875 471.597656 C 532.84375 478.140625 528.96875 484.441406 524.660156 490.527344 L 616.375 490.527344 C 620.578125 506.871094 635.367188 518.960938 653.066406 518.960938 C 673.992188 518.960938 690.964844 502 690.964844 481.074219 C 690.964844 460.179688 673.992188 443.160156 653.066406 443.160156 " fill-opacity="1" fill-rule="nonzero"/><path fill="#16182d" d="M 653.066406 282.105469 C 663.515625 282.105469 672 290.617188 672 301.039062 C 672 311.511719 663.515625 319.992188 653.066406 319.992188 C 642.585938 319.992188 634.101562 311.511719 634.101562 301.039062 C 634.101562 290.617188 642.585938 282.105469 653.066406 282.105469 Z M 616.375 310.515625 C 620.578125 326.859375 635.367188 338.953125 653.066406 338.953125 C 673.992188 338.953125 690.964844 321.988281 690.964844 301.039062 C 690.964844 280.167969 673.992188 263.152344 653.066406 263.152344 C 635.367188 263.152344 620.578125 275.269531 616.375 291.585938 L 524.683594 291.585938 C 528.996094 297.644531 532.871094 303.972656 536.320312 310.515625 L 616.375 310.515625 " fill-opacity="1" fill-rule="nonzero"/><path fill="#16182d" d="M 383.886719 137.773438 C 394.367188 137.773438 402.847656 146.257812 402.847656 156.734375 C 402.847656 167.207031 394.367188 175.6875 383.886719 175.6875 C 373.460938 175.6875 364.925781 167.207031 364.925781 156.734375 C 364.925781 146.257812 373.460938 137.773438 383.886719 137.773438 Z M 374.402344 193.40625 L 374.402344 218.988281 C 377.558594 218.800781 380.707031 218.71875 383.886719 218.71875 C 387.0625 218.71875 390.214844 218.800781 393.367188 218.988281 L 393.367188 193.40625 C 409.71875 189.179688 421.785156 174.394531 421.785156 156.734375 C 421.785156 135.808594 404.84375 118.847656 383.886719 118.847656 C 362.980469 118.847656 345.984375 135.808594 345.984375 156.734375 C 345.984375 174.394531 358.109375 189.179688 374.402344 193.40625 " fill-opacity="1" fill-rule="nonzero"/><g clip-path="url(#51dd88cc7d)"><path fill="#16182d" d="M 473.933594 99.886719 C 484.386719 99.886719 492.871094 108.371094 492.871094 118.847656 C 492.871094 129.320312 484.386719 137.773438 473.933594 137.773438 C 463.511719 137.773438 454.972656 129.320312 454.972656 118.847656 C 454.972656 108.371094 463.511719 99.886719 473.933594 99.886719 Z M 464.453125 155.496094 L 464.453125 238.699219 C 471 242.148438 477.304688 246.023438 483.390625 250.332031 L 483.390625 155.496094 C 499.742188 151.292969 511.835938 136.507812 511.835938 118.847656 C 511.835938 97.898438 494.867188 80.929688 473.933594 80.929688 C 453.035156 80.929688 436.011719 97.898438 436.011719 118.847656 C 436.011719 136.507812 448.15625 151.292969 464.453125 155.496094 " fill-opacity="1" fill-rule="nonzero"/></g><g clip-path="url(#022033b291)"><path fill="#16182d" d="M 293.835938 99.886719 C 304.3125 99.886719 312.800781 108.371094 312.800781 118.847656 C 312.800781 129.320312 304.3125 137.773438 293.835938 137.773438 C 283.414062 137.773438 274.898438 129.320312 274.898438 118.847656 C 274.898438 108.371094 283.414062 99.886719 293.835938 99.886719 Z M 284.382812 155.496094 L 284.382812 250.308594 C 290.445312 245.996094 296.773438 242.121094 303.316406 238.675781 L 303.316406 155.496094 C 319.667969 151.292969 331.761719 136.507812 331.761719 118.847656 C 331.761719 97.898438 314.792969 80.929688 293.835938 80.929688 C 272.960938 80.929688 255.9375 97.898438 255.9375 118.847656 C 255.9375 136.507812 268.058594 151.292969 284.382812 155.496094 " fill-opacity="1" fill-rule="nonzero"/></g><path fill="#16182d" d="M 383.886719 644.339844 C 373.40625 644.339844 364.925781 635.855469 364.925781 625.378906 C 364.925781 614.90625 373.40625 606.421875 383.886719 606.421875 C 394.3125 606.421875 402.847656 614.90625 402.847656 625.378906 C 402.847656 635.855469 394.3125 644.339844 383.886719 644.339844 Z M 393.367188 588.707031 L 393.367188 563.125 C 390.214844 563.3125 387.0625 563.394531 383.886719 563.394531 C 380.707031 563.394531 377.558594 563.3125 374.402344 563.125 L 374.402344 588.707031 C 358.054688 592.929688 345.984375 607.71875 345.984375 625.378906 C 345.984375 646.304688 362.929688 663.265625 383.886719 663.265625 C 404.789062 663.265625 421.785156 646.304688 421.785156 625.378906 C 421.785156 607.71875 409.664062 592.929688 393.367188 588.707031 " fill-opacity="1" fill-rule="nonzero"/><g clip-path="url(#09d14c0040)"><path fill="#16182d" d="M 293.835938 682.226562 C 283.386719 682.226562 274.898438 673.742188 274.898438 663.265625 C 274.898438 652.792969 283.386719 644.339844 293.835938 644.339844 C 304.261719 644.339844 312.800781 652.792969 312.800781 663.265625 C 312.800781 673.742188 304.261719 682.226562 293.835938 682.226562 Z M 303.316406 626.617188 L 303.316406 543.414062 C 296.773438 539.964844 290.46875 536.089844 284.382812 531.78125 L 284.382812 626.617188 C 268.03125 630.820312 255.9375 645.605469 255.9375 663.265625 C 255.9375 684.214844 272.90625 701.179688 293.835938 701.179688 C 314.738281 701.179688 331.761719 684.214844 331.761719 663.265625 C 331.761719 645.605469 319.617188 630.820312 303.316406 626.617188 " fill-opacity="1" fill-rule="nonzero"/></g><g clip-path="url(#890f3e5b95)"><path fill="#16182d" d="M 473.933594 682.226562 C 463.457031 682.226562 454.972656 673.742188 454.972656 663.265625 C 454.972656 652.792969 463.457031 644.339844 473.933594 644.339844 C 484.359375 644.339844 492.871094 652.792969 492.871094 663.265625 C 492.871094 673.742188 484.359375 682.226562 473.933594 682.226562 Z M 483.390625 626.617188 L 483.390625 531.804688 C 477.328125 536.117188 471 539.992188 464.453125 543.4375 L 464.453125 626.617188 C 448.105469 630.820312 436.011719 645.605469 436.011719 663.265625 C 436.011719 684.214844 452.980469 701.179688 473.933594 701.179688 C 494.8125 701.179688 511.835938 684.214844 511.835938 663.265625 C 511.835938 645.605469 499.714844 630.820312 483.390625 626.617188 " fill-opacity="1" fill-rule="nonzero"/></g><path fill="#16182d" d="M 343.5625 404.25 L 379.710938 404.25 L 361.476562 354.351562 Z M 343.5625 404.25 " fill-opacity="1" fill-rule="nonzero"/><path fill="#16182d" d="M 461.761719 438.664062 C 461.761719 443.671875 460.601562 447.386719 458.3125 449.863281 C 456.050781 452.34375 453.058594 453.582031 449.371094 453.582031 C 445.839844 453.582031 442.933594 452.34375 440.667969 449.835938 C 438.378906 447.335938 437.25 443.621094 437.25 438.664062 L 437.25 343.367188 C 437.25 338.414062 438.351562 334.726562 440.613281 332.246094 C 442.878906 329.769531 445.785156 328.53125 449.371094 328.53125 C 453.058594 328.53125 456.050781 329.742188 458.3125 332.191406 C 460.601562 334.644531 461.761719 338.359375 461.761719 343.367188 Z M 414.753906 450.082031 C 412.414062 452.425781 409.582031 453.582031 406.296875 453.582031 C 404.355469 453.582031 402.714844 453.234375 401.34375 452.558594 C 399.96875 451.859375 398.808594 450.941406 397.863281 449.757812 C 396.921875 448.574219 395.925781 446.742188 394.851562 444.320312 C 393.800781 441.871094 392.855469 439.714844 392.101562 437.828125 L 386.308594 422.640625 L 337.125 422.640625 L 331.359375 438.152344 C 329.097656 444.210938 327.183594 448.304688 325.59375 450.402344 C 323.980469 452.53125 321.367188 453.582031 317.757812 453.582031 C 314.660156 453.582031 311.941406 452.453125 309.566406 450.214844 C 307.199219 447.953125 306.039062 445.398438 306.039062 442.542969 C 306.039062 440.875 306.308594 439.175781 306.847656 437.425781 C 307.414062 435.648438 308.300781 433.199219 309.566406 430.074219 L 340.519531 351.554688 C 341.410156 349.292969 342.457031 346.574219 343.695312 343.421875 C 344.933594 340.242188 346.253906 337.632812 347.65625 335.53125 C 349.058594 333.460938 350.914062 331.761719 353.179688 330.46875 C 355.46875 329.175781 358.296875 328.53125 361.636719 328.53125 C 365.058594 328.53125 367.914062 329.175781 370.175781 330.46875 C 372.464844 331.761719 374.324219 333.433594 375.722656 335.453125 C 377.125 337.496094 378.3125 339.679688 379.253906 342.019531 C 380.222656 344.363281 381.460938 347.460938 382.945312 351.363281 L 414.539062 429.429688 C 417.019531 435.351562 418.257812 439.6875 418.257812 442.382812 C 418.257812 445.179688 417.097656 447.738281 414.753906 450.082031 Z M 475.496094 288.730469 C 451.199219 266.972656 419.066406 253.726562 383.886719 253.726562 C 348.707031 253.726562 316.570312 266.972656 292.273438 288.730469 C 288.476562 292.097656 284.894531 295.679688 281.527344 299.476562 C 259.761719 323.765625 246.507812 355.886719 246.507812 391.054688 C 246.507812 426.222656 259.761719 458.347656 281.527344 482.636719 C 284.894531 486.433594 288.476562 490.015625 292.273438 493.382812 C 316.570312 515.140625 348.707031 528.386719 383.886719 528.386719 C 419.066406 528.386719 451.199219 515.140625 475.496094 493.382812 C 479.296875 490.015625 482.878906 486.433594 486.246094 482.636719 C 508.011719 458.347656 521.261719 426.222656 521.261719 391.054688 C 521.261719 355.886719 508.011719 323.765625 486.246094 299.476562 C 482.878906 295.679688 479.296875 292.097656 475.496094 288.730469 " fill-opacity="1" fill-rule="nonzero"/><path fill="#16182d" d="M 593.941406 268.609375 C 569.910156 268.609375 550.511719 261.636719 536.082031 247.773438 C 503.898438 216.84375 509.347656 163.472656 509.597656 161.214844 C 510.085938 156.746094 514.105469 153.519531 518.578125 154.011719 C 523.042969 154.5 526.269531 158.515625 525.785156 162.980469 C 525.734375 163.457031 521.007812 210.769531 547.421875 236.082031 C 562.140625 250.1875 584.289062 255.136719 613.257812 250.796875 C 617.707031 250.132812 621.855469 253.191406 622.519531 257.640625 C 623.1875 262.085938 620.121094 266.230469 615.675781 266.898438 C 608.058594 268.039062 600.8125 268.609375 593.941406 268.609375 " fill-opacity="1" fill-rule="nonzero"/><path fill="#16182d" d="M 611.824219 234.035156 C 594.296875 234.039062 580.101562 228.90625 569.488281 218.707031 C 546.011719 196.148438 549.960938 157.476562 550.136719 155.84375 C 550.628906 151.375 554.644531 148.148438 559.121094 148.640625 C 563.585938 149.132812 566.808594 153.140625 566.328125 157.605469 C 566.292969 157.925781 563.121094 190.070312 580.824219 207.015625 C 590.605469 216.378906 605.492188 219.636719 625.070312 216.703125 C 629.519531 216.039062 633.664062 219.101562 634.328125 223.546875 C 634.996094 227.992188 631.929688 232.136719 627.484375 232.804688 C 622.003906 233.625 616.78125 234.035156 611.824219 234.035156 " fill-opacity="1" fill-rule="nonzero"/><path fill="#16182d" d="M 179.980469 518.0625 C 204.011719 518.0625 223.410156 525.035156 237.84375 538.902344 C 270.023438 569.828125 264.578125 623.199219 264.328125 625.457031 C 263.839844 629.925781 259.820312 633.152344 255.347656 632.660156 C 250.878906 632.167969 247.65625 628.15625 248.140625 623.691406 C 248.1875 623.21875 252.917969 575.902344 226.503906 550.589844 C 211.785156 536.484375 189.636719 531.535156 160.664062 535.875 C 156.21875 536.539062 152.066406 533.476562 151.40625 529.03125 C 150.734375 524.585938 153.800781 520.441406 158.25 519.773438 C 165.863281 518.632812 173.113281 518.0625 179.980469 518.0625 " fill-opacity="1" fill-rule="nonzero"/><path fill="#16182d" d="M 162.097656 552.636719 C 179.625 552.636719 193.820312 557.765625 204.433594 567.964844 C 227.910156 590.523438 223.964844 629.191406 223.785156 630.828125 C 223.292969 635.296875 219.28125 638.519531 214.800781 638.03125 C 210.335938 637.542969 207.113281 633.527344 207.59375 629.066406 C 207.628906 628.746094 210.804688 596.601562 193.097656 579.652344 C 183.320312 570.292969 168.429688 567.035156 148.855469 569.96875 C 144.40625 570.636719 140.257812 567.574219 139.59375 563.128906 C 138.925781 558.679688 141.992188 554.535156 146.4375 553.867188 C 151.917969 553.046875 157.144531 552.636719 162.097656 552.636719 " fill-opacity="1" fill-rule="nonzero"/><path fill="#16182d" d="M 511.730469 600.246094 C 511.730469 576.226562 518.707031 556.828125 532.574219 542.40625 C 563.511719 510.234375 616.902344 515.679688 619.160156 515.925781 C 623.632812 516.417969 626.859375 520.433594 626.367188 524.90625 C 625.878906 529.375 621.863281 532.597656 617.394531 532.113281 C 616.917969 532.058594 569.589844 527.335938 544.265625 553.742188 C 530.15625 568.453125 525.207031 590.597656 529.546875 619.558594 C 530.214844 624 527.152344 628.152344 522.703125 628.8125 C 518.257812 629.480469 514.109375 626.417969 513.445312 621.972656 C 512.300781 614.359375 511.730469 607.113281 511.730469 600.246094 " fill-opacity="1" fill-rule="nonzero"/><path fill="#16182d" d="M 546.316406 618.121094 C 546.316406 600.601562 551.445312 586.410156 561.648438 575.800781 C 584.214844 552.332031 622.898438 556.277344 624.53125 556.457031 C 629.003906 556.949219 632.230469 560.957031 631.738281 565.4375 C 631.25 569.902344 627.238281 573.125 622.773438 572.644531 C 622.449219 572.609375 590.296875 569.433594 573.34375 587.132812 C 563.976562 596.910156 560.71875 611.792969 563.65625 631.363281 C 564.320312 635.808594 561.257812 639.957031 556.808594 640.621094 C 552.363281 641.289062 548.214844 638.222656 547.546875 633.777344 C 546.726562 628.300781 546.316406 623.078125 546.316406 618.121094 " fill-opacity="1" fill-rule="nonzero"/><path fill="#16182d" d="M 262.195312 186.425781 C 262.195312 210.449219 255.214844 229.84375 241.347656 244.269531 C 210.410156 276.441406 157.019531 270.992188 154.761719 270.742188 C 150.292969 270.253906 147.066406 266.238281 147.554688 261.765625 C 148.046875 257.300781 152.0625 254.074219 156.527344 254.558594 C 157.003906 254.609375 204.335938 259.335938 229.65625 232.933594 C 243.765625 218.214844 248.71875 196.074219 244.375 167.113281 C 243.710938 162.667969 246.773438 158.523438 251.21875 157.855469 C 255.667969 157.191406 259.8125 160.253906 260.480469 164.703125 C 261.625 172.316406 262.195312 179.558594 262.195312 186.425781 " fill-opacity="1" fill-rule="nonzero"/><path fill="#16182d" d="M 227.609375 168.550781 C 227.609375 186.070312 222.476562 200.261719 212.273438 210.871094 C 189.707031 234.339844 151.027344 230.394531 149.390625 230.214844 C 144.917969 229.726562 141.695312 225.710938 142.183594 221.234375 C 142.671875 216.773438 146.6875 213.550781 151.148438 214.03125 C 151.472656 214.0625 183.625 217.238281 200.582031 199.539062 C 209.945312 189.761719 213.207031 174.878906 210.269531 155.308594 C 209.601562 150.859375 212.667969 146.71875 217.113281 146.050781 C 221.5625 145.386719 225.707031 148.449219 226.375 152.894531 C 227.199219 158.375 227.609375 163.597656 227.609375 168.550781 " fill-opacity="1" fill-rule="nonzero"/></svg>