<svg xmlns="http://www.w3.org/2000/svg" xmlns:xlink="http://www.w3.org/1999/xlink" width="1024" zoomAndPan="magnify" viewBox="0 0 768 767.999994" height="1024" preserveAspectRatio="xMidYMid meet" version="1.0"><defs><clipPath id="547b795da9"><path d="M 76.800781 76.800781 L 691.050781 76.800781 L 691.050781 651 L 76.800781 651 Z M 76.800781 76.800781 " clip-rule="nonzero"/></clipPath><clipPath id="48d4534a6d"><path d="M 209 670 L 231 670 L 231 691.050781 L 209 691.050781 Z M 209 670 " clip-rule="nonzero"/></clipPath><clipPath id="0b928c771f"><path d="M 250 670 L 272 670 L 272 691.050781 L 250 691.050781 Z M 250 670 " clip-rule="nonzero"/></clipPath><clipPath id="f30c05aaba"><path d="M 291 670 L 313 670 L 313 691.050781 L 291 691.050781 Z M 291 670 " clip-rule="nonzero"/></clipPath><clipPath id="58cd7c81b0"><path d="M 332 629 L 436 629 L 436 691.050781 L 332 691.050781 Z M 332 629 " clip-rule="nonzero"/></clipPath><clipPath id="8c476b5371"><path d="M 76.800781 527 L 169 527 L 169 589 L 76.800781 589 Z M 76.800781 527 " clip-rule="nonzero"/></clipPath><clipPath id="b0b81f5949"><path d="M 588 527 L 691.050781 527 L 691.050781 589 L 588 589 Z M 588 527 " clip-rule="nonzero"/></clipPath></defs><g clip-path="url(#547b795da9)"><path fill="#000000" d="M 568.199219 496.539062 C 635.941406 496.539062 691.050781 441.429688 691.050781 373.6875 C 691.050781 305.945312 635.941406 250.835938 568.199219 250.835938 C 553.601562 250.835938 539.421875 253.375 525.878906 258.394531 C 519.929688 230.699219 495.257812 209.886719 465.824219 209.886719 C 465.792969 209.886719 465.761719 209.886719 465.734375 209.886719 C 463.03125 136.042969 402.117188 76.800781 327.617188 76.800781 C 251.410156 76.800781 189.414062 138.796875 189.414062 215.007812 C 189.414062 220.65625 189.761719 226.308594 190.445312 231.929688 C 125.867188 241.398438 76.800781 297.132812 76.800781 363.449219 C 76.800781 436.832031 136.503906 496.539062 209.886719 496.539062 L 291.789062 496.539062 L 291.789062 547.726562 L 240.601562 547.726562 L 240.601562 568.199219 L 302.023438 568.199219 C 307.675781 568.199219 312.261719 563.613281 312.261719 557.960938 L 312.261719 496.539062 L 332.738281 496.539062 L 332.738281 517.011719 L 353.210938 517.011719 L 353.210938 496.539062 L 373.6875 496.539062 L 373.6875 629.625 L 353.210938 629.625 L 353.210938 650.101562 L 383.925781 650.101562 C 389.574219 650.101562 394.164062 645.511719 394.164062 639.863281 L 394.164062 496.539062 L 414.636719 496.539062 L 414.636719 537.488281 L 435.113281 537.488281 L 435.113281 496.539062 L 455.585938 496.539062 L 455.585938 598.914062 C 455.585938 604.5625 460.175781 609.148438 465.824219 609.148438 L 517.011719 609.148438 L 517.011719 588.675781 L 476.0625 588.675781 L 476.0625 496.539062 L 496.539062 496.539062 L 496.539062 557.960938 C 496.539062 563.613281 501.125 568.199219 506.773438 568.199219 L 568.199219 568.199219 L 568.199219 547.726562 L 517.011719 547.726562 L 517.011719 496.539062 Z M 97.273438 363.449219 C 97.273438 304.144531 143.679688 254.832031 202.925781 251.207031 C 205.894531 251.023438 208.628906 249.566406 210.429688 247.214844 C 212.230469 244.859375 212.929688 241.828125 212.335938 238.921875 C 210.707031 231.070312 209.886719 223.023438 209.886719 215.007812 C 209.886719 150.089844 262.703125 97.273438 327.617188 97.273438 C 392.535156 97.273438 445.351562 150.089844 445.351562 215.007812 C 445.351562 216.144531 445.269531 217.257812 445.1875 218.382812 L 445.042969 220.75 C 444.890625 223.914062 446.21875 226.972656 448.625 229.03125 C 451.042969 231.089844 454.277344 231.917969 457.367188 231.261719 C 483.382812 225.828125 506.773438 245.996094 506.753906 271.117188 C 506.714844 271.445312 506.558594 272.785156 506.550781 273.113281 C 506.386719 276.757812 508.175781 280.230469 511.25 282.207031 C 514.320312 284.171875 518.21875 284.367188 521.464844 282.6875 C 536.125 275.140625 551.851562 271.3125 568.199219 271.3125 C 624.648438 271.3125 670.574219 317.238281 670.574219 373.6875 C 670.574219 430.136719 624.648438 476.0625 568.199219 476.0625 L 209.886719 476.0625 C 147.796875 476.0625 97.273438 425.539062 97.273438 363.449219 Z M 97.273438 363.449219 " fill-opacity="1" fill-rule="nonzero"/></g><path fill="#000000" d="M 356.632812 132.964844 C 347.324219 129.667969 337.570312 127.988281 327.617188 127.988281 L 327.617188 148.460938 C 335.226562 148.460938 342.6875 149.742188 349.792969 152.261719 Z M 356.632812 132.964844 " fill-opacity="1" fill-rule="nonzero"/><path fill="#000000" d="M 305.445312 152.261719 L 298.59375 132.964844 C 263.910156 145.269531 240.601562 178.234375 240.601562 215.007812 L 261.074219 215.007812 C 261.074219 186.882812 278.910156 161.667969 305.445312 152.261719 Z M 305.445312 152.261719 " fill-opacity="1" fill-rule="nonzero"/><path fill="#000000" d="M 427.855469 320.535156 L 409.589844 313.039062 C 408.351562 309.425781 406.90625 305.925781 405.269531 302.558594 L 412.875 284.375 C 414.300781 280.976562 413.777344 277.078125 411.523438 274.160156 C 405.691406 266.625 398.890625 259.824219 391.328125 253.960938 C 388.410156 251.707031 384.507812 251.1875 381.109375 252.609375 L 362.929688 260.214844 C 359.550781 258.578125 356.046875 257.132812 352.445312 255.894531 L 344.949219 237.632812 C 343.546875 234.222656 340.425781 231.828125 336.769531 231.355469 C 326.09375 230.003906 318.925781 230.003906 308.25 231.355469 C 304.59375 231.816406 301.460938 234.210938 300.070312 237.632812 L 292.574219 255.894531 C 288.972656 257.132812 285.472656 258.578125 282.09375 260.214844 L 263.910156 252.609375 C 260.523438 251.195312 256.601562 251.707031 253.695312 253.960938 C 246.160156 259.796875 239.359375 266.582031 233.496094 274.148438 C 231.234375 277.066406 230.722656 280.964844 232.144531 284.375 L 239.75 302.558594 C 238.113281 305.9375 236.667969 309.4375 235.429688 313.039062 L 217.167969 320.535156 C 213.757812 321.9375 211.363281 325.058594 210.890625 328.714844 C 210.203125 334.046875 209.886719 338.582031 209.886719 342.976562 C 209.886719 347.367188 210.203125 351.902344 210.878906 357.234375 C 211.339844 360.890625 213.738281 364.023438 217.15625 365.414062 L 235.417969 372.910156 C 236.660156 376.511719 238.101562 380.015625 239.738281 383.394531 L 232.132812 401.574219 C 230.710938 404.972656 231.234375 408.875 233.484375 411.792969 C 239.320312 419.328125 246.109375 426.125 253.671875 431.988281 C 256.589844 434.253906 260.5 434.765625 263.902344 433.339844 L 282.082031 425.734375 C 285.460938 427.371094 288.960938 428.816406 292.566406 430.054688 L 300.058594 448.320312 C 301.460938 451.726562 304.585938 454.125 308.238281 454.59375 C 313.574219 455.269531 318.109375 455.585938 322.5 455.585938 C 326.890625 455.585938 331.425781 455.269531 336.761719 454.59375 C 340.414062 454.132812 343.546875 451.738281 344.941406 448.320312 L 352.433594 430.054688 C 356.046875 428.816406 359.550781 427.371094 362.917969 425.734375 L 381.097656 433.339844 C 384.5 434.765625 388.398438 434.253906 391.316406 431.988281 C 398.871094 426.144531 405.660156 419.347656 411.515625 411.792969 C 413.777344 408.875 414.289062 404.972656 412.867188 401.574219 L 405.261719 383.394531 C 406.898438 380.015625 408.339844 376.511719 409.582031 372.910156 L 427.84375 365.414062 C 431.253906 364.011719 433.648438 360.890625 434.121094 357.234375 C 434.796875 351.902344 435.113281 347.367188 435.113281 342.976562 C 435.113281 338.582031 434.796875 334.046875 434.121094 328.714844 C 433.660156 325.058594 431.261719 321.925781 427.855469 320.535156 Z M 414.414062 348.800781 L 397.367188 355.792969 C 394.460938 356.988281 392.257812 359.445312 391.398438 362.476562 C 389.851562 367.945312 387.710938 373.132812 385.03125 377.914062 C 383.496094 380.660156 383.3125 383.957031 384.519531 386.863281 L 391.582031 403.777344 C 388.992188 406.714844 386.226562 409.476562 383.289062 412.066406 L 366.378906 405.003906 C 363.46875 403.785156 360.175781 403.980469 357.421875 405.515625 C 352.660156 408.1875 347.46875 410.328125 341.992188 411.875 C 338.972656 412.734375 336.503906 414.933594 335.308594 417.84375 L 328.316406 434.886719 C 324.21875 435.183594 320.769531 435.183594 316.664062 434.886719 L 309.671875 417.84375 C 308.472656 414.933594 306.015625 412.734375 302.988281 411.875 C 297.519531 410.328125 292.328125 408.1875 287.550781 405.503906 C 284.804688 403.96875 281.507812 403.785156 278.601562 404.992188 L 261.6875 412.066406 C 258.75 409.476562 255.976562 406.714844 253.398438 403.777344 L 260.460938 386.863281 C 261.679688 383.957031 261.496094 380.660156 259.949219 377.914062 C 257.265625 373.132812 255.128906 367.933594 253.582031 362.476562 C 252.722656 359.457031 250.519531 356.988281 247.613281 355.792969 L 230.566406 348.800781 C 230.433594 346.753906 230.363281 344.839844 230.363281 342.976562 C 230.363281 341.113281 230.433594 339.199219 230.585938 337.148438 L 247.632812 330.15625 C 250.539062 328.960938 252.742188 326.503906 253.601562 323.472656 C 255.148438 318.003906 257.289062 312.816406 259.96875 308.035156 C 261.503906 305.289062 261.6875 301.996094 260.480469 299.085938 L 253.40625 282.175781 C 255.996094 279.234375 258.761719 276.460938 261.699219 273.882812 L 278.613281 280.945312 C 281.507812 282.164062 284.816406 281.96875 287.558594 280.433594 C 292.339844 277.75 297.539062 275.613281 302.996094 274.066406 C 306.019531 273.207031 308.484375 271.003906 309.683594 268.097656 L 316.675781 251.050781 C 320.769531 250.753906 324.21875 250.753906 328.324219 251.050781 L 335.316406 268.097656 C 336.515625 271.003906 338.972656 273.207031 342.003906 274.066406 C 347.46875 275.613281 352.660156 277.75 357.441406 280.433594 C 360.183594 281.96875 363.492188 282.152344 366.386719 280.945312 L 383.300781 273.882812 C 386.238281 276.472656 389.011719 279.238281 391.59375 282.175781 L 384.527344 299.085938 C 383.3125 301.996094 383.503906 305.289062 385.039062 308.042969 C 387.710938 312.804688 389.851562 317.996094 391.398438 323.472656 C 392.257812 326.492188 394.460938 328.960938 397.367188 330.15625 L 414.414062 337.148438 C 414.566406 339.199219 414.636719 341.113281 414.636719 342.976562 C 414.636719 344.839844 414.566406 346.753906 414.414062 348.800781 Z M 414.414062 348.800781 " fill-opacity="1" fill-rule="nonzero"/><path fill="#000000" d="M 555.125 427.996094 L 565.085938 433.75 L 575.324219 416.019531 L 565.355469 410.265625 C 566 408.332031 566.746094 406.4375 567.164062 404.410156 L 578.4375 404.410156 L 578.4375 383.933594 L 567.164062 383.933594 C 566.757812 381.910156 566.007812 380.015625 565.355469 378.078125 L 575.324219 372.324219 L 565.085938 354.59375 L 555.125 360.347656 C 553.773438 358.832031 552.363281 357.410156 550.835938 356.058594 L 556.589844 346.097656 L 538.859375 335.859375 L 533.105469 345.832031 C 531.171875 345.1875 529.277344 344.4375 527.25 344.019531 L 527.25 332.738281 L 506.773438 332.738281 L 506.773438 344.007812 C 504.746094 344.417969 502.855469 345.164062 500.917969 345.820312 L 495.164062 335.851562 L 477.433594 346.085938 L 483.1875 356.046875 C 481.671875 357.398438 480.25 358.8125 478.898438 360.335938 L 468.9375 354.585938 L 458.699219 372.316406 L 468.671875 378.070312 C 468.027344 380.003906 467.277344 381.898438 466.859375 383.925781 L 455.585938 383.925781 L 455.585938 404.398438 L 466.859375 404.398438 C 467.269531 406.425781 468.015625 408.320312 468.671875 410.253906 L 458.699219 416.007812 L 468.9375 433.742188 L 478.898438 427.988281 C 480.25 429.503906 481.664062 430.925781 483.1875 432.277344 L 477.433594 442.238281 L 495.164062 452.476562 L 500.917969 442.503906 C 502.855469 443.148438 504.746094 443.894531 506.773438 444.316406 L 506.773438 455.585938 L 527.25 455.585938 L 527.25 444.316406 C 529.277344 443.90625 531.171875 443.160156 533.105469 442.503906 L 538.859375 452.476562 L 556.589844 442.238281 L 550.835938 432.277344 C 552.363281 430.925781 553.773438 429.511719 555.125 427.996094 Z M 517.011719 424.875 C 500.078125 424.875 486.300781 411.09375 486.300781 394.164062 C 486.300781 377.230469 500.078125 363.449219 517.011719 363.449219 C 533.945312 363.449219 547.726562 377.230469 547.726562 394.164062 C 547.726562 411.09375 533.945312 424.875 517.011719 424.875 Z M 517.011719 424.875 " fill-opacity="1" fill-rule="nonzero"/><path fill="#000000" d="M 322.5 291.789062 C 294.273438 291.789062 271.3125 314.75 271.3125 342.976562 C 271.3125 371.199219 294.273438 394.164062 322.5 394.164062 C 350.726562 394.164062 373.6875 371.199219 373.6875 342.976562 C 373.6875 314.75 350.726562 291.789062 322.5 291.789062 Z M 322.5 373.6875 C 305.566406 373.6875 291.789062 359.90625 291.789062 342.976562 C 291.789062 326.042969 305.566406 312.261719 322.5 312.261719 C 339.433594 312.261719 353.210938 326.042969 353.210938 342.976562 C 353.210938 359.90625 339.433594 373.6875 322.5 373.6875 Z M 322.5 373.6875 " fill-opacity="1" fill-rule="nonzero"/><path fill="#000000" d="M 189.414062 547.726562 L 220.125 547.726562 L 220.125 568.199219 L 189.414062 568.199219 Z M 189.414062 547.726562 " fill-opacity="1" fill-rule="nonzero"/><path fill="#000000" d="M 353.210938 598.914062 L 353.210938 537.488281 L 332.738281 537.488281 L 332.738281 588.675781 L 291.789062 588.675781 L 291.789062 609.148438 L 342.976562 609.148438 C 348.625 609.148438 353.210938 604.5625 353.210938 598.914062 Z M 353.210938 598.914062 " fill-opacity="1" fill-rule="nonzero"/><path fill="#000000" d="M 240.601562 588.675781 L 271.3125 588.675781 L 271.3125 609.148438 L 240.601562 609.148438 Z M 240.601562 588.675781 " fill-opacity="1" fill-rule="nonzero"/><path fill="#000000" d="M 189.414062 588.675781 L 220.125 588.675781 L 220.125 609.148438 L 189.414062 609.148438 Z M 189.414062 588.675781 " fill-opacity="1" fill-rule="nonzero"/><path fill="#000000" d="M 250.835938 629.625 L 332.738281 629.625 L 332.738281 650.101562 L 250.835938 650.101562 Z M 250.835938 629.625 " fill-opacity="1" fill-rule="nonzero"/><g clip-path="url(#48d4534a6d)"><path fill="#000000" d="M 209.886719 670.574219 L 230.363281 670.574219 L 230.363281 691.050781 L 209.886719 691.050781 Z M 209.886719 670.574219 " fill-opacity="1" fill-rule="nonzero"/></g><g clip-path="url(#0b928c771f)"><path fill="#000000" d="M 250.835938 670.574219 L 271.3125 670.574219 L 271.3125 691.050781 L 250.835938 691.050781 Z M 250.835938 670.574219 " fill-opacity="1" fill-rule="nonzero"/></g><g clip-path="url(#f30c05aaba)"><path fill="#000000" d="M 291.789062 670.574219 L 312.261719 670.574219 L 312.261719 691.050781 L 291.789062 691.050781 Z M 291.789062 670.574219 " fill-opacity="1" fill-rule="nonzero"/></g><g clip-path="url(#58cd7c81b0)"><path fill="#000000" d="M 414.636719 670.574219 L 332.738281 670.574219 L 332.738281 691.050781 L 424.875 691.050781 C 430.527344 691.050781 435.113281 686.464844 435.113281 680.8125 L 435.113281 629.625 L 414.636719 629.625 Z M 414.636719 670.574219 " fill-opacity="1" fill-rule="nonzero"/></g><path fill="#000000" d="M 414.636719 557.960938 L 435.113281 557.960938 L 435.113281 609.148438 L 414.636719 609.148438 Z M 414.636719 557.960938 " fill-opacity="1" fill-rule="nonzero"/><g clip-path="url(#8c476b5371)"><path fill="#000000" d="M 136.339844 568.199219 L 168.9375 568.199219 L 168.9375 547.726562 L 136.339844 547.726562 C 132.101562 535.839844 120.839844 527.25 107.511719 527.25 C 90.578125 527.25 76.800781 541.03125 76.800781 557.960938 C 76.800781 574.894531 90.578125 588.675781 107.511719 588.675781 C 120.839844 588.675781 132.101562 580.085938 136.339844 568.199219 Z M 97.273438 557.960938 C 97.273438 552.320312 101.871094 547.726562 107.511719 547.726562 C 113.152344 547.726562 117.75 552.320312 117.75 557.960938 C 117.75 563.601562 113.152344 568.199219 107.511719 568.199219 C 101.871094 568.199219 97.273438 563.601562 97.273438 557.960938 Z M 97.273438 557.960938 " fill-opacity="1" fill-rule="nonzero"/></g><path fill="#000000" d="M 537.488281 588.675781 L 568.199219 588.675781 L 568.199219 609.148438 L 537.488281 609.148438 Z M 537.488281 588.675781 " fill-opacity="1" fill-rule="nonzero"/><path fill="#000000" d="M 588.675781 588.675781 L 619.386719 588.675781 L 619.386719 609.148438 L 588.675781 609.148438 Z M 588.675781 588.675781 " fill-opacity="1" fill-rule="nonzero"/><g clip-path="url(#b0b81f5949)"><path fill="#000000" d="M 660.335938 527.25 C 647.007812 527.25 635.746094 535.839844 631.507812 547.726562 L 588.675781 547.726562 L 588.675781 568.199219 L 631.507812 568.199219 C 635.746094 580.085938 647.007812 588.675781 660.335938 588.675781 C 677.269531 588.675781 691.050781 574.894531 691.050781 557.960938 C 691.050781 541.03125 677.269531 527.25 660.335938 527.25 Z M 660.335938 568.199219 C 654.695312 568.199219 650.101562 563.601562 650.101562 557.960938 C 650.101562 552.320312 654.695312 547.726562 660.335938 547.726562 C 665.976562 547.726562 670.574219 552.320312 670.574219 557.960938 C 670.574219 563.601562 665.976562 568.199219 660.335938 568.199219 Z M 660.335938 568.199219 " fill-opacity="1" fill-rule="nonzero"/></g><path fill="#000000" d="M 138.226562 609.148438 C 121.292969 609.148438 107.511719 622.929688 107.511719 639.863281 C 107.511719 656.796875 121.292969 670.574219 138.226562 670.574219 C 151.554688 670.574219 162.816406 661.984375 167.054688 650.101562 L 230.363281 650.101562 L 230.363281 629.625 L 167.054688 629.625 C 162.816406 617.738281 151.554688 609.148438 138.226562 609.148438 Z M 138.226562 650.101562 C 132.585938 650.101562 127.988281 645.503906 127.988281 639.863281 C 127.988281 634.222656 132.585938 629.625 138.226562 629.625 C 143.867188 629.625 148.460938 634.222656 148.460938 639.863281 C 148.460938 645.503906 143.867188 650.101562 138.226562 650.101562 Z M 138.226562 650.101562 " fill-opacity="1" fill-rule="nonzero"/></svg>