<svg xmlns="http://www.w3.org/2000/svg" xmlns:xlink="http://www.w3.org/1999/xlink" width="1024" zoomAndPan="magnify" viewBox="0 0 768 767.999994" height="1024" preserveAspectRatio="xMidYMid meet" version="1.0"><defs><clipPath id="a51ab80729"><path d="M 127 76.800781 L 640 76.800781 L 640 691.050781 L 127 691.050781 Z M 127 76.800781 " clip-rule="nonzero"/></clipPath><clipPath id="80a1ff9ac3"><path d="M 76.800781 76.800781 L 330 76.800781 L 330 456 L 76.800781 456 Z M 76.800781 76.800781 " clip-rule="nonzero"/></clipPath><clipPath id="59bd407d39"><path d="M 438 76.800781 L 691.050781 76.800781 L 691.050781 456 L 438 456 Z M 438 76.800781 " clip-rule="nonzero"/></clipPath></defs><path fill="#ffffff" d="M 332.738281 179.175781 L 435.113281 179.175781 L 435.113281 199.648438 L 332.738281 199.648438 Z M 332.738281 179.175781 " fill-opacity="1" fill-rule="nonzero"/><path fill="#ffffff" d="M 332.738281 220.125 L 435.113281 220.125 L 435.113281 240.601562 L 332.738281 240.601562 Z M 332.738281 220.125 " fill-opacity="1" fill-rule="nonzero"/><g clip-path="url(#a51ab80729)"><path fill="#ffffff" d="M 639.863281 609.148438 L 639.863281 527.25 C 639.863281 522.703125 636.863281 518.703125 632.492188 517.421875 L 394.164062 447.910156 L 394.164062 322.5 L 465.824219 322.5 C 471.484375 322.5 476.0625 317.914062 476.0625 312.261719 L 476.0625 148.460938 C 476.0625 145.75 474.988281 143.140625 473.0625 141.222656 L 411.636719 79.800781 C 409.722656 77.875 407.125 76.800781 404.398438 76.800781 L 302.023438 76.800781 C 296.363281 76.800781 291.789062 81.386719 291.789062 87.039062 L 291.789062 312.261719 C 291.789062 317.914062 296.363281 322.5 302.023438 322.5 L 373.6875 322.5 L 373.6875 447.910156 L 135.359375 517.421875 C 130.988281 518.703125 127.988281 522.703125 127.988281 527.25 L 127.988281 609.148438 C 127.988281 613.695312 130.988281 617.699219 135.359375 618.976562 L 381.058594 690.640625 C 382 690.917969 382.953125 691.050781 383.925781 691.050781 C 384.898438 691.050781 385.851562 690.917969 386.792969 690.640625 L 632.492188 618.976562 C 636.863281 617.699219 639.863281 613.695312 639.863281 609.148438 Z M 414.636719 111.75 L 441.113281 138.226562 L 414.636719 138.226562 Z M 312.261719 97.273438 L 394.164062 97.273438 L 394.164062 148.460938 C 394.164062 154.113281 398.738281 158.699219 404.398438 158.699219 L 455.585938 158.699219 L 455.585938 302.023438 L 312.261719 302.023438 Z M 373.6875 469.234375 L 373.6875 523.011719 L 350.214844 499.535156 L 335.738281 514.011719 L 376.6875 554.964844 C 378.683594 556.960938 381.304688 557.960938 383.925781 557.960938 C 386.546875 557.960938 389.167969 556.960938 391.164062 554.964844 L 432.113281 514.011719 L 417.636719 499.535156 L 394.164062 523.011719 L 394.164062 469.234375 L 593.066406 527.25 L 383.925781 588.246094 L 174.78125 527.25 Z M 148.460938 540.898438 L 373.6875 606.589844 L 373.6875 667.164062 L 148.460938 601.472656 Z M 394.164062 667.164062 L 394.164062 606.589844 L 619.386719 540.898438 L 619.386719 601.472656 Z M 394.164062 667.164062 " fill-opacity="1" fill-rule="nonzero"/></g><path fill="#ffffff" d="M 332.738281 138.226562 L 373.6875 138.226562 L 373.6875 158.699219 L 332.738281 158.699219 Z M 332.738281 138.226562 " fill-opacity="1" fill-rule="nonzero"/><g clip-path="url(#80a1ff9ac3)"><path fill="#ffffff" d="M 87.039062 322.5 L 158.699219 322.5 C 158.699219 350.726562 181.664062 373.6875 209.886719 373.6875 L 240.601562 373.6875 C 257.53125 373.6875 271.3125 387.46875 271.3125 404.398438 L 271.3125 420.636719 L 247.839844 397.160156 L 233.363281 411.636719 L 274.3125 452.589844 C 276.308594 454.585938 278.929688 455.585938 281.550781 455.585938 C 284.171875 455.585938 286.792969 454.585938 288.789062 452.589844 L 329.738281 411.636719 L 315.261719 397.160156 L 291.789062 420.636719 L 291.789062 404.398438 C 291.789062 376.175781 268.824219 353.210938 240.601562 353.210938 L 209.886719 353.210938 C 192.953125 353.210938 179.175781 339.433594 179.175781 322.5 L 250.835938 322.5 C 256.5 322.5 261.074219 317.914062 261.074219 312.261719 L 261.074219 148.460938 C 261.074219 145.75 260 143.140625 258.074219 141.222656 L 196.652344 79.800781 C 194.734375 77.875 192.136719 76.800781 189.414062 76.800781 L 87.039062 76.800781 C 81.375 76.800781 76.800781 81.386719 76.800781 87.039062 L 76.800781 312.261719 C 76.800781 317.914062 81.375 322.5 87.039062 322.5 Z M 199.648438 111.75 L 226.125 138.226562 L 199.648438 138.226562 Z M 97.273438 97.273438 L 179.175781 97.273438 L 179.175781 148.460938 C 179.175781 154.113281 183.75 158.699219 189.414062 158.699219 L 240.601562 158.699219 L 240.601562 302.023438 L 97.273438 302.023438 Z M 97.273438 97.273438 " fill-opacity="1" fill-rule="nonzero"/></g><path fill="#ffffff" d="M 117.75 179.175781 L 220.125 179.175781 L 220.125 199.648438 L 117.75 199.648438 Z M 117.75 179.175781 " fill-opacity="1" fill-rule="nonzero"/><path fill="#ffffff" d="M 117.75 220.125 L 220.125 220.125 L 220.125 240.601562 L 117.75 240.601562 Z M 117.75 220.125 " fill-opacity="1" fill-rule="nonzero"/><path fill="#ffffff" d="M 117.75 261.074219 L 220.125 261.074219 L 220.125 281.550781 L 117.75 281.550781 Z M 117.75 261.074219 " fill-opacity="1" fill-rule="nonzero"/><path fill="#ffffff" d="M 117.75 138.226562 L 158.699219 138.226562 L 158.699219 158.699219 L 117.75 158.699219 Z M 117.75 138.226562 " fill-opacity="1" fill-rule="nonzero"/><g clip-path="url(#59bd407d39)"><path fill="#ffffff" d="M 691.050781 312.261719 L 691.050781 148.460938 C 691.050781 145.75 689.976562 143.140625 688.050781 141.222656 L 626.625 79.800781 C 624.710938 77.875 622.109375 76.800781 619.386719 76.800781 L 517.011719 76.800781 C 511.351562 76.800781 506.773438 81.386719 506.773438 87.039062 L 506.773438 312.261719 C 506.773438 317.914062 511.351562 322.5 517.011719 322.5 L 588.675781 322.5 C 588.675781 339.433594 574.894531 353.210938 557.960938 353.210938 L 527.25 353.210938 C 499.023438 353.210938 476.0625 376.175781 476.0625 404.398438 L 476.0625 420.636719 L 452.589844 397.160156 L 438.113281 411.636719 L 479.0625 452.589844 C 481.058594 454.585938 483.679688 455.585938 486.300781 455.585938 C 488.921875 455.585938 491.542969 454.585938 493.539062 452.589844 L 534.488281 411.636719 L 520.011719 397.160156 L 496.539062 420.636719 L 496.539062 404.398438 C 496.539062 387.46875 510.316406 373.6875 527.25 373.6875 L 557.960938 373.6875 C 586.1875 373.6875 609.148438 350.726562 609.148438 322.5 L 680.8125 322.5 C 686.472656 322.5 691.050781 317.914062 691.050781 312.261719 Z M 629.625 111.75 L 656.097656 138.226562 L 629.625 138.226562 Z M 527.25 302.023438 L 527.25 97.273438 L 609.148438 97.273438 L 609.148438 148.460938 C 609.148438 154.113281 613.726562 158.699219 619.386719 158.699219 L 670.574219 158.699219 L 670.574219 302.023438 Z M 527.25 302.023438 " fill-opacity="1" fill-rule="nonzero"/></g><path fill="#ffffff" d="M 547.726562 179.175781 L 650.101562 179.175781 L 650.101562 199.648438 L 547.726562 199.648438 Z M 547.726562 179.175781 " fill-opacity="1" fill-rule="nonzero"/><path fill="#ffffff" d="M 547.726562 220.125 L 650.101562 220.125 L 650.101562 240.601562 L 547.726562 240.601562 Z M 547.726562 220.125 " fill-opacity="1" fill-rule="nonzero"/><path fill="#ffffff" d="M 547.726562 261.074219 L 650.101562 261.074219 L 650.101562 281.550781 L 547.726562 281.550781 Z M 547.726562 261.074219 " fill-opacity="1" fill-rule="nonzero"/><path fill="#ffffff" d="M 547.726562 138.226562 L 588.675781 138.226562 L 588.675781 158.699219 L 547.726562 158.699219 Z M 547.726562 138.226562 " fill-opacity="1" fill-rule="nonzero"/><path fill="#ffffff" d="M 332.738281 261.074219 L 353.210938 261.074219 L 353.210938 281.550781 L 332.738281 281.550781 Z M 332.738281 261.074219 " fill-opacity="1" fill-rule="nonzero"/><path fill="#ffffff" d="M 373.6875 261.074219 L 394.164062 261.074219 L 394.164062 281.550781 L 373.6875 281.550781 Z M 373.6875 261.074219 " fill-opacity="1" fill-rule="nonzero"/><path fill="#ffffff" d="M 414.636719 261.074219 L 435.113281 261.074219 L 435.113281 281.550781 L 414.636719 281.550781 Z M 414.636719 261.074219 " fill-opacity="1" fill-rule="nonzero"/></svg>