<svg xmlns="http://www.w3.org/2000/svg" xmlns:xlink="http://www.w3.org/1999/xlink" width="1024" zoomAndPan="magnify" viewBox="0 0 768 767.999994" height="1024" preserveAspectRatio="xMidYMid meet" version="1.0"><defs><clipPath id="f1de41f3e2"><path d="M 76.800781 76.800781 L 691 76.800781 L 691 691.050781 L 76.800781 691.050781 Z M 76.800781 76.800781 " clip-rule="nonzero"/></clipPath></defs><g clip-path="url(#f1de41f3e2)"><path fill="#000000" d="M 666.171875 545.59375 C 658.308594 537.734375 649.21875 531.589844 639.144531 527.289062 C 628.703125 522.867188 617.523438 520.535156 606.097656 520.535156 C 594.675781 520.535156 583.496094 522.746094 573.050781 527.289062 C 562.980469 531.589844 553.886719 537.734375 546.027344 545.59375 C 538.164062 553.457031 532.144531 562.550781 527.84375 572.621094 C 524.402344 580.730469 522.316406 589.332031 521.457031 598.050781 L 406.097656 598.050781 C 405.484375 593.507812 404.257812 588.960938 402.414062 584.660156 C 399.710938 578.273438 395.78125 572.375 390.867188 567.464844 C 385.953125 562.550781 380.179688 558.617188 373.667969 555.914062 C 367.03125 553.089844 359.90625 551.617188 352.660156 551.617188 C 345.410156 551.617188 338.285156 553.089844 331.652344 555.914062 C 325.265625 558.617188 319.488281 562.550781 314.453125 567.464844 C 309.539062 572.375 305.609375 578.273438 302.90625 584.660156 C 301.0625 588.960938 299.835938 593.382812 299.21875 598.050781 L 195.289062 598.050781 C 138.53125 598.050781 92.339844 551.738281 92.339844 494.859375 C 92.339844 437.980469 138.53125 391.664062 195.289062 391.664062 L 219 391.664062 C 219.613281 396.210938 220.839844 400.753906 222.683594 405.054688 C 225.386719 411.445312 229.316406 417.339844 234.230469 422.253906 C 239.144531 427.167969 244.921875 431.097656 251.429688 433.800781 C 258.066406 436.628906 265.191406 438.101562 272.4375 438.101562 C 279.6875 438.101562 286.8125 436.628906 293.445312 433.800781 C 299.835938 431.097656 305.609375 427.167969 310.644531 422.253906 C 315.683594 417.339844 319.488281 411.445312 322.191406 405.054688 C 324.035156 400.753906 325.265625 396.332031 325.878906 391.664062 L 437.792969 391.664062 C 438.410156 396.210938 439.636719 400.753906 441.480469 405.054688 C 444.183594 411.445312 448.113281 417.339844 453.027344 422.253906 C 457.941406 427.167969 463.714844 431.097656 470.226562 433.800781 C 476.859375 436.628906 483.984375 438.101562 491.234375 438.101562 C 498.484375 438.101562 505.609375 436.628906 512.242188 433.800781 C 518.628906 431.097656 524.402344 427.167969 529.441406 422.253906 C 534.355469 417.339844 538.285156 411.445312 540.988281 405.054688 C 542.832031 400.753906 544.058594 396.332031 544.675781 391.664062 L 572.683594 391.664062 C 588.65625 391.664062 604.132812 388.46875 618.753906 382.328125 C 632.878906 376.308594 645.535156 367.832031 656.34375 356.898438 C 667.15625 345.964844 675.753906 333.3125 681.652344 319.183594 C 687.792969 304.5625 690.988281 288.960938 690.988281 272.992188 C 690.988281 257.019531 687.917969 241.417969 681.652344 226.800781 C 675.632812 212.671875 667.15625 200.019531 656.34375 189.085938 C 645.535156 178.152344 632.757812 169.675781 618.753906 163.65625 C 604.132812 157.511719 588.65625 154.320312 572.683594 154.320312 L 464.453125 154.320312 C 463.839844 149.773438 462.609375 145.226562 460.769531 140.925781 C 458.066406 134.539062 454.132812 128.644531 449.21875 123.730469 C 444.304688 118.816406 438.53125 114.882812 432.019531 112.179688 C 425.386719 109.355469 418.261719 107.882812 411.011719 107.882812 C 403.765625 107.882812 396.640625 109.355469 390.007812 112.179688 C 383.617188 114.882812 377.84375 118.816406 372.808594 123.730469 C 367.894531 128.644531 363.960938 134.539062 361.257812 140.925781 C 359.417969 145.226562 358.1875 149.648438 357.574219 154.320312 L 246.640625 154.320312 C 245.902344 145.597656 243.691406 136.996094 240.25 128.886719 C 235.953125 118.691406 229.808594 109.601562 222.070312 101.863281 C 214.207031 94 205.117188 87.855469 195.042969 83.558594 C 184.476562 79.011719 173.296875 76.800781 161.875 76.800781 C 150.449219 76.800781 139.269531 79.011719 128.828125 83.558594 C 118.753906 87.855469 109.664062 94 101.800781 101.863281 C 93.9375 109.722656 87.917969 118.816406 83.617188 128.886719 C 79.074219 139.332031 76.863281 150.511719 76.863281 162.058594 C 76.863281 173.605469 79.074219 184.664062 83.496094 195.226562 C 87.796875 205.425781 93.9375 214.515625 101.675781 222.253906 C 109.539062 230.117188 118.628906 236.257812 128.703125 240.558594 C 139.144531 244.980469 150.324219 247.316406 161.75 247.316406 C 173.175781 247.316406 184.355469 245.105469 194.796875 240.558594 C 204.871094 236.257812 213.960938 230.117188 221.824219 222.253906 C 229.6875 214.390625 235.707031 205.300781 240.007812 195.226562 C 243.445312 187.121094 245.535156 178.519531 246.394531 169.796875 L 357.328125 169.796875 C 357.941406 174.34375 359.171875 178.886719 361.011719 183.1875 C 363.714844 189.578125 367.648438 195.472656 372.5625 200.386719 C 377.476562 205.300781 383.25 209.230469 389.761719 211.933594 C 396.394531 214.761719 403.519531 216.234375 410.769531 216.234375 C 418.015625 216.234375 425.140625 214.761719 431.773438 211.933594 C 438.164062 209.230469 443.9375 205.300781 448.972656 200.386719 C 453.886719 195.472656 457.820312 189.578125 460.523438 183.1875 C 462.363281 178.886719 463.59375 174.464844 464.207031 169.796875 L 572.4375 169.796875 C 629.195312 169.796875 675.386719 216.113281 675.386719 272.992188 C 675.386719 329.871094 629.195312 376.183594 572.4375 376.183594 L 544.429688 376.183594 C 543.8125 371.640625 542.585938 367.09375 540.742188 362.792969 C 538.039062 356.40625 534.109375 350.511719 529.195312 345.597656 C 524.28125 340.683594 518.507812 336.75 511.996094 334.046875 C 505.363281 331.222656 498.238281 329.75 490.988281 329.75 C 483.742188 329.75 476.617188 331.222656 469.980469 334.046875 C 463.59375 336.75 457.820312 340.683594 452.78125 345.597656 C 447.867188 350.511719 443.9375 356.40625 441.234375 362.792969 C 439.390625 367.09375 438.164062 371.515625 437.550781 376.183594 L 325.632812 376.183594 C 325.019531 371.640625 323.789062 367.09375 321.945312 362.792969 C 319.246094 356.40625 315.3125 350.511719 310.398438 345.597656 C 305.484375 340.683594 299.710938 336.75 293.199219 334.046875 C 286.566406 331.222656 279.441406 329.75 272.191406 329.75 C 264.945312 329.75 257.820312 331.222656 251.1875 334.046875 C 244.796875 336.75 239.023438 340.683594 233.988281 345.597656 C 229.074219 350.511719 225.140625 356.40625 222.4375 362.792969 C 220.597656 367.09375 219.367188 371.515625 218.753906 376.183594 L 195.289062 376.183594 C 179.316406 376.183594 163.839844 379.378906 149.21875 385.523438 C 135.09375 391.542969 122.4375 400.019531 111.628906 410.953125 C 100.816406 421.886719 92.21875 434.539062 86.320312 448.667969 C 80.179688 463.285156 76.984375 478.886719 76.984375 494.859375 C 76.984375 510.828125 80.054688 526.429688 86.320312 541.050781 C 92.339844 555.179688 100.816406 567.832031 111.628906 578.765625 C 122.4375 589.699219 135.214844 598.175781 149.21875 604.195312 C 163.839844 610.335938 179.316406 613.53125 195.289062 613.53125 L 299.21875 613.53125 C 299.835938 618.078125 301.0625 622.621094 302.90625 626.921875 C 305.609375 633.3125 309.539062 639.207031 314.453125 644.121094 C 319.367188 649.035156 325.140625 652.964844 331.652344 655.667969 C 338.285156 658.496094 345.410156 659.96875 352.660156 659.96875 C 359.90625 659.96875 367.03125 658.496094 373.667969 655.667969 C 380.054688 652.964844 385.828125 649.035156 390.867188 644.121094 C 395.78125 639.207031 399.710938 633.3125 402.414062 626.921875 C 404.257812 622.621094 405.484375 618.199219 406.097656 613.53125 L 521.457031 613.53125 C 522.191406 622.253906 524.402344 630.855469 527.84375 638.960938 C 532.144531 649.160156 538.285156 658.25 546.027344 665.988281 C 553.765625 673.726562 562.980469 679.992188 573.050781 684.292969 C 583.496094 688.714844 594.675781 691.050781 606.097656 691.050781 C 617.523438 691.050781 628.703125 688.839844 639.144531 684.292969 C 649.21875 679.992188 658.308594 673.851562 666.171875 665.988281 C 674.035156 658.125 680.054688 649.035156 684.355469 638.960938 C 688.777344 628.398438 690.988281 617.339844 690.988281 605.792969 C 690.988281 594.246094 688.777344 583.1875 684.355469 572.621094 C 680.179688 562.550781 674.035156 553.335938 666.171875 545.59375 Z M 161.875 231.835938 C 123.542969 231.835938 92.21875 200.511719 92.21875 162.058594 C 92.21875 123.484375 123.542969 92.277344 161.875 92.277344 C 200.203125 92.277344 231.53125 123.605469 231.53125 162.058594 C 231.53125 200.511719 200.324219 231.835938 161.875 231.835938 Z M 411.011719 200.753906 C 389.761719 200.753906 372.4375 183.433594 372.4375 162.058594 C 372.4375 140.683594 389.761719 123.359375 411.011719 123.359375 C 432.265625 123.359375 449.589844 140.683594 449.589844 162.058594 C 449.589844 183.433594 432.265625 200.753906 411.011719 200.753906 Z M 491.234375 345.226562 C 512.488281 345.226562 529.808594 362.550781 529.808594 383.925781 C 529.808594 405.300781 512.488281 422.621094 491.234375 422.621094 C 469.980469 422.621094 452.660156 405.300781 452.660156 383.925781 C 452.660156 362.550781 469.980469 345.226562 491.234375 345.226562 Z M 272.4375 345.226562 C 293.691406 345.226562 311.011719 362.550781 311.011719 383.925781 C 311.011719 405.300781 293.691406 422.621094 272.4375 422.621094 C 251.1875 422.621094 233.863281 405.300781 233.863281 383.925781 C 233.863281 362.550781 251.0625 345.226562 272.4375 345.226562 Z M 352.660156 644.488281 C 331.40625 644.488281 314.085938 627.167969 314.085938 605.792969 C 314.085938 584.417969 331.40625 567.09375 352.660156 567.09375 C 373.914062 567.09375 391.234375 584.417969 391.234375 605.792969 C 391.234375 627.167969 373.914062 644.488281 352.660156 644.488281 Z M 606.097656 675.570312 C 567.769531 675.570312 536.441406 644.242188 536.441406 605.792969 C 536.441406 567.339844 567.648438 536.011719 606.097656 536.011719 C 644.429688 536.011719 675.753906 567.339844 675.753906 605.792969 C 675.753906 644.367188 644.429688 675.570312 606.097656 675.570312 Z M 606.097656 675.570312 " fill-opacity="1" fill-rule="nonzero"/></g><path fill="#000000" d="M 606.097656 552.722656 C 591.972656 552.722656 578.703125 558.25 568.628906 568.324219 C 558.554688 578.398438 553.152344 591.664062 553.152344 605.792969 C 553.152344 619.917969 558.679688 633.308594 568.628906 643.261719 C 578.582031 653.335938 591.972656 658.863281 606.097656 658.863281 C 620.226562 658.863281 633.496094 653.335938 643.570312 643.261719 C 653.519531 633.1875 659.046875 619.917969 659.046875 605.792969 C 659.046875 591.664062 653.519531 578.273438 643.570312 568.324219 C 633.496094 558.25 620.226562 552.722656 606.097656 552.722656 Z M 606.097656 643.507812 C 585.460938 643.507812 568.507812 626.675781 568.507812 605.914062 C 568.507812 585.152344 585.335938 568.324219 606.097656 568.324219 C 626.738281 568.324219 643.691406 585.152344 643.691406 605.914062 C 643.691406 626.554688 626.738281 643.507812 606.097656 643.507812 Z M 606.097656 643.507812 " fill-opacity="1" fill-rule="nonzero"/><path fill="#000000" d="M 625.386719 605.792969 C 625.386719 606.429688 625.355469 607.0625 625.292969 607.695312 C 625.230469 608.328125 625.140625 608.957031 625.015625 609.578125 C 624.894531 610.203125 624.738281 610.816406 624.554688 611.425781 C 624.371094 612.035156 624.160156 612.632812 623.917969 613.21875 C 623.675781 613.808594 623.40625 614.382812 623.109375 614.941406 C 622.8125 615.503906 622.488281 616.046875 622.136719 616.574219 C 621.785156 617.105469 621.410156 617.613281 621.007812 618.105469 C 620.609375 618.597656 620.183594 619.066406 619.738281 619.515625 C 619.289062 619.964844 618.824219 620.394531 618.335938 620.796875 C 617.847656 621.199219 617.339844 621.578125 616.816406 621.929688 C 616.289062 622.285156 615.75 622.609375 615.191406 622.910156 C 614.632812 623.210938 614.0625 623.480469 613.480469 623.726562 C 612.898438 623.96875 612.300781 624.183594 611.699219 624.367188 C 611.09375 624.550781 610.480469 624.707031 609.863281 624.828125 C 609.242188 624.953125 608.617188 625.046875 607.988281 625.109375 C 607.359375 625.171875 606.730469 625.203125 606.097656 625.203125 C 605.46875 625.203125 604.835938 625.171875 604.207031 625.109375 C 603.578125 625.046875 602.957031 624.953125 602.335938 624.828125 C 601.714844 624.707031 601.105469 624.550781 600.5 624.367188 C 599.894531 624.183594 599.300781 623.96875 598.71875 623.726562 C 598.132812 623.480469 597.5625 623.210938 597.007812 622.910156 C 596.449219 622.609375 595.910156 622.285156 595.382812 621.929688 C 594.859375 621.578125 594.351562 621.199219 593.863281 620.796875 C 593.375 620.394531 592.90625 619.964844 592.460938 619.515625 C 592.015625 619.066406 591.589844 618.597656 591.191406 618.105469 C 590.789062 617.613281 590.414062 617.105469 590.0625 616.574219 C 589.710938 616.046875 589.386719 615.503906 589.089844 614.941406 C 588.792969 614.382812 588.523438 613.808594 588.28125 613.21875 C 588.039062 612.632812 587.824219 612.035156 587.640625 611.425781 C 587.457031 610.816406 587.304688 610.203125 587.183594 609.578125 C 587.058594 608.957031 586.964844 608.328125 586.90625 607.695312 C 586.84375 607.0625 586.8125 606.429688 586.8125 605.792969 C 586.8125 605.15625 586.84375 604.523438 586.90625 603.890625 C 586.964844 603.257812 587.058594 602.628906 587.183594 602.003906 C 587.304688 601.382812 587.457031 600.765625 587.640625 600.15625 C 587.824219 599.550781 588.039062 598.953125 588.28125 598.363281 C 588.523438 597.777344 588.792969 597.203125 589.089844 596.640625 C 589.386719 596.082031 589.710938 595.535156 590.0625 595.007812 C 590.414062 594.480469 590.789062 593.96875 591.191406 593.476562 C 591.589844 592.988281 592.015625 592.515625 592.460938 592.066406 C 592.90625 591.617188 593.375 591.191406 593.863281 590.789062 C 594.351562 590.382812 594.859375 590.007812 595.382812 589.652344 C 595.910156 589.300781 596.449219 588.972656 597.007812 588.671875 C 597.5625 588.375 598.132812 588.101562 598.71875 587.859375 C 599.300781 587.617188 599.894531 587.402344 600.5 587.21875 C 601.105469 587.03125 601.714844 586.878906 602.335938 586.753906 C 602.957031 586.628906 603.578125 586.539062 604.207031 586.476562 C 604.835938 586.414062 605.46875 586.382812 606.097656 586.382812 C 606.730469 586.382812 607.359375 586.414062 607.988281 586.476562 C 608.617188 586.539062 609.242188 586.628906 609.863281 586.753906 C 610.480469 586.878906 611.09375 587.03125 611.699219 587.21875 C 612.300781 587.402344 612.898438 587.617188 613.480469 587.859375 C 614.0625 588.101562 614.632812 588.375 615.191406 588.671875 C 615.75 588.972656 616.289062 589.300781 616.816406 589.652344 C 617.339844 590.007812 617.847656 590.382812 618.335938 590.789062 C 618.824219 591.191406 619.289062 591.617188 619.738281 592.066406 C 620.183594 592.515625 620.609375 592.988281 621.007812 593.476562 C 621.410156 593.96875 621.785156 594.480469 622.136719 595.007812 C 622.488281 595.535156 622.8125 596.082031 623.109375 596.640625 C 623.40625 597.203125 623.675781 597.777344 623.917969 598.363281 C 624.160156 598.953125 624.371094 599.550781 624.554688 600.15625 C 624.738281 600.765625 624.894531 601.382812 625.015625 602.003906 C 625.140625 602.628906 625.230469 603.257812 625.292969 603.890625 C 625.355469 604.523438 625.386719 605.15625 625.386719 605.792969 Z M 625.386719 605.792969 " fill-opacity="1" fill-rule="nonzero"/><path fill="#000000" d="M 163.59375 146.457031 L 129.5625 146.457031 L 129.5625 177.535156 L 163.59375 177.535156 L 163.59375 192.402344 L 208.800781 162.058594 L 163.59375 131.589844 Z M 163.59375 146.457031 " fill-opacity="1" fill-rule="nonzero"/></svg>