<svg xmlns="http://www.w3.org/2000/svg" xmlns:xlink="http://www.w3.org/1999/xlink" width="1024" zoomAndPan="magnify" viewBox="0 0 768 767.999994" height="1024" preserveAspectRatio="xMidYMid meet" version="1.0"><defs><clipPath id="3ac3adbe17"><path d="M 148.609375 78 L 619.609375 78 L 619.609375 682 L 148.609375 682 Z M 148.609375 78 " clip-rule="nonzero"/></clipPath></defs><g clip-path="url(#3ac3adbe17)"><path fill="#000000" d="M 601.3125 506.964844 C 601.3125 509.84375 598.925781 512.269531 596 512.269531 L 554.039062 512.269531 C 551.1875 512.269531 548.800781 509.84375 548.800781 506.964844 L 548.800781 376.527344 C 548.800781 373.660156 551.1875 371.234375 554.039062 371.234375 L 596 371.234375 C 598.925781 371.234375 601.3125 373.660156 601.3125 376.527344 Z M 518.234375 553.152344 C 513.691406 557.664062 506.375 557.664062 501.832031 553.152344 C 496.085938 547.417969 486.28125 551.542969 486.28125 559.617188 C 486.28125 566.519531 492.285156 566.089844 492.285156 574.234375 C 492.285156 584.621094 479.855469 589.574219 472.652344 582.390625 C 466.84375 576.601562 457.023438 580.839844 457.023438 588.847656 C 457.023438 591.1875 457.945312 593.515625 459.71875 595.308594 C 464.183594 599.800781 464.183594 607.128906 459.71875 611.636719 C 455.175781 616.128906 447.859375 616.128906 443.316406 611.636719 C 437.523438 605.851562 427.765625 610.074219 427.765625 618.082031 C 427.765625 620.421875 428.609375 622.761719 430.457031 624.539062 C 434.921875 629.042969 434.921875 636.359375 430.457031 640.867188 C 426.144531 645.136719 419.757812 643.3125 415.136719 641.011719 C 433.382812 622.398438 420.5 590.816406 394.347656 590.355469 C 394.1875 574.351562 381.171875 561.386719 365.167969 561.117188 C 364.832031 544.984375 351.980469 532.15625 335.832031 531.886719 C 335.5625 505.847656 303.65625 492.699219 285.015625 511.335938 L 265.382812 530.964844 C 255.757812 522.117188 246.515625 513.074219 237.664062 503.957031 L 237.664062 384.609375 L 320.664062 384.609375 C 330.289062 384.609375 338.371094 387.355469 346.070312 393.214844 C 356.15625 400.925781 366.398438 408.527344 376.5625 415.96875 L 345.070312 456.644531 C 336.601562 467.609375 337.371094 482.890625 346.917969 492.953125 C 363.34375 510.1875 380.234375 530.171875 397.195312 530.171875 C 411.1875 530.171875 422.398438 516.347656 422.527344 503.070312 C 422.605469 494.4375 418.832031 485.484375 410.824219 475.84375 L 418.601562 469.179688 L 454.402344 475.964844 L 507.144531 527.417969 C 507.300781 527.5625 507.453125 527.699219 507.609375 527.816406 L 507.609375 527.832031 L 518.695312 537.324219 C 523.472656 541.40625 522.242188 549.054688 518.234375 553.152344 Z M 370.632812 659.625 L 402.046875 628.28125 C 406.511719 623.769531 406.511719 616.453125 402.046875 611.953125 C 397.519531 607.46875 390.148438 607.515625 385.648438 611.953125 L 354.308594 643.296875 C 349.84375 647.804688 349.84375 655.117188 354.308594 659.625 C 358.851562 664.125 366.167969 664.109375 370.632812 659.625 Z M 325.050781 614.0625 C 320.585938 618.5625 320.585938 625.886719 325.050781 630.378906 C 329.59375 634.886719 336.910156 634.886719 341.375 630.378906 L 372.789062 599.050781 C 377.253906 594.539062 377.253906 587.214844 372.789062 582.722656 C 368.351562 578.265625 360.96875 578.21875 356.464844 582.722656 Z M 295.792969 584.832031 C 291.328125 589.332031 291.328125 596.648438 295.792969 601.15625 C 300.335938 605.644531 307.652344 605.644531 312.117188 601.15625 L 343.53125 569.804688 C 347.996094 565.300781 347.996094 557.988281 343.53125 553.484375 C 339.011719 549 331.714844 548.960938 327.207031 553.484375 Z M 266.535156 555.585938 C 262.070312 560.09375 262.070312 567.417969 266.535156 571.914062 C 271.078125 576.414062 278.394531 576.414062 282.859375 571.914062 L 314.273438 540.566406 C 318.738281 536.074219 318.738281 528.75 314.273438 524.253906 C 309.816406 519.761719 302.472656 519.71875 297.953125 524.253906 Z M 219.414062 506.964844 C 219.414062 509.84375 216.949219 512.269531 214.101562 512.269531 L 172.140625 512.269531 C 169.292969 512.269531 166.828125 509.84375 166.828125 506.964844 L 166.828125 376.527344 C 166.828125 373.660156 169.292969 371.234375 172.140625 371.234375 L 214.101562 371.234375 C 216.949219 371.234375 219.414062 373.660156 219.414062 376.527344 Z M 218.875 270.578125 C 218.875 269.417969 219.875 268.417969 221.03125 268.417969 L 547.105469 268.417969 C 548.335938 268.417969 549.261719 269.417969 549.261719 270.578125 L 549.261719 283.335938 L 218.875 283.335938 Z M 384.109375 195.386719 C 422.375 195.386719 457.332031 216.9375 474.886719 250.152344 L 293.253906 250.152344 C 310.808594 216.9375 345.839844 195.386719 384.109375 195.386719 Z M 393.191406 101.21875 L 434.078125 117.476562 L 393.191406 133.71875 Z M 533.480469 365.125 C 536.710938 359.21875 542.488281 354.863281 549.261719 353.460938 L 549.261719 301.601562 L 497.828125 301.601562 L 497.828125 325.65625 C 497.828125 330.695312 493.75 334.789062 488.667969 334.789062 C 483.664062 334.789062 479.582031 330.695312 479.582031 325.65625 L 479.582031 301.601562 L 428.070312 301.601562 L 428.070312 325.65625 C 428.070312 330.695312 423.992188 334.789062 418.988281 334.789062 C 413.90625 334.789062 409.824219 330.695312 409.824219 325.65625 L 409.824219 301.601562 L 358.390625 301.601562 L 358.390625 325.65625 C 358.390625 330.695312 354.234375 334.789062 349.230469 334.789062 C 344.148438 334.789062 340.066406 330.695312 340.066406 325.65625 L 340.066406 301.601562 L 288.632812 301.601562 L 288.632812 325.65625 C 288.632812 330.695312 284.554688 334.789062 279.472656 334.789062 C 274.46875 334.789062 270.308594 330.695312 270.308594 325.65625 L 270.308594 301.601562 L 218.875 301.601562 L 218.875 353.460938 C 226.191406 354.960938 232.195312 359.839844 235.351562 366.347656 L 320.664062 366.347656 C 334.367188 366.347656 346.300781 370.398438 357.160156 378.722656 C 367.246094 386.417969 377.5625 394.046875 387.726562 401.519531 L 405.433594 378.582031 C 414.597656 366.75 432.074219 366.511719 443.546875 366.351562 Z M 391.269531 481.5 C 387.570312 477.738281 387.785156 471.566406 391.808594 468.109375 L 410.054688 452.453125 C 412.210938 450.652344 414.984375 449.898438 417.753906 450.421875 L 460.488281 458.53125 C 462.257812 458.871094 463.875 459.710938 465.183594 460.964844 L 514.460938 508.992188 C 520.160156 504.972656 525.550781 501.511719 530.476562 498.355469 L 530.476562 383.421875 L 443.859375 384.609375 C 436.3125 384.722656 423.683594 384.894531 419.910156 389.75 L 359.546875 467.804688 C 356.621094 471.609375 356.855469 476.902344 360.164062 480.386719 C 371.328125 492.152344 387.921875 510.632812 396.351562 511.839844 C 400.671875 512.457031 404.28125 506.238281 404.28125 502.84375 C 404.28125 499.0625 402.125 492.285156 391.269531 481.5 Z M 595.996094 352.976562 L 567.585938 352.976562 L 567.585938 270.578125 C 567.585938 259.324219 558.425781 250.152344 547.105469 250.152344 L 495.136719 250.152344 C 477.425781 209.011719 437.851562 180.890625 393.195312 177.480469 L 393.195312 153.359375 L 462.179688 125.960938 C 469.851562 122.90625 469.847656 112.050781 462.179688 108.988281 L 387.496094 79.289062 C 381.507812 76.96875 374.945312 81.277344 374.945312 87.753906 L 374.945312 177.480469 C 330.367188 180.890625 290.789062 209.011719 273.003906 250.152344 L 221.035156 250.152344 C 209.792969 250.152344 200.628906 259.324219 200.628906 270.578125 L 200.628906 352.976562 L 172.140625 352.976562 C 159.128906 352.976562 148.578125 363.539062 148.578125 376.527344 L 148.578125 506.964844 C 148.578125 519.960938 159.128906 530.523438 172.140625 530.523438 L 214.101562 530.523438 C 220.722656 530.523438 226.804688 527.746094 231.042969 523.308594 C 237.972656 530.253906 245.132812 537.15625 252.523438 543.933594 C 235.609375 562.808594 248.648438 593.0625 274.15625 593.515625 C 274.488281 609.550781 287.253906 622.460938 303.414062 622.746094 C 303.746094 638.863281 316.59375 651.6875 332.675781 651.992188 C 333.222656 678.457031 365.214844 690.921875 383.566406 672.535156 L 401.738281 654.398438 C 415.324219 663.09375 431.722656 665.398438 443.316406 653.773438 C 449.011719 648.105469 451.9375 640.703125 452.09375 633.253906 C 468.136719 632.953125 481.015625 620.097656 481.351562 604.015625 C 497.382812 603.714844 510.277344 590.769531 510.609375 574.773438 C 538.015625 574.257812 549.832031 539.796875 530.628906 523.4375 L 528.394531 521.535156 C 530.089844 520.390625 531.703125 519.296875 533.398438 518.226562 C 537.324219 525.542969 545.101562 530.523438 554.03125 530.523438 L 595.992188 530.523438 C 609.003906 530.523438 619.632812 519.957031 619.632812 506.960938 L 619.632812 376.523438 C 619.636719 363.539062 609.011719 352.976562 595.996094 352.976562 Z M 595.996094 352.976562 " fill-opacity="1" fill-rule="evenodd"/></g></svg>