<svg xmlns="http://www.w3.org/2000/svg" xmlns:xlink="http://www.w3.org/1999/xlink" width="1024" zoomAndPan="magnify" viewBox="0 0 768 767.999994" height="1024" preserveAspectRatio="xMidYMid meet" version="1.0"><defs><clipPath id="1be3932ac3"><path d="M 255 235 L 513 235 L 513 691.050781 L 255 691.050781 Z M 255 235 " clip-rule="nonzero"/></clipPath><clipPath id="c4d9677b18"><path d="M 314 76.800781 L 454 76.800781 L 454 216 L 314 216 Z M 314 76.800781 " clip-rule="nonzero"/></clipPath><clipPath id="22470d5344"><path d="M 76.800781 294 L 216 294 L 216 474 L 76.800781 474 Z M 76.800781 294 " clip-rule="nonzero"/></clipPath><clipPath id="171cb8230d"><path d="M 532 304 L 691.050781 304 L 691.050781 464 L 532 464 Z M 532 304 " clip-rule="nonzero"/></clipPath></defs><path fill="#000000" d="M 383.925781 413.648438 C 356.601562 413.648438 334.390625 391.433594 334.390625 364.109375 C 334.390625 336.789062 356.601562 314.574219 383.925781 314.574219 C 411.246094 314.574219 433.460938 336.789062 433.460938 364.109375 C 433.460938 391.433594 411.246094 413.648438 383.925781 413.648438 Z M 383.925781 294.757812 C 345.6875 294.757812 314.574219 325.875 314.574219 364.109375 C 314.574219 402.347656 345.6875 433.460938 383.925781 433.460938 C 422.160156 433.460938 453.277344 402.347656 453.277344 364.109375 C 453.277344 325.875 422.160156 294.757812 383.925781 294.757812 " fill-opacity="1" fill-rule="nonzero"/><path fill="#000000" d="M 383.925781 374.019531 C 378.46875 374.019531 374.019531 369.566406 374.019531 364.109375 C 374.019531 358.652344 378.46875 354.203125 383.925781 354.203125 C 389.382812 354.203125 393.832031 358.652344 393.832031 364.109375 C 393.832031 369.566406 389.382812 374.019531 383.925781 374.019531 Z M 383.925781 334.390625 C 367.515625 334.390625 354.203125 347.703125 354.203125 364.109375 C 354.203125 380.519531 367.515625 393.832031 383.925781 393.832031 C 400.332031 393.832031 413.648438 380.519531 413.648438 364.109375 C 413.648438 347.703125 400.332031 334.390625 383.925781 334.390625 " fill-opacity="1" fill-rule="nonzero"/><g clip-path="url(#1be3932ac3)"><path fill="#000000" d="M 492.90625 369.027344 C 492.90625 373.667969 489.964844 377.734375 485.589844 379.164062 C 476.921875 381.988281 470.109375 388.375 466.898438 396.65625 C 466.472656 397.742188 466.046875 398.824219 465.582031 399.871094 C 462.0625 407.996094 462.371094 417.285156 466.433594 425.335938 C 468.523438 429.476562 467.75 434.429688 464.5 437.679688 L 457.492188 444.644531 C 454.242188 447.933594 449.289062 448.710938 445.148438 446.621094 C 437.097656 442.554688 427.8125 442.246094 419.683594 445.769531 C 418.640625 446.230469 417.59375 446.65625 416.511719 447.082031 C 408.230469 450.296875 401.804688 457.105469 398.980469 465.777344 C 397.546875 470.148438 393.484375 473.089844 388.839844 473.089844 L 379.011719 473.089844 C 374.367188 473.089844 370.339844 470.148438 368.871094 465.738281 C 366.046875 457.105469 359.621094 450.296875 351.300781 447.046875 C 350.253906 446.65625 349.210938 446.230469 348.164062 445.769531 C 344.410156 444.140625 340.425781 443.328125 336.402344 443.328125 C 331.71875 443.328125 327.035156 444.453125 322.703125 446.621094 C 318.558594 448.710938 313.605469 447.933594 310.355469 444.644531 L 303.351562 437.679688 C 300.101562 434.429688 299.328125 429.476562 301.417969 425.335938 C 305.480469 417.285156 305.789062 407.996094 302.265625 399.871094 C 301.804688 398.824219 301.378906 397.742188 300.953125 396.695312 C 297.738281 388.375 290.890625 381.988281 282.257812 379.164062 C 277.886719 377.734375 274.945312 373.667969 274.945312 369.027344 L 274.945312 359.195312 C 274.945312 354.550781 277.886719 350.488281 282.257812 349.054688 C 290.929688 346.230469 297.738281 339.84375 300.953125 331.523438 C 301.378906 330.480469 301.804688 329.394531 302.265625 328.351562 C 305.789062 320.222656 305.480469 310.9375 301.417969 302.886719 C 299.328125 298.746094 300.101562 293.792969 303.351562 290.542969 L 310.355469 283.574219 C 313.605469 280.324219 318.558594 279.511719 322.703125 281.601562 C 330.75 285.664062 340.039062 285.976562 348.164062 282.453125 C 349.210938 281.988281 350.253906 281.5625 351.339844 281.136719 C 359.621094 277.925781 366.046875 271.113281 368.871094 262.445312 C 370.300781 258.070312 374.367188 255.128906 379.011719 255.128906 L 388.839844 255.128906 C 393.484375 255.128906 397.546875 258.070312 398.980469 262.445312 C 401.804688 271.113281 408.230469 277.925781 416.550781 281.175781 C 417.59375 281.5625 418.640625 281.988281 419.683594 282.453125 C 427.773438 285.976562 437.097656 285.664062 445.148438 281.601562 C 449.289062 279.511719 454.242188 280.324219 457.492188 283.574219 L 464.5 290.542969 C 467.75 293.792969 468.523438 298.746094 466.433594 302.886719 C 462.371094 310.9375 462.0625 320.222656 465.582031 328.351562 C 466.046875 329.394531 466.472656 330.480469 466.898438 331.523438 C 470.109375 339.808594 476.921875 346.230469 485.589844 349.054688 C 489.964844 350.488281 492.90625 354.550781 492.90625 359.195312 Z M 390.699219 667.480469 C 387.757812 672.164062 380.09375 672.164062 377.152344 667.480469 L 342.359375 611.792969 L 425.488281 611.792969 Z M 354.203125 591.976562 L 334.390625 591.976562 L 334.390625 463.570312 C 336.402344 463.183594 338.414062 463.144531 340.269531 463.957031 C 341.546875 464.5 342.863281 465.039062 344.140625 465.542969 C 346.925781 466.628906 349.054688 468.949219 350.0625 471.96875 C 351.03125 474.910156 352.460938 477.65625 354.203125 480.09375 Z M 393.832031 591.976562 L 374.019531 591.976562 L 374.019531 492.480469 C 375.644531 492.75 377.308594 492.90625 379.011719 492.90625 L 388.839844 492.90625 C 390.542969 492.90625 392.207031 492.75 393.832031 492.480469 Z M 433.460938 591.976562 L 413.648438 591.976562 L 413.648438 480.09375 C 415.386719 477.65625 416.820312 474.910156 417.789062 471.96875 C 418.792969 468.949219 420.921875 466.628906 423.671875 465.542969 C 424.984375 465.039062 426.300781 464.5 427.578125 463.957031 C 429.4375 463.144531 431.449219 463.183594 433.460938 463.570312 Z M 512.71875 369.027344 L 512.71875 359.195312 C 512.71875 346 504.28125 334.351562 491.742188 330.246094 C 488.765625 329.242188 486.441406 327.113281 485.320312 324.289062 C 484.816406 323.011719 484.3125 321.734375 483.773438 320.457031 C 482.570312 317.746094 482.726562 314.613281 484.121094 311.789062 C 490.078125 300.023438 487.796875 285.859375 478.46875 276.53125 L 471.503906 269.566406 C 462.175781 260.238281 448.011719 257.957031 436.246094 263.914062 C 433.421875 265.347656 430.289062 265.464844 427.578125 264.265625 C 426.300781 263.722656 424.984375 263.179688 423.707031 262.675781 C 420.921875 261.59375 418.792969 259.273438 417.789062 256.253906 C 413.683594 243.753906 402.074219 235.316406 388.839844 235.316406 L 379.011719 235.316406 C 365.773438 235.316406 354.164062 243.753906 350.0625 256.292969 C 349.054688 259.273438 346.925781 261.59375 344.179688 262.675781 C 342.863281 263.179688 341.546875 263.722656 340.269531 264.265625 C 337.5625 265.425781 334.425781 265.308594 331.601562 263.914062 C 319.835938 257.957031 305.671875 260.238281 296.347656 269.566406 L 289.378906 276.53125 C 280.054688 285.859375 277.769531 300.023438 283.730469 311.789062 C 285.125 314.613281 285.277344 317.746094 284.078125 320.457031 C 283.535156 321.734375 283.035156 323.011719 282.492188 324.328125 C 281.40625 327.113281 279.085938 329.242188 276.066406 330.246094 C 263.527344 334.351562 255.128906 346 255.128906 359.195312 L 255.128906 369.027344 C 255.128906 382.222656 263.566406 393.871094 276.105469 397.972656 C 279.085938 398.980469 281.40625 401.109375 282.53125 403.894531 C 283.035156 405.210938 283.535156 406.488281 284.078125 407.765625 C 285.277344 410.472656 285.125 413.609375 283.730469 416.433594 C 277.769531 428.199219 280.054688 442.363281 289.378906 451.6875 L 296.347656 458.65625 C 301.378906 463.6875 307.839844 466.589844 314.574219 467.324219 L 314.574219 604.710938 L 360.355469 678.007812 C 365.464844 686.171875 374.289062 691.050781 383.925781 691.050781 C 393.5625 691.050781 402.386719 686.171875 407.492188 677.96875 L 453.277344 604.710938 L 453.277344 467.363281 C 460.007812 466.589844 466.472656 463.726562 471.503906 458.65625 L 478.46875 451.6875 C 487.796875 442.363281 490.078125 428.199219 484.121094 416.433594 C 482.726562 413.609375 482.570312 410.472656 483.773438 407.765625 C 484.3125 406.488281 484.816406 405.210938 485.359375 403.894531 C 486.441406 401.109375 488.765625 398.980469 491.78125 397.972656 C 504.320312 393.871094 512.71875 382.222656 512.71875 369.027344 " fill-opacity="1" fill-rule="nonzero"/></g><g clip-path="url(#c4d9677b18)"><path fill="#000000" d="M 433.460938 195.6875 L 334.390625 195.6875 L 334.390625 96.613281 L 433.460938 96.613281 Z M 453.277344 76.800781 L 314.574219 76.800781 L 314.574219 215.5 L 453.277344 215.5 L 453.277344 76.800781 " fill-opacity="1" fill-rule="nonzero"/></g><path fill="#000000" d="M 413.648438 116.429688 L 354.203125 116.429688 L 354.203125 136.242188 L 413.648438 136.242188 L 413.648438 116.429688 " fill-opacity="1" fill-rule="nonzero"/><path fill="#000000" d="M 413.648438 156.058594 L 354.203125 156.058594 L 354.203125 175.871094 L 413.648438 175.871094 L 413.648438 156.058594 " fill-opacity="1" fill-rule="nonzero"/><g clip-path="url(#22470d5344)"><path fill="#000000" d="M 126.335938 443.367188 L 126.335938 433.460938 L 165.964844 433.460938 L 165.964844 443.367188 C 165.964844 448.824219 161.515625 453.277344 156.058594 453.277344 L 136.242188 453.277344 C 130.785156 453.277344 126.335938 448.824219 126.335938 443.367188 Z M 136.242188 364.109375 C 136.242188 358.652344 140.695312 354.203125 146.152344 354.203125 C 151.609375 354.203125 156.058594 358.652344 156.058594 364.109375 C 156.058594 369.566406 151.609375 374.019531 146.152344 374.019531 C 140.695312 374.019531 136.242188 369.566406 136.242188 364.109375 Z M 106.523438 393.832031 C 100.136719 385.316406 96.613281 374.753906 96.613281 364.109375 C 96.613281 336.789062 118.828125 314.574219 146.152344 314.574219 C 173.472656 314.574219 195.6875 336.789062 195.6875 364.109375 C 195.6875 374.753906 192.164062 385.316406 185.78125 393.832031 L 170.917969 413.648438 L 156.058594 413.648438 L 156.058594 392.011719 C 167.550781 387.910156 175.871094 376.996094 175.871094 364.109375 C 175.871094 347.703125 162.558594 334.390625 146.152344 334.390625 C 129.742188 334.390625 116.429688 347.703125 116.429688 364.109375 C 116.429688 376.996094 124.75 387.910156 136.242188 392.011719 L 136.242188 413.648438 L 121.382812 413.648438 Z M 156.058594 473.089844 C 172.46875 473.089844 185.78125 459.777344 185.78125 443.367188 L 185.78125 426.84375 L 201.609375 405.714844 C 210.585938 393.792969 215.5 379.011719 215.5 364.109375 C 215.5 325.875 184.386719 294.757812 146.152344 294.757812 C 107.914062 294.757812 76.800781 325.875 76.800781 364.109375 C 76.800781 379.011719 81.714844 393.792969 90.65625 405.714844 L 106.523438 426.84375 L 106.523438 443.367188 C 106.523438 459.777344 119.835938 473.089844 136.242188 473.089844 L 156.058594 473.089844 " fill-opacity="1" fill-rule="nonzero"/></g><g clip-path="url(#171cb8230d)"><path fill="#000000" d="M 621.699219 442.476562 L 621.699219 423.554688 L 601.882812 423.554688 L 601.882812 442.476562 C 577.039062 438.261719 557.457031 418.679688 553.238281 393.832031 L 572.164062 393.832031 L 572.164062 374.019531 L 553.238281 374.019531 C 557.457031 349.171875 577.039062 329.589844 601.882812 325.371094 L 601.882812 344.296875 L 621.699219 344.296875 L 621.699219 325.371094 C 646.542969 329.589844 666.128906 349.171875 670.34375 374.019531 L 651.421875 374.019531 L 651.421875 393.832031 L 670.34375 393.832031 C 666.128906 418.679688 646.542969 438.261719 621.699219 442.476562 Z M 611.792969 304.667969 C 568.097656 304.667969 532.535156 340.234375 532.535156 383.925781 C 532.535156 427.617188 568.097656 463.183594 611.792969 463.183594 C 655.484375 463.183594 691.050781 427.617188 691.050781 383.925781 C 691.050781 340.234375 655.484375 304.667969 611.792969 304.667969 " fill-opacity="1" fill-rule="nonzero"/></g><path fill="#000000" d="M 607.691406 374.019531 L 591.976562 374.019531 L 591.976562 393.832031 L 615.894531 393.832031 L 648.519531 361.207031 L 634.507812 347.199219 L 607.691406 374.019531 " fill-opacity="1" fill-rule="nonzero"/><path fill="#000000" d="M 604.246094 250.371094 L 615.546875 268.984375 L 641.050781 188.796875 L 622.164062 182.761719 L 609.546875 222.46875 C 580.832031 182.335938 542.246094 150.757812 496.929688 130.515625 L 488.878906 148.589844 C 536.945312 170.066406 576.808594 205.285156 604.246094 250.371094 " fill-opacity="1" fill-rule="nonzero"/><path fill="#000000" d="M 130.515625 270.921875 L 148.628906 278.96875 C 170.066406 230.90625 205.285156 191.042969 250.371094 163.605469 L 268.984375 152.304688 L 188.757812 126.800781 L 182.800781 145.6875 L 222.46875 158.300781 C 182.335938 187.019531 150.757812 225.601562 130.515625 270.921875 " fill-opacity="1" fill-rule="nonzero"/><path fill="#000000" d="M 163.605469 517.480469 L 152.304688 498.863281 L 126.800781 579.050781 L 145.6875 585.089844 L 158.300781 545.382812 C 187.019531 585.515625 225.601562 617.09375 270.921875 637.335938 L 278.96875 619.222656 C 230.90625 597.78125 191.042969 562.566406 163.605469 517.480469 " fill-opacity="1" fill-rule="nonzero"/><path fill="#000000" d="M 637.335938 496.929688 L 619.261719 488.878906 C 597.78125 536.945312 562.566406 576.808594 517.480469 604.246094 L 498.863281 615.546875 L 579.089844 641.050781 L 585.050781 622.164062 L 545.382812 609.546875 C 585.515625 580.832031 617.09375 542.246094 637.335938 496.929688 " fill-opacity="1" fill-rule="nonzero"/></svg>