<svg xmlns="http://www.w3.org/2000/svg" xmlns:xlink="http://www.w3.org/1999/xlink" width="1024" zoomAndPan="magnify" viewBox="0 0 768 767.999994" height="1024" preserveAspectRatio="xMidYMid meet" version="1.0"><defs><clipPath id="0ff5c9b08f"><path d="M 106 76.800781 L 675 76.800781 L 675 702.300781 L 106 702.300781 Z M 106 76.800781 " clip-rule="nonzero"/></clipPath></defs><path fill="#231f20" d="M 330.597656 370.621094 L 364.230469 370.621094 L 345.523438 389.324219 C 344.757812 390.097656 344.117188 390.960938 343.609375 391.921875 C 343.097656 392.878906 342.738281 393.890625 342.527344 394.957031 C 342.320312 396.023438 342.269531 397.097656 342.378906 398.179688 C 342.488281 399.261719 342.75 400.300781 343.167969 401.304688 C 343.589844 402.308594 344.144531 403.230469 344.835938 404.066406 C 345.527344 404.90625 346.324219 405.625 347.230469 406.226562 C 348.132812 406.828125 349.105469 407.285156 350.148438 407.597656 C 351.1875 407.910156 352.253906 408.066406 353.339844 408.0625 C 354.796875 408.0625 356.199219 407.78125 357.546875 407.226562 C 358.894531 406.671875 360.085938 405.882812 361.121094 404.859375 L 379.828125 386.121094 L 379.828125 419.753906 C 379.828125 420.472656 379.898438 421.1875 380.039062 421.894531 C 380.179688 422.601562 380.390625 423.289062 380.664062 423.957031 C 380.941406 424.621094 381.28125 425.253906 381.679688 425.855469 C 382.082031 426.453125 382.535156 427.011719 383.046875 427.519531 C 383.558594 428.03125 384.113281 428.484375 384.710938 428.886719 C 385.3125 429.285156 385.945312 429.625 386.613281 429.902344 C 387.277344 430.175781 387.964844 430.386719 388.671875 430.527344 C 389.378906 430.667969 390.09375 430.738281 390.816406 430.738281 C 391.539062 430.738281 392.25 430.667969 392.960938 430.527344 C 393.667969 430.386719 394.355469 430.175781 395.019531 429.902344 C 395.6875 429.625 396.320312 429.285156 396.917969 428.886719 C 397.519531 428.484375 398.074219 428.03125 398.585938 427.519531 C 399.09375 427.011719 399.550781 426.453125 399.949219 425.855469 C 400.351562 425.253906 400.691406 424.621094 400.964844 423.957031 C 401.242188 423.289062 401.449219 422.601562 401.589844 421.894531 C 401.730469 421.1875 401.800781 420.472656 401.800781 419.753906 L 401.800781 386.121094 L 420.605469 404.859375 C 421.117188 405.355469 421.675781 405.796875 422.273438 406.183594 C 422.871094 406.570312 423.503906 406.894531 424.164062 407.160156 C 424.828125 407.421875 425.511719 407.621094 426.210938 407.753906 C 426.910156 407.882812 427.621094 407.945312 428.332031 407.941406 C 429.046875 407.933594 429.75 407.859375 430.449219 407.714844 C 431.148438 407.570312 431.828125 407.363281 432.484375 407.085938 C 433.140625 406.808594 433.765625 406.472656 434.359375 406.074219 C 434.953125 405.679688 435.5 405.226562 436.003906 404.722656 C 436.507812 404.21875 436.960938 403.671875 437.355469 403.078125 C 437.753906 402.488281 438.089844 401.863281 438.367188 401.203125 C 438.644531 400.546875 438.851562 399.867188 438.996094 399.167969 C 439.140625 398.472656 439.214844 397.765625 439.222656 397.050781 C 439.226562 396.339844 439.164062 395.632812 439.035156 394.929688 C 438.902344 394.230469 438.703125 393.546875 438.441406 392.886719 C 438.175781 392.222656 437.851562 391.59375 437.464844 390.992188 C 437.078125 390.394531 436.636719 389.839844 436.140625 389.324219 L 417.402344 370.621094 L 451.035156 370.621094 C 451.757812 370.621094 452.46875 370.550781 453.179688 370.410156 C 453.886719 370.269531 454.574219 370.0625 455.238281 369.785156 C 455.90625 369.507812 456.539062 369.171875 457.136719 368.769531 C 457.738281 368.371094 458.292969 367.914062 458.804688 367.402344 C 459.3125 366.894531 459.769531 366.339844 460.167969 365.738281 C 460.570312 365.140625 460.910156 364.507812 461.183594 363.839844 C 461.460938 363.171875 461.667969 362.488281 461.808594 361.777344 C 461.949219 361.070312 462.019531 360.355469 462.019531 359.636719 C 462.019531 358.914062 461.949219 358.199219 461.808594 357.492188 C 461.667969 356.785156 461.460938 356.097656 461.183594 355.433594 C 460.910156 354.765625 460.570312 354.132812 460.167969 353.53125 C 459.769531 352.933594 459.3125 352.378906 458.804688 351.867188 C 458.292969 351.359375 457.738281 350.902344 457.136719 350.5 C 456.539062 350.101562 455.90625 349.761719 455.238281 349.488281 C 454.574219 349.210938 453.886719 349.003906 453.179688 348.863281 C 452.46875 348.722656 451.757812 348.652344 451.035156 348.652344 L 417.402344 348.652344 L 435.980469 329.816406 C 436.746094 329.050781 437.382812 328.1875 437.894531 327.226562 C 438.402344 326.269531 438.761719 325.257812 438.972656 324.195312 C 439.183594 323.128906 439.234375 322.054688 439.125 320.976562 C 439.019531 319.898438 438.757812 318.855469 438.339844 317.855469 C 437.925781 316.851562 437.371094 315.929688 436.683594 315.09375 C 435.992188 314.253906 435.195312 313.535156 434.292969 312.929688 C 433.390625 312.328125 432.421875 311.871094 431.382812 311.554688 C 430.34375 311.238281 429.28125 311.082031 428.195312 311.082031 C 426.742188 311.078125 425.34375 311.351562 424 311.90625 C 422.65625 312.460938 421.472656 313.253906 420.445312 314.285156 L 401.738281 333.019531 L 401.738281 299.488281 C 401.738281 298.765625 401.667969 298.050781 401.527344 297.34375 C 401.386719 296.636719 401.179688 295.949219 400.902344 295.285156 C 400.625 294.617188 400.289062 293.984375 399.886719 293.386719 C 399.484375 292.785156 399.03125 292.230469 398.519531 291.71875 C 398.011719 291.210938 397.457031 290.753906 396.855469 290.355469 C 396.257812 289.953125 395.621094 289.613281 394.957031 289.339844 C 394.289062 289.0625 393.601562 288.855469 392.894531 288.714844 C 392.1875 288.574219 391.472656 288.503906 390.75 288.503906 C 390.03125 288.503906 389.316406 288.574219 388.609375 288.714844 C 387.902344 288.855469 387.214844 289.0625 386.546875 289.339844 C 385.882812 289.613281 385.246094 289.953125 384.648438 290.355469 C 384.046875 290.753906 383.492188 291.210938 382.984375 291.71875 C 382.472656 292.230469 382.015625 292.785156 381.617188 293.386719 C 381.214844 293.984375 380.878906 294.617188 380.601562 295.285156 C 380.324219 295.949219 380.117188 296.636719 379.976562 297.34375 C 379.835938 298.050781 379.765625 298.765625 379.765625 299.488281 L 379.765625 333.019531 L 361.058594 314.316406 C 360.542969 313.847656 359.984375 313.429688 359.386719 313.066406 C 358.792969 312.703125 358.164062 312.398438 357.511719 312.152344 C 356.855469 311.910156 356.183594 311.730469 355.496094 311.613281 C 354.804688 311.496094 354.113281 311.449219 353.414062 311.464844 C 352.714844 311.480469 352.023438 311.5625 351.339844 311.710938 C 350.65625 311.859375 349.996094 312.070312 349.351562 312.34375 C 348.710938 312.617188 348.097656 312.953125 347.519531 313.34375 C 346.941406 313.734375 346.402344 314.175781 345.910156 314.671875 C 345.414062 315.164062 344.96875 315.699219 344.578125 316.277344 C 344.183594 316.855469 343.851562 317.464844 343.574219 318.109375 C 343.300781 318.75 343.085938 319.414062 342.9375 320.09375 C 342.789062 320.777344 342.703125 321.46875 342.6875 322.167969 C 342.667969 322.867188 342.714844 323.558594 342.832031 324.25 C 342.945312 324.9375 343.125 325.609375 343.367188 326.265625 C 343.609375 326.921875 343.914062 327.546875 344.277344 328.144531 C 344.640625 328.742188 345.054688 329.300781 345.523438 329.816406 L 364.230469 348.523438 L 330.597656 348.523438 C 329.875 348.523438 329.160156 348.59375 328.453125 348.734375 C 327.746094 348.875 327.058594 349.082031 326.394531 349.359375 C 325.726562 349.632812 325.09375 349.972656 324.492188 350.375 C 323.894531 350.773438 323.339844 351.230469 322.828125 351.738281 C 322.316406 352.25 321.863281 352.804688 321.460938 353.40625 C 321.0625 354.003906 320.722656 354.636719 320.445312 355.304688 C 320.171875 355.96875 319.960938 356.65625 319.820312 357.363281 C 319.679688 358.070312 319.609375 358.785156 319.609375 359.507812 C 319.609375 360.230469 319.679688 360.945312 319.820312 361.652344 C 319.960938 362.359375 320.171875 363.046875 320.445312 363.710938 C 320.722656 364.378906 321.0625 365.011719 321.460938 365.609375 C 321.863281 366.210938 322.316406 366.765625 322.828125 367.277344 C 323.339844 367.785156 323.894531 368.242188 324.492188 368.640625 C 325.09375 369.042969 325.726562 369.382812 326.394531 369.65625 C 327.058594 369.933594 327.746094 370.140625 328.453125 370.28125 C 329.160156 370.421875 329.875 370.492188 330.597656 370.492188 Z M 330.597656 370.621094 " fill-opacity="1" fill-rule="nonzero"/><path fill="#231f20" d="M 623.875 413.953125 C 623.753906 413.335938 623.578125 412.730469 623.347656 412.144531 C 623.121094 411.554688 622.84375 410.988281 622.519531 410.445312 C 622.195312 409.90625 621.828125 409.394531 621.414062 408.917969 C 621 408.441406 620.550781 408 620.0625 407.601562 C 619.574219 407.203125 619.054688 406.847656 618.503906 406.535156 C 617.953125 406.226562 617.382812 405.964844 616.789062 405.753906 C 616.191406 405.539062 615.582031 405.382812 614.960938 405.273438 C 614.339844 405.167969 613.710938 405.113281 613.082031 405.117188 C 612.382812 405.117188 611.6875 405.179688 611 405.308594 C 610.292969 405.445312 609.609375 405.652344 608.945312 405.921875 C 608.28125 406.195312 607.652344 406.53125 607.050781 406.925781 C 606.453125 407.320312 605.898438 407.773438 605.390625 408.277344 C 604.878906 408.78125 604.421875 409.332031 604.019531 409.925781 C 603.617188 410.519531 603.277344 411.148438 602.996094 411.808594 C 602.71875 412.46875 602.503906 413.152344 602.359375 413.855469 C 602.210938 414.554688 602.136719 415.265625 602.128906 415.984375 C 602.121094 416.703125 602.1875 417.414062 602.320312 418.117188 C 612.375 469.363281 606.097656 530.214844 569.488281 551.386719 C 545.144531 565.414062 513.914062 572.429688 483.738281 579.25 C 451.132812 586.617188 417.5625 594.175781 390.847656 611.277344 C 364.039062 594.078125 330.46875 586.519531 297.957031 579.25 C 267.6875 572.394531 236.488281 565.382812 212.144531 551.355469 C 176.175781 530.632812 169.511719 470.707031 178.832031 420.488281 C 178.996094 419.765625 179.085938 419.039062 179.101562 418.296875 C 179.113281 417.558594 179.054688 416.828125 178.921875 416.101562 C 178.789062 415.371094 178.585938 414.667969 178.3125 413.980469 C 178.035156 413.292969 177.695312 412.644531 177.289062 412.027344 C 176.882812 411.410156 176.417969 410.839844 175.894531 410.316406 C 175.375 409.792969 174.804688 409.324219 174.1875 408.917969 C 173.574219 408.507812 172.921875 408.164062 172.238281 407.886719 C 171.550781 407.609375 170.84375 407.40625 170.117188 407.269531 C 169.390625 407.136719 168.660156 407.074219 167.921875 407.089844 C 167.179688 407.101562 166.449219 407.1875 165.730469 407.347656 C 165.007812 407.507812 164.308594 407.738281 163.632812 408.042969 C 162.960938 408.34375 162.320312 408.707031 161.71875 409.140625 C 161.121094 409.570312 160.566406 410.054688 160.066406 410.597656 C 159.5625 411.136719 159.117188 411.722656 158.734375 412.355469 C 158.347656 412.988281 158.03125 413.648438 157.78125 414.34375 C 157.53125 415.039062 157.351562 415.753906 157.242188 416.484375 C 144.109375 486.945312 161.375 547.445312 201.160156 570.21875 C 228.386719 585.910156 261.25 593.308594 293.054688 600.484375 C 326.144531 607.945312 360.320312 615.664062 384.378906 633.3125 C 386.277344 634.734375 388.410156 635.449219 390.785156 635.457031 C 393.148438 635.445312 395.285156 634.742188 397.191406 633.34375 C 421.277344 615.664062 455.457031 607.945312 488.480469 600.484375 C 520.320312 593.308594 553.183594 585.910156 580.410156 570.21875 C 629.609375 542.128906 634.574219 468.464844 623.875 413.953125 Z M 623.875 413.953125 " fill-opacity="1" fill-rule="nonzero"/><path fill="#231f20" d="M 170.984375 370.621094 L 204.617188 370.621094 L 185.910156 389.324219 C 185.148438 390.09375 184.511719 390.957031 184 391.914062 C 183.492188 392.871094 183.132812 393.878906 182.921875 394.941406 C 182.710938 396.007812 182.65625 397.078125 182.765625 398.15625 C 182.871094 399.234375 183.132812 400.273438 183.546875 401.277344 C 183.960938 402.277344 184.511719 403.199219 185.195312 404.035156 C 185.882812 404.875 186.675781 405.597656 187.578125 406.199219 C 188.476562 406.804688 189.445312 407.265625 190.484375 407.582031 C 191.519531 407.898438 192.578125 408.058594 193.664062 408.0625 C 195.121094 408.0625 196.523438 407.78125 197.871094 407.226562 C 199.21875 406.671875 200.410156 405.882812 201.445312 404.859375 L 220.152344 386.121094 L 220.152344 419.753906 C 220.113281 420.496094 220.148438 421.238281 220.257812 421.976562 C 220.371094 422.714844 220.554688 423.433594 220.8125 424.132812 C 221.070312 424.835938 221.394531 425.503906 221.789062 426.136719 C 222.179688 426.769531 222.636719 427.359375 223.148438 427.898438 C 223.660156 428.441406 224.222656 428.925781 224.835938 429.355469 C 225.449219 429.78125 226.097656 430.140625 226.78125 430.4375 C 227.46875 430.730469 228.175781 430.953125 228.90625 431.105469 C 229.640625 431.253906 230.378906 431.332031 231.125 431.332031 C 231.871094 431.332031 232.609375 431.253906 233.339844 431.105469 C 234.070312 430.953125 234.78125 430.730469 235.464844 430.4375 C 236.152344 430.140625 236.800781 429.78125 237.410156 429.355469 C 238.023438 428.925781 238.585938 428.441406 239.101562 427.898438 C 239.613281 427.359375 240.066406 426.769531 240.460938 426.136719 C 240.851562 425.503906 241.179688 424.835938 241.4375 424.132812 C 241.695312 423.433594 241.878906 422.714844 241.988281 421.976562 C 242.101562 421.238281 242.136719 420.496094 242.09375 419.753906 L 242.09375 386.121094 L 260.832031 404.859375 C 261.34375 405.371094 261.898438 405.828125 262.5 406.234375 C 263.097656 406.636719 263.734375 406.976562 264.398438 407.253906 C 265.066406 407.535156 265.757812 407.746094 266.464844 407.886719 C 267.175781 408.03125 267.890625 408.101562 268.613281 408.105469 C 269.335938 408.105469 270.054688 408.039062 270.761719 407.898438 C 271.472656 407.761719 272.160156 407.554688 272.832031 407.277344 C 273.5 407.003906 274.136719 406.667969 274.738281 406.265625 C 275.339844 405.867188 275.898438 405.410156 276.410156 404.902344 C 276.925781 404.390625 277.382812 403.835938 277.785156 403.238281 C 278.191406 402.636719 278.53125 402.003906 278.808594 401.335938 C 279.089844 400.667969 279.300781 399.980469 279.445312 399.273438 C 279.585938 398.5625 279.660156 397.847656 279.664062 397.125 C 279.664062 396.402344 279.597656 395.683594 279.457031 394.976562 C 279.320312 394.265625 279.113281 393.578125 278.839844 392.90625 C 278.5625 392.238281 278.226562 391.601562 277.828125 391 C 277.429688 390.398438 276.972656 389.839844 276.464844 389.324219 L 257.757812 370.621094 L 291.390625 370.621094 C 292.113281 370.621094 292.828125 370.550781 293.535156 370.410156 C 294.242188 370.269531 294.929688 370.0625 295.59375 369.785156 C 296.261719 369.507812 296.894531 369.171875 297.496094 368.769531 C 298.09375 368.371094 298.648438 367.914062 299.160156 367.402344 C 299.667969 366.894531 300.125 366.339844 300.527344 365.738281 C 300.925781 365.140625 301.265625 364.507812 301.542969 363.839844 C 301.816406 363.171875 302.027344 362.488281 302.167969 361.777344 C 302.308594 361.070312 302.378906 360.355469 302.378906 359.636719 C 302.378906 358.914062 302.308594 358.199219 302.167969 357.492188 C 302.027344 356.785156 301.816406 356.097656 301.542969 355.433594 C 301.265625 354.765625 300.925781 354.132812 300.527344 353.53125 C 300.125 352.933594 299.667969 352.378906 299.160156 351.867188 C 298.648438 351.359375 298.09375 350.902344 297.496094 350.503906 C 296.894531 350.101562 296.261719 349.761719 295.59375 349.488281 C 294.929688 349.210938 294.242188 349.003906 293.535156 348.863281 C 292.828125 348.722656 292.113281 348.652344 291.390625 348.652344 L 257.628906 348.652344 L 276.464844 329.816406 C 276.933594 329.300781 277.351562 328.746094 277.714844 328.148438 C 278.078125 327.550781 278.382812 326.925781 278.628906 326.269531 C 278.871094 325.617188 279.050781 324.945312 279.167969 324.253906 C 279.285156 323.566406 279.335938 322.871094 279.316406 322.171875 C 279.300781 321.472656 279.21875 320.785156 279.070312 320.101562 C 278.921875 319.417969 278.710938 318.753906 278.4375 318.113281 C 278.164062 317.46875 277.828125 316.859375 277.4375 316.28125 C 277.046875 315.699219 276.605469 315.164062 276.109375 314.667969 C 275.617188 314.175781 275.082031 313.730469 274.503906 313.339844 C 273.925781 312.945312 273.3125 312.613281 272.671875 312.335938 C 272.03125 312.0625 271.367188 311.847656 270.683594 311.699219 C 270.003906 311.546875 269.3125 311.464844 268.613281 311.449219 C 267.914062 311.429688 267.21875 311.476562 266.53125 311.59375 C 265.839844 311.707031 265.167969 311.886719 264.515625 312.128906 C 263.859375 312.371094 263.230469 312.675781 262.632812 313.039062 C 262.039062 313.398438 261.480469 313.816406 260.960938 314.285156 L 242.09375 333.019531 L 242.09375 299.488281 C 242.136719 298.742188 242.101562 298 241.988281 297.261719 C 241.878906 296.523438 241.695312 295.804688 241.4375 295.105469 C 241.179688 294.40625 240.851562 293.738281 240.460938 293.105469 C 240.066406 292.46875 239.613281 291.882812 239.101562 291.339844 C 238.585938 290.796875 238.023438 290.3125 237.410156 289.886719 C 236.800781 289.460938 236.152344 289.097656 235.464844 288.804688 C 234.78125 288.507812 234.070312 288.285156 233.339844 288.136719 C 232.609375 287.984375 231.871094 287.910156 231.125 287.910156 C 230.378906 287.910156 229.640625 287.984375 228.90625 288.136719 C 228.175781 288.285156 227.46875 288.507812 226.78125 288.804688 C 226.097656 289.097656 225.449219 289.460938 224.835938 289.886719 C 224.222656 290.3125 223.660156 290.796875 223.148438 291.339844 C 222.636719 291.882812 222.179688 292.46875 221.789062 293.105469 C 221.394531 293.738281 221.070312 294.40625 220.8125 295.105469 C 220.554688 295.804688 220.371094 296.523438 220.257812 297.261719 C 220.148438 298 220.113281 298.742188 220.152344 299.488281 L 220.152344 333.019531 L 201.445312 314.316406 C 200.929688 313.847656 200.371094 313.429688 199.777344 313.066406 C 199.179688 312.703125 198.554688 312.398438 197.898438 312.152344 C 197.242188 311.910156 196.570312 311.730469 195.882812 311.613281 C 195.195312 311.496094 194.5 311.449219 193.800781 311.464844 C 193.101562 311.480469 192.410156 311.5625 191.730469 311.710938 C 191.046875 311.859375 190.382812 312.070312 189.738281 312.34375 C 189.097656 312.617188 188.488281 312.953125 187.90625 313.34375 C 187.328125 313.734375 186.792969 314.175781 186.296875 314.671875 C 185.800781 315.164062 185.359375 315.699219 184.964844 316.277344 C 184.574219 316.855469 184.238281 317.464844 183.964844 318.109375 C 183.6875 318.75 183.472656 319.414062 183.324219 320.09375 C 183.175781 320.777344 183.09375 321.46875 183.074219 322.167969 C 183.054688 322.867188 183.105469 323.558594 183.21875 324.25 C 183.335938 324.9375 183.511719 325.609375 183.757812 326.265625 C 184 326.921875 184.300781 327.546875 184.664062 328.144531 C 185.027344 328.742188 185.441406 329.300781 185.910156 329.816406 L 204.617188 348.523438 L 170.984375 348.523438 C 170.265625 348.523438 169.550781 348.59375 168.84375 348.734375 C 168.132812 348.875 167.449219 349.082031 166.78125 349.359375 C 166.113281 349.632812 165.480469 349.972656 164.882812 350.375 C 164.28125 350.773438 163.726562 351.230469 163.214844 351.738281 C 162.707031 352.25 162.25 352.804688 161.851562 353.40625 C 161.449219 354.003906 161.109375 354.636719 160.835938 355.304688 C 160.558594 355.96875 160.351562 356.65625 160.210938 357.363281 C 160.070312 358.070312 160 358.785156 160 359.507812 C 160 360.230469 160.070312 360.945312 160.210938 361.652344 C 160.351562 362.359375 160.558594 363.046875 160.835938 363.710938 C 161.109375 364.378906 161.449219 365.011719 161.851562 365.609375 C 162.25 366.210938 162.707031 366.765625 163.214844 367.277344 C 163.726562 367.785156 164.28125 368.242188 164.882812 368.640625 C 165.480469 369.042969 166.113281 369.382812 166.78125 369.65625 C 167.449219 369.933594 168.132812 370.140625 168.84375 370.28125 C 169.550781 370.421875 170.265625 370.492188 170.984375 370.492188 Z M 170.984375 370.621094 " fill-opacity="1" fill-rule="nonzero"/><path fill="#231f20" d="M 595.59375 329.816406 C 596.359375 329.050781 596.996094 328.1875 597.503906 327.226562 C 598.015625 326.269531 598.375 325.257812 598.585938 324.195312 C 598.796875 323.128906 598.847656 322.054688 598.738281 320.976562 C 598.628906 319.898438 598.367188 318.855469 597.953125 317.855469 C 597.535156 316.851562 596.984375 315.929688 596.292969 315.09375 C 595.605469 314.253906 594.808594 313.535156 593.90625 312.929688 C 593.003906 312.328125 592.03125 311.871094 590.996094 311.554688 C 589.957031 311.238281 588.894531 311.082031 587.808594 311.082031 C 586.355469 311.078125 584.957031 311.351562 583.613281 311.90625 C 582.269531 312.460938 581.082031 313.253906 580.058594 314.285156 L 561.351562 333.019531 L 561.351562 299.488281 C 561.351562 298.765625 561.28125 298.050781 561.140625 297.34375 C 561 296.636719 560.789062 295.949219 560.515625 295.285156 C 560.238281 294.617188 559.898438 293.984375 559.5 293.386719 C 559.097656 292.785156 558.644531 292.230469 558.132812 291.71875 C 557.621094 291.210938 557.066406 290.753906 556.46875 290.355469 C 555.867188 289.953125 555.234375 289.613281 554.566406 289.339844 C 553.902344 289.0625 553.214844 288.855469 552.507812 288.714844 C 551.800781 288.574219 551.085938 288.503906 550.363281 288.503906 C 549.640625 288.503906 548.929688 288.574219 548.21875 288.714844 C 547.511719 288.855469 546.824219 289.0625 546.160156 289.339844 C 545.492188 289.613281 544.859375 289.953125 544.257812 290.355469 C 543.660156 290.753906 543.105469 291.210938 542.59375 291.71875 C 542.085938 292.230469 541.628906 292.785156 541.230469 293.386719 C 540.828125 293.984375 540.488281 294.617188 540.214844 295.285156 C 539.9375 295.949219 539.730469 296.636719 539.589844 297.34375 C 539.449219 298.050781 539.378906 298.765625 539.378906 299.488281 L 539.378906 333.019531 L 520.671875 314.316406 C 520.152344 313.847656 519.597656 313.429688 519 313.066406 C 518.402344 312.703125 517.777344 312.398438 517.121094 312.152344 C 516.46875 311.910156 515.796875 311.730469 515.105469 311.613281 C 514.417969 311.496094 513.722656 311.445312 513.023438 311.464844 C 512.324219 311.480469 511.636719 311.5625 510.953125 311.710938 C 510.269531 311.859375 509.605469 312.070312 508.964844 312.34375 C 508.320312 312.617188 507.710938 312.953125 507.128906 313.34375 C 506.550781 313.734375 506.015625 314.175781 505.519531 314.671875 C 505.023438 315.164062 504.582031 315.699219 504.1875 316.277344 C 503.796875 316.855469 503.460938 317.464844 503.1875 318.109375 C 502.910156 318.75 502.699219 319.414062 502.546875 320.09375 C 502.398438 320.777344 502.316406 321.46875 502.296875 322.167969 C 502.28125 322.867188 502.328125 323.558594 502.441406 324.25 C 502.558594 324.9375 502.738281 325.609375 502.980469 326.265625 C 503.222656 326.921875 503.527344 327.546875 503.886719 328.144531 C 504.25 328.742188 504.667969 329.300781 505.136719 329.816406 L 523.84375 348.523438 L 490.210938 348.523438 C 489.488281 348.523438 488.773438 348.59375 488.066406 348.734375 C 487.359375 348.875 486.671875 349.082031 486.003906 349.359375 C 485.339844 349.632812 484.703125 349.972656 484.105469 350.375 C 483.503906 350.773438 482.949219 351.230469 482.441406 351.738281 C 481.929688 352.25 481.472656 352.804688 481.074219 353.40625 C 480.671875 354.003906 480.335938 354.636719 480.058594 355.304688 C 479.78125 355.96875 479.574219 356.65625 479.433594 357.363281 C 479.292969 358.070312 479.222656 358.785156 479.222656 359.507812 C 479.222656 360.230469 479.292969 360.945312 479.433594 361.652344 C 479.574219 362.359375 479.78125 363.046875 480.058594 363.710938 C 480.335938 364.378906 480.671875 365.011719 481.074219 365.609375 C 481.472656 366.210938 481.929688 366.765625 482.441406 367.277344 C 482.949219 367.785156 483.503906 368.242188 484.105469 368.640625 C 484.703125 369.042969 485.339844 369.382812 486.003906 369.65625 C 486.671875 369.933594 487.359375 370.140625 488.066406 370.28125 C 488.773438 370.421875 489.488281 370.492188 490.210938 370.492188 L 523.84375 370.492188 L 505.136719 389.199219 C 504.625 389.707031 504.171875 390.261719 503.769531 390.863281 C 503.367188 391.460938 503.03125 392.09375 502.753906 392.761719 C 502.480469 393.425781 502.269531 394.113281 502.128906 394.820312 C 501.988281 395.527344 501.917969 396.242188 501.917969 396.964844 C 501.917969 397.683594 501.988281 398.398438 502.128906 399.105469 C 502.269531 399.8125 502.480469 400.5 502.753906 401.167969 C 503.03125 401.832031 503.367188 402.464844 503.769531 403.066406 C 504.171875 403.667969 504.625 404.222656 505.136719 404.730469 C 505.648438 405.238281 506.203125 405.691406 506.800781 406.089844 C 507.402344 406.492188 508.035156 406.828125 508.703125 407.101562 C 509.367188 407.375 510.054688 407.585938 510.761719 407.722656 C 511.46875 407.863281 512.183594 407.933594 512.902344 407.933594 C 513.625 407.933594 514.335938 407.863281 515.042969 407.722656 C 515.75 407.585938 516.4375 407.375 517.105469 407.101562 C 517.769531 406.828125 518.402344 406.492188 519.003906 406.089844 C 519.605469 405.691406 520.160156 405.238281 520.671875 404.730469 L 539.378906 385.996094 L 539.378906 419.625 C 539.378906 420.34375 539.449219 421.058594 539.589844 421.765625 C 539.730469 422.472656 539.9375 423.160156 540.214844 423.828125 C 540.488281 424.496094 540.828125 425.128906 541.230469 425.726562 C 541.628906 426.328125 542.085938 426.882812 542.59375 427.390625 C 543.105469 427.902344 543.660156 428.355469 544.261719 428.757812 C 544.859375 429.160156 545.492188 429.496094 546.160156 429.773438 C 546.824219 430.050781 547.511719 430.257812 548.21875 430.398438 C 548.929688 430.539062 549.640625 430.609375 550.363281 430.609375 C 551.085938 430.609375 551.800781 430.539062 552.507812 430.398438 C 553.214844 430.257812 553.902344 430.050781 554.566406 429.773438 C 555.234375 429.496094 555.867188 429.160156 556.46875 428.757812 C 557.066406 428.355469 557.621094 427.902344 558.132812 427.390625 C 558.644531 426.882812 559.097656 426.328125 559.5 425.726562 C 559.898438 425.128906 560.238281 424.496094 560.515625 423.828125 C 560.789062 423.160156 561 422.472656 561.140625 421.765625 C 561.28125 421.058594 561.351562 420.34375 561.351562 419.625 L 561.351562 386.121094 L 580.058594 404.859375 C 580.570312 405.355469 581.125 405.796875 581.726562 406.183594 C 582.324219 406.570312 582.953125 406.894531 583.617188 407.160156 C 584.28125 407.421875 584.960938 407.621094 585.664062 407.753906 C 586.363281 407.882812 587.070312 407.945312 587.785156 407.941406 C 588.496094 407.933594 589.203125 407.859375 589.902344 407.714844 C 590.601562 407.570312 591.277344 407.363281 591.9375 407.085938 C 592.59375 406.8125 593.21875 406.472656 593.8125 406.078125 C 594.402344 405.679688 594.953125 405.226562 595.457031 404.722656 C 595.960938 404.21875 596.410156 403.671875 596.808594 403.078125 C 597.207031 402.488281 597.542969 401.863281 597.820312 401.203125 C 598.09375 400.546875 598.304688 399.867188 598.449219 399.171875 C 598.59375 398.472656 598.667969 397.765625 598.675781 397.050781 C 598.679688 396.339844 598.617188 395.632812 598.484375 394.929688 C 598.355469 394.230469 598.15625 393.546875 597.894531 392.886719 C 597.628906 392.222656 597.300781 391.59375 596.914062 390.992188 C 596.527344 390.394531 596.085938 389.839844 595.59375 389.324219 L 576.855469 370.621094 L 610.488281 370.621094 C 611.207031 370.621094 611.921875 370.550781 612.628906 370.410156 C 613.335938 370.269531 614.023438 370.0625 614.691406 369.785156 C 615.355469 369.507812 615.992188 369.171875 616.589844 368.769531 C 617.191406 368.371094 617.746094 367.914062 618.253906 367.402344 C 618.765625 366.894531 619.21875 366.339844 619.621094 365.738281 C 620.023438 365.140625 620.359375 364.507812 620.636719 363.839844 C 620.914062 363.171875 621.121094 362.488281 621.261719 361.777344 C 621.402344 361.070312 621.472656 360.355469 621.472656 359.636719 C 621.472656 358.914062 621.402344 358.199219 621.261719 357.492188 C 621.121094 356.785156 620.914062 356.097656 620.636719 355.433594 C 620.359375 354.765625 620.023438 354.132812 619.621094 353.53125 C 619.21875 352.933594 618.765625 352.378906 618.253906 351.867188 C 617.746094 351.359375 617.191406 350.902344 616.589844 350.503906 C 615.992188 350.101562 615.355469 349.761719 614.691406 349.488281 C 614.023438 349.210938 613.335938 349.003906 612.628906 348.863281 C 611.921875 348.722656 611.207031 348.652344 610.488281 348.652344 L 576.855469 348.652344 Z M 595.59375 329.816406 " fill-opacity="1" fill-rule="nonzero"/><path fill="#231f20" d="M 271.019531 484.574219 C 271.015625 485.296875 271.085938 486.011719 271.222656 486.71875 C 271.363281 487.425781 271.570312 488.109375 271.84375 488.777344 C 272.117188 489.445312 272.453125 490.078125 272.855469 490.675781 C 273.253906 491.277344 273.707031 491.832031 274.214844 492.34375 C 274.726562 492.851562 275.277344 493.308594 275.878906 493.707031 C 276.476562 494.109375 277.109375 494.449219 277.773438 494.722656 C 278.441406 495 279.125 495.210938 279.832031 495.351562 C 280.539062 495.492188 281.253906 495.5625 281.972656 495.5625 L 499.5 495.5625 C 500.242188 495.601562 500.984375 495.566406 501.722656 495.457031 C 502.460938 495.34375 503.179688 495.160156 503.882812 494.902344 C 504.582031 494.644531 505.25 494.320312 505.882812 493.925781 C 506.515625 493.535156 507.105469 493.078125 507.648438 492.566406 C 508.1875 492.054688 508.671875 491.492188 509.101562 490.878906 C 509.527344 490.265625 509.890625 489.617188 510.183594 488.933594 C 510.480469 488.246094 510.703125 487.539062 510.851562 486.808594 C 511.003906 486.078125 511.078125 485.339844 511.078125 484.59375 C 511.078125 483.84375 511.003906 483.105469 510.851562 482.375 C 510.703125 481.644531 510.480469 480.9375 510.183594 480.25 C 509.890625 479.566406 509.527344 478.917969 509.101562 478.304688 C 508.671875 477.691406 508.1875 477.128906 507.648438 476.617188 C 507.105469 476.105469 506.515625 475.652344 505.882812 475.257812 C 505.25 474.863281 504.582031 474.539062 503.882812 474.28125 C 503.179688 474.023438 502.460938 473.839844 501.722656 473.726562 C 500.984375 473.617188 500.242188 473.582031 499.5 473.621094 L 281.972656 473.621094 C 281.253906 473.621094 280.542969 473.691406 279.835938 473.832031 C 279.132812 473.972656 278.445312 474.179688 277.78125 474.457031 C 277.117188 474.730469 276.484375 475.070312 275.886719 475.46875 C 275.289062 475.867188 274.734375 476.320312 274.226562 476.832031 C 273.71875 477.339844 273.265625 477.890625 272.863281 478.492188 C 272.464844 479.089844 272.128906 479.71875 271.851562 480.382812 C 271.578125 481.046875 271.371094 481.734375 271.230469 482.4375 C 271.089844 483.144531 271.019531 483.855469 271.019531 484.574219 Z M 271.019531 484.574219 " fill-opacity="1" fill-rule="nonzero"/><g clip-path="url(#0ff5c9b08f)"><path fill="#231f20" d="M 647.707031 341.894531 C 612.984375 266.46875 661.929688 194.054688 662.441406 193.347656 C 662.714844 192.957031 662.960938 192.546875 663.183594 192.121094 C 663.402344 191.695312 663.59375 191.257812 663.757812 190.804688 C 663.921875 190.355469 664.054688 189.894531 664.15625 189.429688 C 664.261719 188.960938 664.332031 188.488281 664.375 188.011719 C 664.417969 187.53125 664.425781 187.054688 664.40625 186.578125 C 664.386719 186.097656 664.332031 185.621094 664.25 185.148438 C 664.167969 184.679688 664.054688 184.214844 663.910156 183.757812 C 663.769531 183.300781 663.59375 182.851562 663.394531 182.417969 C 663.191406 181.984375 662.960938 181.5625 662.707031 181.160156 C 662.449219 180.753906 662.167969 180.367188 661.863281 180 C 661.554688 179.632812 661.226562 179.285156 660.875 178.960938 C 660.519531 178.636719 660.148438 178.335938 659.757812 178.058594 C 659.367188 177.78125 658.957031 177.53125 658.535156 177.308594 C 658.109375 177.085938 657.675781 176.890625 657.226562 176.722656 C 656.777344 176.554688 656.316406 176.417969 655.851562 176.3125 C 655.382812 176.207031 654.910156 176.128906 654.433594 176.085938 C 593.925781 170.480469 586.429688 106.296875 586.144531 103.574219 C 586.074219 102.90625 585.949219 102.246094 585.757812 101.601562 C 585.570312 100.953125 585.324219 100.328125 585.019531 99.730469 C 584.714844 99.128906 584.355469 98.558594 583.949219 98.027344 C 583.539062 97.492188 583.082031 96.996094 582.582031 96.546875 C 582.082031 96.097656 581.542969 95.695312 580.96875 95.34375 C 580.394531 94.992188 579.792969 94.699219 579.164062 94.457031 C 578.535156 94.21875 577.886719 94.039062 577.222656 93.917969 C 576.5625 93.796875 575.894531 93.738281 575.21875 93.742188 C 573.65625 93.730469 572.164062 94.039062 570.734375 94.671875 C 559.476562 99.808594 547.804688 103.695312 535.714844 106.335938 C 523.625 108.976562 511.390625 110.308594 499.019531 110.332031 C 490.011719 110.285156 481.054688 109.582031 472.152344 108.21875 C 463.25 106.855469 454.496094 104.847656 445.886719 102.199219 C 437.277344 99.546875 428.910156 96.28125 420.785156 92.402344 C 412.65625 88.523438 404.855469 84.070312 397.382812 79.042969 C 396.433594 78.3125 395.390625 77.753906 394.253906 77.371094 C 393.117188 76.988281 391.949219 76.796875 390.75 76.800781 C 389.546875 76.796875 388.375 76.988281 387.238281 77.375 C 386.097656 77.757812 385.046875 78.3125 384.089844 79.042969 C 376.695312 84.121094 368.964844 88.621094 360.898438 92.542969 C 352.832031 96.464844 344.515625 99.765625 335.957031 102.441406 C 327.394531 105.117188 318.679688 107.140625 309.816406 108.511719 C 300.949219 109.882812 292.03125 110.585938 283.0625 110.621094 C 270.582031 110.558594 258.246094 109.179688 246.058594 106.480469 C 233.871094 103.78125 222.109375 99.824219 210.769531 94.605469 C 209.332031 93.96875 207.824219 93.648438 206.25 93.644531 C 204.285156 93.65625 202.449219 94.148438 200.742188 95.121094 C 199.992188 95.558594 199.300781 96.078125 198.675781 96.683594 C 198.046875 97.285156 197.496094 97.953125 197.027344 98.683594 C 196.554688 99.414062 196.179688 100.191406 195.890625 101.011719 C 195.605469 101.835938 195.417969 102.675781 195.328125 103.542969 C 195.039062 106.363281 187.578125 170.542969 127.070312 176.085938 C 126.59375 176.128906 126.121094 176.199219 125.65625 176.304688 C 125.1875 176.410156 124.730469 176.542969 124.277344 176.707031 C 123.828125 176.871094 123.390625 177.0625 122.96875 177.285156 C 122.542969 177.503906 122.136719 177.753906 121.742188 178.027344 C 121.351562 178.304688 120.980469 178.601562 120.625 178.925781 C 120.273438 179.25 119.945312 179.59375 119.636719 179.960938 C 119.328125 180.328125 119.046875 180.714844 118.789062 181.117188 C 118.53125 181.519531 118.304688 181.941406 118.101562 182.375 C 117.898438 182.808594 117.726562 183.253906 117.582031 183.710938 C 117.4375 184.164062 117.324219 184.628906 117.242188 185.101562 C 117.160156 185.574219 117.109375 186.046875 117.089844 186.527344 C 117.066406 187.003906 117.078125 187.480469 117.121094 187.957031 C 117.164062 188.433594 117.234375 188.90625 117.339844 189.375 C 117.441406 189.839844 117.578125 190.300781 117.742188 190.75 C 117.90625 191.199219 118.097656 191.636719 118.320312 192.058594 C 118.539062 192.484375 118.789062 192.890625 119.0625 193.285156 C 119.542969 193.988281 168.488281 266.402344 133.765625 341.828125 C 91.097656 434.707031 94.65625 563.234375 174.859375 609.453125 C 207.949219 628.507812 246.609375 637.21875 280.757812 644.9375 C 327.714844 655.570312 368.074219 664.699219 380.566406 695.574219 C 380.976562 696.589844 381.527344 697.519531 382.214844 698.371094 C 382.902344 699.222656 383.703125 699.953125 384.609375 700.566406 C 385.515625 701.175781 386.492188 701.644531 387.539062 701.960938 C 388.585938 702.28125 389.65625 702.441406 390.75 702.441406 C 391.847656 702.441406 392.917969 702.28125 393.964844 701.960938 C 395.011719 701.644531 395.988281 701.175781 396.894531 700.566406 C 397.800781 699.953125 398.601562 699.222656 399.289062 698.371094 C 399.976562 697.519531 400.527344 696.589844 400.9375 695.574219 C 413.398438 664.699219 453.886719 655.570312 500.746094 645.003906 C 534.859375 637.285156 573.554688 628.570312 606.609375 609.515625 C 644.726562 587.542969 668.496094 544.5625 673.492188 488.417969 C 674.429688 475.910156 674.589844 463.394531 673.964844 450.863281 C 673.34375 438.335938 671.945312 425.894531 669.773438 413.542969 C 667.597656 401.1875 664.664062 389.019531 660.972656 377.03125 C 657.28125 365.042969 652.859375 353.328125 647.707031 341.894531 Z M 595.65625 590.492188 C 565.449219 607.882812 530.089844 615.855469 495.910156 623.574219 C 453.246094 633.183594 412.628906 642.375 390.75 669.824219 C 368.9375 642.375 328.257812 633.183594 285.59375 623.574219 C 251.382812 615.855469 216.019531 607.882812 185.816406 590.492188 C 112.433594 548.183594 120.023438 424.269531 153.785156 351.085938 C 184.308594 284.660156 159.871094 222.398438 145.550781 195.300781 C 187.960938 183.964844 207.789062 147.261719 214.644531 120.070312 C 225.546875 124.1875 236.730469 127.296875 248.195312 129.402344 C 259.65625 131.503906 271.214844 132.570312 282.871094 132.59375 C 292.371094 132.527344 301.824219 131.800781 311.226562 130.425781 C 320.628906 129.046875 329.890625 127.023438 339.011719 124.359375 C 348.128906 121.695312 357.023438 118.414062 365.6875 114.515625 C 374.355469 110.613281 382.707031 106.136719 390.75 101.078125 C 398.789062 106.132812 407.132812 110.609375 415.792969 114.507812 C 424.449219 118.402344 433.335938 121.683594 442.445312 124.347656 C 451.558594 127.015625 460.8125 129.035156 470.207031 130.417969 C 479.597656 131.796875 489.042969 132.523438 498.539062 132.59375 C 510.207031 132.570312 521.78125 131.511719 533.261719 129.40625 C 544.742188 127.300781 555.941406 124.191406 566.859375 120.070312 C 573.683594 147.292969 593.542969 184.125 635.953125 195.140625 C 621.601562 222.398438 597.160156 284.820312 627.75 351.085938 C 661.449219 424.269531 669.039062 548.183594 595.65625 590.492188 Z M 595.65625 590.492188 " fill-opacity="1" fill-rule="nonzero"/></g><path fill="#231f20" d="M 189.722656 270.246094 C 189.792969 270.910156 189.917969 271.5625 190.109375 272.203125 C 190.296875 272.84375 190.539062 273.464844 190.839844 274.058594 C 191.140625 274.65625 191.492188 275.21875 191.898438 275.75 C 192.300781 276.285156 192.75 276.773438 193.242188 277.222656 C 193.738281 277.671875 194.265625 278.074219 194.835938 278.425781 C 195.402344 278.78125 195.996094 279.078125 196.617188 279.324219 C 197.238281 279.566406 197.878906 279.75 198.535156 279.878906 C 199.1875 280.007812 199.851562 280.074219 200.519531 280.078125 L 201.765625 280.078125 C 202.476562 279.992188 203.171875 279.839844 203.851562 279.617188 C 204.53125 279.398438 205.183594 279.113281 205.808594 278.765625 C 206.433594 278.414062 207.019531 278.007812 207.5625 277.546875 C 208.109375 277.082031 208.605469 276.574219 209.050781 276.011719 C 209.496094 275.453125 209.882812 274.855469 210.210938 274.222656 C 210.539062 273.585938 210.804688 272.925781 211.003906 272.238281 C 211.203125 271.550781 211.332031 270.851562 211.394531 270.140625 C 211.460938 269.425781 211.453125 268.714844 211.375 268.003906 C 209.644531 251.882812 206.164062 236.144531 200.933594 220.796875 C 205.34375 217.796875 209.546875 214.53125 213.550781 211.011719 C 217.554688 207.488281 221.324219 203.730469 224.863281 199.742188 C 228.402344 195.75 231.675781 191.554688 234.695312 187.160156 C 237.710938 182.761719 240.445312 178.195312 242.894531 173.460938 C 257.472656 176.492188 272.207031 178.007812 287.097656 178.007812 C 296.074219 177.945312 305.015625 177.371094 313.925781 176.277344 C 322.832031 175.1875 331.648438 173.589844 340.375 171.480469 C 349.097656 169.371094 357.671875 166.769531 366.097656 163.671875 C 374.519531 160.578125 382.738281 157.003906 390.75 152.960938 C 398.753906 157.003906 406.960938 160.570312 415.375 163.667969 C 423.789062 166.761719 432.351562 169.363281 441.066406 171.472656 C 449.777344 173.582031 458.585938 175.179688 467.484375 176.273438 C 476.382812 177.367188 485.3125 177.945312 494.277344 178.007812 C 509.167969 178.011719 523.902344 176.496094 538.480469 173.460938 C 540.914062 178.179688 543.625 182.730469 546.621094 187.117188 C 549.613281 191.503906 552.867188 195.6875 556.375 199.671875 C 559.886719 203.65625 563.625 207.410156 567.597656 210.933594 C 571.570312 214.457031 575.746094 217.722656 580.121094 220.730469 C 574.320312 237.746094 570.679688 255.214844 569.199219 273.128906 C 569.140625 273.859375 569.152344 274.589844 569.242188 275.316406 C 569.328125 276.042969 569.484375 276.757812 569.714844 277.453125 C 569.945312 278.148438 570.242188 278.816406 570.605469 279.453125 C 570.96875 280.089844 571.390625 280.683594 571.871094 281.234375 C 572.355469 281.789062 572.886719 282.285156 573.46875 282.730469 C 574.050781 283.179688 574.671875 283.5625 575.328125 283.882812 C 575.988281 284.203125 576.671875 284.457031 577.382812 284.640625 C 578.089844 284.828125 578.8125 284.9375 579.542969 284.980469 L 580.410156 284.980469 C 581.09375 284.976562 581.773438 284.914062 582.445312 284.785156 C 583.117188 284.65625 583.773438 284.46875 584.410156 284.21875 C 585.046875 283.96875 585.65625 283.660156 586.234375 283.296875 C 586.816406 282.933594 587.355469 282.519531 587.859375 282.054688 C 588.363281 281.589844 588.816406 281.082031 589.226562 280.535156 C 589.632812 279.984375 589.988281 279.402344 590.289062 278.785156 C 590.585938 278.171875 590.828125 277.53125 591.007812 276.871094 C 591.191406 276.210938 591.308594 275.542969 591.363281 274.859375 C 592.957031 255.960938 597.160156 237.660156 603.984375 219.964844 C 604.21875 219.351562 604.398438 218.726562 604.523438 218.082031 C 604.644531 217.4375 604.710938 216.789062 604.71875 216.132812 C 604.722656 215.476562 604.671875 214.828125 604.5625 214.183594 C 604.453125 213.535156 604.285156 212.90625 604.0625 212.289062 C 603.839844 211.671875 603.5625 211.082031 603.234375 210.515625 C 602.902344 209.949219 602.527344 209.417969 602.101562 208.917969 C 601.675781 208.417969 601.210938 207.960938 600.703125 207.546875 C 600.195312 207.132812 599.65625 206.765625 599.082031 206.449219 C 575.09375 193.09375 561.640625 171.792969 554.59375 156.261719 C 554.324219 155.675781 554.007812 155.117188 553.644531 154.585938 C 553.277344 154.054688 552.871094 153.558594 552.417969 153.101562 C 551.96875 152.640625 551.480469 152.222656 550.957031 151.851562 C 550.433594 151.476562 549.878906 151.148438 549.296875 150.871094 C 548.71875 150.59375 548.117188 150.371094 547.496094 150.199219 C 546.875 150.023438 546.242188 149.90625 545.601562 149.84375 C 544.960938 149.785156 544.320312 149.777344 543.679688 149.828125 C 543.035156 149.878906 542.402344 149.984375 541.78125 150.144531 C 526.191406 154.078125 510.355469 156.042969 494.277344 156.035156 C 485.722656 155.964844 477.207031 155.378906 468.722656 154.28125 C 460.242188 153.179688 451.855469 151.570312 443.566406 149.453125 C 435.28125 147.339844 427.148438 144.730469 419.179688 141.632812 C 411.207031 138.53125 403.449219 134.964844 395.910156 130.925781 C 395.113281 130.496094 394.28125 130.171875 393.402344 129.949219 C 392.527344 129.726562 391.640625 129.617188 390.734375 129.617188 C 389.832031 129.617188 388.941406 129.726562 388.066406 129.949219 C 387.191406 130.171875 386.355469 130.496094 385.5625 130.925781 C 378.015625 134.972656 370.253906 138.546875 362.273438 141.652344 C 354.292969 144.753906 346.15625 147.367188 337.859375 149.484375 C 329.5625 151.605469 321.171875 153.214844 312.679688 154.316406 C 304.1875 155.414062 295.660156 156 287.097656 156.066406 C 271.007812 156.066406 255.164062 154.089844 239.5625 150.144531 C 238.941406 149.984375 238.308594 149.878906 237.664062 149.828125 C 237.023438 149.777344 236.382812 149.785156 235.742188 149.84375 C 235.097656 149.90625 234.46875 150.023438 233.847656 150.199219 C 233.226562 150.371094 232.625 150.59375 232.046875 150.871094 C 231.464844 151.148438 230.910156 151.476562 230.386719 151.851562 C 229.863281 152.222656 229.375 152.640625 228.925781 153.101562 C 228.472656 153.558594 228.0625 154.054688 227.699219 154.585938 C 227.335938 155.117188 227.019531 155.675781 226.75 156.261719 C 219.703125 171.792969 206.285156 193.09375 182.292969 206.449219 C 181.726562 206.769531 181.191406 207.140625 180.6875 207.558594 C 180.1875 207.980469 179.726562 208.4375 179.308594 208.9375 C 178.890625 209.441406 178.519531 209.972656 178.195312 210.539062 C 177.871094 211.105469 177.597656 211.699219 177.378906 212.3125 C 177.160156 212.929688 177 213.558594 176.890625 214.203125 C 176.785156 214.847656 176.738281 215.496094 176.746094 216.148438 C 176.753906 216.800781 176.820312 217.449219 176.945312 218.089844 C 177.070312 218.730469 177.25 219.355469 177.488281 219.964844 C 183.746094 236.195312 187.824219 252.957031 189.722656 270.246094 Z M 189.722656 270.246094 " fill-opacity="1" fill-rule="nonzero"/><path fill="#231f20" d="M 510.484375 239.722656 C 510.484375 239.003906 510.410156 238.289062 510.269531 237.582031 C 510.125 236.878906 509.917969 236.191406 509.640625 235.527344 C 509.363281 234.859375 509.023438 234.226562 508.625 233.628906 C 508.222656 233.03125 507.765625 232.476562 507.257812 231.964844 C 506.746094 231.457031 506.195312 231 505.59375 230.601562 C 504.996094 230.199219 504.363281 229.859375 503.699219 229.582031 C 503.03125 229.308594 502.347656 229.097656 501.640625 228.957031 C 500.933594 228.8125 500.21875 228.742188 499.5 228.738281 L 281.972656 228.738281 C 281.253906 228.738281 280.539062 228.808594 279.832031 228.949219 C 279.121094 229.089844 278.4375 229.300781 277.769531 229.574219 C 277.101562 229.851562 276.46875 230.191406 275.871094 230.589844 C 275.269531 230.992188 274.714844 231.445312 274.203125 231.957031 C 273.695312 232.464844 273.238281 233.023438 272.839844 233.621094 C 272.4375 234.222656 272.097656 234.855469 271.824219 235.519531 C 271.546875 236.1875 271.339844 236.875 271.199219 237.582031 C 271.058594 238.289062 270.988281 239.003906 270.988281 239.722656 C 270.988281 240.445312 271.058594 241.160156 271.199219 241.867188 C 271.339844 242.574219 271.546875 243.261719 271.824219 243.929688 C 272.097656 244.59375 272.4375 245.226562 272.839844 245.828125 C 273.238281 246.425781 273.695312 246.980469 274.203125 247.492188 C 274.714844 248.003906 275.269531 248.457031 275.871094 248.859375 C 276.46875 249.257812 277.101562 249.597656 277.769531 249.875 C 278.4375 250.148438 279.121094 250.359375 279.832031 250.5 C 280.539062 250.640625 281.253906 250.710938 281.972656 250.710938 L 499.5 250.710938 C 500.21875 250.710938 500.933594 250.640625 501.640625 250.5 C 502.347656 250.359375 503.035156 250.148438 503.703125 249.875 C 504.367188 249.597656 505.003906 249.257812 505.601562 248.859375 C 506.203125 248.457031 506.757812 248.003906 507.265625 247.492188 C 507.777344 246.980469 508.230469 246.425781 508.632812 245.828125 C 509.035156 245.226562 509.371094 244.59375 509.648438 243.929688 C 509.925781 243.261719 510.132812 242.574219 510.273438 241.867188 C 510.414062 241.160156 510.484375 240.445312 510.484375 239.722656 Z M 510.484375 239.722656 " fill-opacity="1" fill-rule="nonzero"/></svg>