<svg xmlns="http://www.w3.org/2000/svg" xmlns:xlink="http://www.w3.org/1999/xlink" width="1024" zoomAndPan="magnify" viewBox="0 0 768 767.999994" height="1024" preserveAspectRatio="xMidYMid meet" version="1.0"><defs><clipPath id="e96326bd4c"><path d="M 128 250 L 691.050781 250 L 691.050781 692 L 128 692 Z M 128 250 " clip-rule="nonzero"/></clipPath><clipPath id="3b04cdf2e1"><path d="M 76.800781 76 L 639 76 L 639 518 L 76.800781 518 Z M 76.800781 76 " clip-rule="nonzero"/></clipPath></defs><g clip-path="url(#e96326bd4c)"><path fill="#000000" d="M 642.941406 259.5625 C 647.609375 269.246094 651.71875 279.15625 655.265625 289.304688 C 658.816406 299.449219 661.777344 309.761719 664.160156 320.246094 C 666.539062 330.726562 668.324219 341.308594 669.503906 351.992188 C 670.6875 362.675781 671.265625 373.394531 671.234375 384.140625 C 671.238281 387.574219 671.179688 391.007812 671.058594 394.4375 C 670.9375 397.867188 670.753906 401.296875 670.511719 404.722656 C 670.269531 408.144531 669.964844 411.566406 669.597656 414.976562 C 669.234375 418.390625 668.804688 421.796875 668.316406 425.195312 C 667.828125 428.59375 667.28125 431.980469 666.671875 435.359375 C 666.0625 438.738281 665.394531 442.105469 664.664062 445.460938 C 663.933594 448.816406 663.144531 452.15625 662.292969 455.480469 C 661.445312 458.808594 660.535156 462.117188 659.566406 465.410156 C 658.601562 468.703125 657.574219 471.980469 656.488281 475.238281 C 655.402344 478.492188 654.257812 481.730469 653.058594 484.945312 C 651.855469 488.160156 650.597656 491.355469 649.28125 494.523438 C 647.964844 497.695312 646.59375 500.839844 645.164062 503.960938 C 643.738281 507.082031 642.253906 510.179688 640.714844 513.246094 C 639.175781 516.316406 637.582031 519.355469 635.933594 522.367188 C 634.285156 525.375 632.582031 528.355469 630.828125 531.308594 C 629.074219 534.257812 627.265625 537.175781 625.40625 540.058594 C 623.546875 542.945312 621.636719 545.796875 619.675781 548.613281 C 617.714844 551.429688 615.703125 554.207031 613.640625 556.953125 C 611.578125 559.699219 609.46875 562.402344 607.3125 565.074219 C 605.152344 567.742188 602.949219 570.371094 600.695312 572.960938 C 598.445312 575.550781 596.144531 578.097656 593.800781 580.605469 C 591.457031 583.113281 589.070312 585.578125 586.636719 588 C 584.207031 590.421875 581.730469 592.796875 579.214844 595.128906 C 576.699219 597.464844 574.140625 599.75 571.539062 601.992188 C 568.941406 604.230469 566.304688 606.425781 563.625 608.570312 C 560.949219 610.71875 558.234375 612.816406 555.480469 614.863281 C 552.726562 616.914062 549.9375 618.914062 547.113281 620.863281 C 544.289062 622.8125 541.433594 624.707031 538.539062 626.554688 C 535.648438 628.402344 532.722656 630.195312 529.765625 631.9375 C 526.808594 633.679688 523.824219 635.367188 520.804688 637 C 517.789062 638.636719 514.742188 640.214844 511.667969 641.738281 C 508.597656 643.265625 505.496094 644.734375 502.371094 646.148438 C 499.242188 647.5625 496.09375 648.917969 492.917969 650.21875 C 489.742188 651.519531 486.546875 652.765625 483.324219 653.949219 C 480.105469 655.136719 476.867188 656.265625 473.605469 657.335938 C 470.347656 658.40625 467.070312 659.417969 463.773438 660.367188 C 460.476562 661.320312 457.164062 662.214844 453.835938 663.046875 C 450.507812 663.882812 447.167969 664.65625 443.808594 665.367188 C 440.453125 666.082031 437.085938 666.734375 433.707031 667.328125 C 430.328125 667.921875 426.941406 668.453125 423.542969 668.925781 C 420.144531 669.394531 416.738281 669.804688 413.324219 670.15625 C 409.910156 670.503906 406.492188 670.792969 403.070312 671.019531 C 399.648438 671.246094 396.21875 671.410156 392.792969 671.515625 C 389.363281 671.617188 385.933594 671.660156 382.5 671.640625 C 379.070312 671.621094 375.640625 671.539062 372.214844 671.398438 C 368.785156 671.257812 365.363281 671.050781 361.941406 670.785156 C 358.519531 670.523438 355.105469 670.195312 351.695312 669.808594 C 348.289062 669.417969 344.886719 668.972656 341.496094 668.460938 C 338.101562 667.953125 334.71875 667.382812 331.347656 666.75 C 327.976562 666.117188 324.613281 665.425781 321.265625 664.675781 C 317.917969 663.925781 314.585938 663.113281 311.269531 662.242188 C 307.949219 661.371094 304.648438 660.441406 301.363281 659.449219 C 298.078125 658.460938 294.8125 657.414062 291.5625 656.304688 C 288.316406 655.199219 285.089844 654.035156 281.882812 652.8125 C 278.675781 651.589844 275.496094 650.308594 272.335938 648.972656 C 269.175781 647.636719 266.039062 646.242188 262.929688 644.792969 C 259.820312 643.34375 256.734375 641.839844 253.679688 640.28125 C 250.621094 638.722656 247.59375 637.109375 244.597656 635.4375 C 241.597656 633.769531 238.632812 632.050781 235.695312 630.273438 C 232.757812 628.5 229.855469 626.671875 226.980469 624.792969 C 224.109375 622.914062 221.273438 620.984375 218.472656 619.003906 C 215.667969 617.023438 212.902344 614.992188 210.175781 612.914062 C 207.445312 610.832031 204.753906 608.703125 202.101562 606.527344 C 199.449219 604.351562 196.835938 602.128906 194.261719 599.859375 L 215.777344 578.363281 C 216.414062 577.730469 216.953125 577.023438 217.398438 576.246094 C 217.84375 575.464844 218.171875 574.636719 218.394531 573.769531 C 218.613281 572.898438 218.710938 572.011719 218.691406 571.117188 C 218.671875 570.21875 218.53125 569.339844 218.273438 568.480469 C 218.015625 567.621094 217.644531 566.8125 217.167969 566.050781 C 216.6875 565.292969 216.117188 564.609375 215.453125 564.007812 C 214.789062 563.402344 214.058594 562.898438 213.257812 562.492188 C 212.457031 562.089844 211.617188 561.796875 210.734375 561.621094 L 140.703125 547.574219 C 140.304688 547.492188 139.902344 547.4375 139.496094 547.40625 C 139.09375 547.378906 138.6875 547.371094 138.28125 547.390625 C 137.875 547.410156 137.472656 547.453125 137.074219 547.523438 C 136.671875 547.59375 136.277344 547.6875 135.890625 547.804688 C 135.5 547.921875 135.121094 548.0625 134.75 548.226562 C 134.378906 548.390625 134.015625 548.578125 133.667969 548.785156 C 133.320312 548.996094 132.984375 549.226562 132.664062 549.476562 C 132.347656 549.722656 132.042969 549.992188 131.753906 550.28125 C 131.46875 550.566406 131.199219 550.871094 130.949219 551.191406 C 130.699219 551.511719 130.46875 551.847656 130.261719 552.195312 C 130.050781 552.542969 129.863281 552.902344 129.699219 553.273438 C 129.535156 553.644531 129.394531 554.027344 129.277344 554.414062 C 129.160156 554.804688 129.066406 555.199219 128.996094 555.597656 C 128.925781 556 128.882812 556.402344 128.863281 556.808594 C 128.84375 557.214844 128.847656 557.621094 128.875 558.027344 C 128.90625 558.429688 128.960938 558.832031 129.039062 559.230469 L 142.980469 629.300781 C 143.15625 630.183594 143.445312 631.019531 143.847656 631.820312 C 144.25 632.621094 144.753906 633.355469 145.355469 634.019531 C 145.957031 634.683594 146.636719 635.253906 147.390625 635.734375 C 148.148438 636.214844 148.953125 636.585938 149.8125 636.847656 C 150.667969 637.105469 151.546875 637.25 152.441406 637.273438 C 153.335938 637.292969 154.21875 637.199219 155.085938 636.980469 C 155.957031 636.765625 156.78125 636.4375 157.5625 635.996094 C 158.339844 635.558594 159.050781 635.019531 159.683594 634.386719 L 180.222656 613.886719 C 182.96875 616.328125 185.757812 618.722656 188.589844 621.0625 C 191.421875 623.40625 194.292969 625.699219 197.207031 627.9375 C 200.121094 630.175781 203.074219 632.363281 206.066406 634.496094 C 209.058594 636.628906 212.089844 638.707031 215.15625 640.730469 C 218.222656 642.753906 221.324219 644.722656 224.464844 646.636719 C 227.601562 648.546875 230.773438 650.402344 233.976562 652.203125 C 237.179688 654 240.414062 655.742188 243.683594 657.425781 C 246.949219 659.105469 250.246094 660.730469 253.570312 662.292969 C 256.894531 663.859375 260.246094 665.363281 263.625 666.804688 C 267.003906 668.25 270.410156 669.632812 273.835938 670.953125 C 277.265625 672.273438 280.71875 673.53125 284.191406 674.730469 C 287.664062 675.925781 291.160156 677.0625 294.671875 678.132812 C 298.1875 679.203125 301.71875 680.210938 305.269531 681.15625 C 308.820312 682.101562 312.386719 682.984375 315.96875 683.800781 C 319.554688 684.617188 323.148438 685.367188 326.757812 686.054688 C 330.367188 686.742188 333.988281 687.363281 337.621094 687.921875 C 341.25 688.480469 344.890625 688.96875 348.539062 689.398438 C 352.191406 689.824219 355.84375 690.183594 359.507812 690.480469 C 363.167969 690.773438 366.835938 691.003906 370.507812 691.167969 C 374.175781 691.328125 377.847656 691.425781 381.523438 691.457031 C 385.195312 691.488281 388.871094 691.453125 392.542969 691.355469 C 396.214844 691.253906 399.886719 691.085938 403.550781 690.855469 C 407.21875 690.621094 410.878906 690.324219 414.535156 689.957031 C 418.191406 689.59375 421.839844 689.164062 425.480469 688.667969 C 429.121094 688.175781 432.75 687.613281 436.371094 686.988281 C 439.992188 686.363281 443.601562 685.671875 447.195312 684.914062 C 450.792969 684.160156 454.371094 683.339844 457.9375 682.457031 C 461.503906 681.574219 465.054688 680.625 468.585938 679.613281 C 472.117188 678.601562 475.632812 677.527344 479.125 676.390625 C 482.617188 675.25 486.089844 674.050781 489.539062 672.789062 C 492.992188 671.523438 496.417969 670.199219 499.820312 668.816406 C 503.222656 667.429688 506.601562 665.984375 509.953125 664.476562 C 513.304688 662.96875 516.625 661.402344 519.921875 659.773438 C 523.214844 658.148438 526.480469 656.464844 529.714844 654.71875 C 532.949219 652.976562 536.152344 651.175781 539.320312 649.316406 C 542.492188 647.457031 545.625 645.539062 548.726562 643.570312 C 551.828125 641.597656 554.894531 639.570312 557.921875 637.488281 C 560.949219 635.40625 563.941406 633.273438 566.890625 631.082031 C 569.84375 628.894531 572.753906 626.652344 575.625 624.359375 C 578.496094 622.0625 581.324219 619.71875 584.113281 617.324219 C 586.898438 614.929688 589.644531 612.484375 592.34375 609.988281 C 595.042969 607.496094 597.695312 604.953125 600.304688 602.363281 C 602.910156 599.773438 605.472656 597.140625 607.984375 594.457031 C 610.5 591.777344 612.964844 589.050781 615.378906 586.28125 C 617.796875 583.511719 620.160156 580.699219 622.476562 577.84375 C 624.789062 574.988281 627.054688 572.09375 629.265625 569.15625 C 631.476562 566.21875 633.632812 563.246094 635.738281 560.230469 C 637.839844 557.214844 639.890625 554.164062 641.882812 551.078125 C 643.878906 547.992188 645.816406 544.867188 647.699219 541.710938 C 649.582031 538.554688 651.40625 535.363281 653.175781 532.140625 C 654.945312 528.917969 656.652344 525.664062 658.304688 522.378906 C 659.957031 519.097656 661.546875 515.785156 663.078125 512.441406 C 664.613281 509.101562 666.085938 505.734375 667.496094 502.339844 C 668.90625 498.945312 670.257812 495.527344 671.546875 492.082031 C 672.835938 488.640625 674.0625 485.175781 675.226562 481.6875 C 676.390625 478.203125 677.492188 474.695312 678.53125 471.167969 C 679.570312 467.640625 680.542969 464.097656 681.457031 460.535156 C 682.367188 456.972656 683.214844 453.398438 683.996094 449.804688 C 684.78125 446.214844 685.5 442.609375 686.152344 438.992188 C 686.808594 435.371094 687.394531 431.746094 687.917969 428.105469 C 688.441406 424.464844 688.898438 420.820312 689.292969 417.164062 C 689.683594 413.507812 690.011719 409.847656 690.273438 406.179688 C 690.535156 402.511719 690.730469 398.84375 690.859375 395.167969 C 690.988281 391.492188 691.050781 387.820312 691.050781 384.140625 C 691.082031 372.648438 690.464844 361.195312 689.199219 349.773438 C 687.933594 338.351562 686.03125 327.035156 683.484375 315.828125 C 680.9375 304.625 677.769531 293.597656 673.972656 282.75 C 670.179688 271.90625 665.785156 261.308594 660.792969 250.957031 Z M 158.792969 607.265625 L 151.371094 569.9375 L 188.683594 577.421875 Z M 158.792969 607.265625 " fill-opacity="1" fill-rule="nonzero"/></g><g clip-path="url(#3b04cdf2e1)"><path fill="#000000" d="M 124.910156 508.71875 C 120.238281 499.039062 116.132812 489.125 112.582031 478.980469 C 109.035156 468.835938 106.070312 458.519531 103.691406 448.039062 C 101.308594 437.558594 99.527344 426.976562 98.34375 416.292969 C 97.160156 405.609375 96.585938 394.890625 96.613281 384.140625 C 96.613281 380.707031 96.675781 377.277344 96.796875 373.847656 C 96.917969 370.414062 97.101562 366.988281 97.347656 363.5625 C 97.59375 360.140625 97.898438 356.71875 98.265625 353.308594 C 98.632812 349.894531 99.0625 346.488281 99.550781 343.089844 C 100.039062 339.691406 100.589844 336.304688 101.199219 332.925781 C 101.8125 329.546875 102.480469 326.179688 103.210938 322.828125 C 103.945312 319.472656 104.734375 316.132812 105.585938 312.808594 C 106.4375 309.480469 107.347656 306.171875 108.316406 302.878906 C 109.285156 299.585938 110.3125 296.3125 111.398438 293.054688 C 112.484375 289.796875 113.628906 286.5625 114.832031 283.347656 C 116.035156 280.132812 117.292969 276.9375 118.609375 273.769531 C 119.925781 270.597656 121.300781 267.453125 122.730469 264.332031 C 124.160156 261.210938 125.644531 258.117188 127.183594 255.050781 C 128.722656 251.980469 130.316406 248.941406 131.964844 245.933594 C 133.617188 242.921875 135.316406 239.941406 137.074219 236.992188 C 138.828125 234.042969 140.636719 231.125 142.496094 228.242188 C 144.355469 225.355469 146.269531 222.503906 148.230469 219.6875 C 150.191406 216.871094 152.203125 214.09375 154.265625 211.347656 C 156.328125 208.605469 158.4375 205.898438 160.59375 203.230469 C 162.753906 200.5625 164.960938 197.933594 167.210938 195.34375 C 169.464844 192.753906 171.761719 190.207031 174.105469 187.699219 C 176.453125 185.191406 178.839844 182.726562 181.269531 180.308594 C 183.703125 177.886719 186.179688 175.507812 188.695312 173.175781 C 191.210938 170.84375 193.769531 168.558594 196.371094 166.316406 C 198.96875 164.074219 201.609375 161.882812 204.285156 159.734375 C 206.960938 157.589844 209.679688 155.492188 212.429688 153.441406 C 215.183594 151.394531 217.972656 149.394531 220.796875 147.445312 C 223.621094 145.496094 226.480469 143.601562 229.371094 141.753906 C 232.261719 139.90625 235.1875 138.113281 238.144531 136.371094 C 241.101562 134.628906 244.085938 132.941406 247.105469 131.308594 C 250.121094 129.671875 253.167969 128.09375 256.242188 126.566406 C 259.3125 125.042969 262.414062 123.574219 265.539062 122.160156 C 268.667969 120.746094 271.816406 119.386719 274.992188 118.085938 C 278.164062 116.785156 281.363281 115.539062 284.582031 114.355469 C 287.800781 113.167969 291.042969 112.039062 294.300781 110.96875 C 297.5625 109.898438 300.839844 108.886719 304.132812 107.933594 C 307.429688 106.980469 310.742188 106.085938 314.070312 105.253906 C 317.398438 104.417969 320.738281 103.644531 324.09375 102.929688 C 327.449219 102.214844 330.820312 101.5625 334.199219 100.96875 C 337.578125 100.375 340.964844 99.84375 344.363281 99.371094 C 347.761719 98.898438 351.167969 98.488281 354.578125 98.136719 C 357.992188 97.785156 361.410156 97.496094 364.832031 97.269531 C 368.257812 97.042969 371.683594 96.878906 375.113281 96.773438 C 378.542969 96.667969 381.972656 96.625 385.402344 96.644531 C 388.832031 96.660156 392.261719 96.742188 395.691406 96.882812 C 399.117188 97.023438 402.542969 97.226562 405.960938 97.492188 C 409.382812 97.753906 412.796875 98.078125 416.207031 98.464844 C 419.617188 98.851562 423.015625 99.300781 426.410156 99.808594 C 429.800781 100.316406 433.183594 100.886719 436.558594 101.515625 C 439.929688 102.144531 443.289062 102.835938 446.636719 103.585938 C 449.984375 104.335938 453.320312 105.148438 456.636719 106.015625 C 459.957031 106.886719 463.257812 107.816406 466.542969 108.804688 C 469.832031 109.792969 473.097656 110.835938 476.34375 111.941406 C 479.59375 113.046875 482.820312 114.210938 486.027344 115.433594 C 489.234375 116.652344 492.417969 117.929688 495.578125 119.265625 C 498.738281 120.601562 501.875 121.992188 504.984375 123.441406 C 508.09375 124.886719 511.179688 126.390625 514.238281 127.949219 C 517.292969 129.507812 520.320312 131.121094 523.320312 132.785156 C 526.320312 134.453125 529.289062 136.171875 532.226562 137.945312 C 535.164062 139.71875 538.070312 141.542969 540.941406 143.421875 C 543.8125 145.296875 546.652344 147.226562 549.457031 149.207031 C 552.257812 151.183594 555.027344 153.214844 557.757812 155.292969 C 560.488281 157.371094 563.179688 159.496094 565.835938 161.671875 C 568.488281 163.847656 571.105469 166.066406 573.679688 168.335938 L 552.070312 189.917969 C 551.433594 190.550781 550.894531 191.257812 550.453125 192.039062 C 550.007812 192.820312 549.675781 193.644531 549.457031 194.515625 C 549.238281 195.386719 549.136719 196.269531 549.15625 197.167969 C 549.179688 198.066406 549.316406 198.945312 549.578125 199.804688 C 549.835938 200.664062 550.203125 201.472656 550.683594 202.230469 C 551.160156 202.992188 551.734375 203.671875 552.394531 204.277344 C 553.058594 204.882812 553.792969 205.386719 554.59375 205.789062 C 555.394531 206.195312 556.234375 206.488281 557.113281 206.664062 L 627.148438 220.710938 C 627.546875 220.792969 627.949219 220.847656 628.351562 220.875 C 628.757812 220.90625 629.164062 220.914062 629.570312 220.894531 C 629.972656 220.875 630.378906 220.828125 630.777344 220.761719 C 631.179688 220.691406 631.570312 220.597656 631.960938 220.480469 C 632.351562 220.363281 632.730469 220.222656 633.101562 220.054688 C 633.472656 219.890625 633.832031 219.707031 634.179688 219.496094 C 634.527344 219.289062 634.863281 219.058594 635.183594 218.808594 C 635.503906 218.558594 635.808594 218.289062 636.09375 218.003906 C 636.382812 217.714844 636.652344 217.414062 636.902344 217.09375 C 637.152344 216.773438 637.378906 216.4375 637.589844 216.089844 C 637.796875 215.742188 637.984375 215.378906 638.148438 215.007812 C 638.3125 214.636719 638.457031 214.257812 638.574219 213.867188 C 638.691406 213.480469 638.785156 213.085938 638.855469 212.683594 C 638.921875 212.285156 638.96875 211.882812 638.988281 211.476562 C 639.007812 211.070312 639.003906 210.664062 638.972656 210.257812 C 638.941406 209.851562 638.886719 209.449219 638.808594 209.050781 L 624.871094 138.980469 C 624.695312 138.101562 624.40625 137.261719 624 136.460938 C 623.597656 135.660156 623.097656 134.929688 622.496094 134.265625 C 621.894531 133.601562 621.214844 133.027344 620.457031 132.550781 C 619.703125 132.070312 618.894531 131.699219 618.039062 131.4375 C 617.179688 131.175781 616.304688 131.035156 615.410156 131.011719 C 614.515625 130.988281 613.632812 131.085938 612.761719 131.300781 C 611.894531 131.519531 611.070312 131.847656 610.289062 132.285156 C 609.507812 132.726562 608.800781 133.261719 608.164062 133.894531 L 587.71875 154.308594 C 584.96875 151.867188 582.179688 149.476562 579.347656 147.136719 C 576.511719 144.796875 573.640625 142.507812 570.722656 140.269531 C 567.808594 138.03125 564.855469 135.847656 561.859375 133.714844 C 558.867188 131.585938 555.835938 129.507812 552.769531 127.484375 C 549.699219 125.460938 546.597656 123.496094 543.457031 121.585938 C 540.320312 119.675781 537.148438 117.820312 533.941406 116.023438 C 530.738281 114.226562 527.5 112.488281 524.234375 110.804688 C 520.964844 109.125 517.667969 107.503906 514.34375 105.941406 C 511.015625 104.378906 507.664062 102.878906 504.285156 101.433594 C 500.90625 99.992188 497.5 98.613281 494.070312 97.292969 C 490.644531 95.972656 487.191406 94.714844 483.71875 93.519531 C 480.242188 92.324219 476.75 91.191406 473.234375 90.121094 C 469.71875 89.050781 466.1875 88.042969 462.632812 87.101562 C 459.082031 86.160156 455.515625 85.277344 451.933594 84.464844 C 448.351562 83.648438 444.757812 82.898438 441.144531 82.210938 C 437.535156 81.527344 433.917969 80.90625 430.285156 80.347656 C 426.652344 79.792969 423.011719 79.304688 419.363281 78.878906 C 415.714844 78.453125 412.058594 78.09375 408.394531 77.800781 C 404.734375 77.503906 401.066406 77.277344 397.398438 77.117188 C 393.726562 76.953125 390.054688 76.855469 386.378906 76.828125 C 382.707031 76.796875 379.035156 76.832031 375.359375 76.933594 C 371.6875 77.035156 368.019531 77.203125 364.351562 77.4375 C 360.6875 77.671875 357.023438 77.96875 353.367188 78.335938 C 349.714844 78.699219 346.066406 79.128906 342.425781 79.625 C 338.785156 80.121094 335.152344 80.683594 331.535156 81.308594 C 327.914062 81.9375 324.304688 82.628906 320.710938 83.382812 C 317.113281 84.140625 313.535156 84.960938 309.96875 85.84375 C 306.402344 86.730469 302.851562 87.679688 299.320312 88.691406 C 295.789062 89.703125 292.277344 90.777344 288.78125 91.917969 C 285.289062 93.054688 281.816406 94.253906 278.367188 95.519531 C 274.917969 96.78125 271.492188 98.105469 268.085938 99.492188 C 264.683594 100.878906 261.308594 102.324219 257.957031 103.832031 C 254.605469 105.339844 251.28125 106.90625 247.988281 108.535156 C 244.695312 110.160156 241.429688 111.84375 238.195312 113.589844 C 234.960938 115.332031 231.757812 117.136719 228.589844 118.992188 C 225.417969 120.851562 222.285156 122.769531 219.183594 124.738281 C 216.082031 126.710938 213.019531 128.738281 209.988281 130.820312 C 206.960938 132.902344 203.972656 135.039062 201.019531 137.226562 C 198.066406 139.414062 195.15625 141.65625 192.285156 143.949219 C 189.414062 146.246094 186.585938 148.589844 183.796875 150.984375 C 181.011719 153.378906 178.265625 155.824219 175.566406 158.316406 C 172.867188 160.8125 170.214844 163.351562 167.605469 165.941406 C 165 168.53125 162.4375 171.167969 159.921875 173.847656 C 157.410156 176.527344 154.945312 179.253906 152.527344 182.023438 C 150.113281 184.792969 147.746094 187.605469 145.433594 190.460938 C 143.117188 193.316406 140.855469 196.210938 138.644531 199.148438 C 136.429688 202.082031 134.273438 205.058594 132.167969 208.070312 C 130.0625 211.085938 128.015625 214.136719 126.019531 217.222656 C 124.023438 220.308594 122.085938 223.429688 120.203125 226.585938 C 118.320312 229.746094 116.492188 232.933594 114.722656 236.15625 C 112.957031 239.378906 111.246094 242.632812 109.59375 245.914062 C 107.941406 249.199219 106.347656 252.511719 104.816406 255.851562 C 103.28125 259.195312 101.808594 262.5625 100.398438 265.957031 C 98.984375 269.347656 97.632812 272.765625 96.34375 276.210938 C 95.054688 279.652344 93.828125 283.117188 92.660156 286.601562 C 91.496094 290.089844 90.390625 293.597656 89.351562 297.121094 C 88.3125 300.648438 87.335938 304.191406 86.425781 307.753906 C 85.511719 311.3125 84.664062 314.890625 83.878906 318.480469 C 83.09375 322.074219 82.375 325.679688 81.71875 329.296875 C 81.066406 332.914062 80.476562 336.542969 79.949219 340.179688 C 79.425781 343.820312 78.964844 347.464844 78.570312 351.121094 C 78.175781 354.777344 77.847656 358.4375 77.585938 362.105469 C 77.324219 365.773438 77.125 369.441406 76.996094 373.117188 C 76.863281 376.789062 76.800781 380.464844 76.800781 384.140625 C 76.769531 395.632812 77.386719 407.089844 78.648438 418.511719 C 79.914062 429.933594 81.820312 441.246094 84.367188 452.453125 C 86.910156 463.660156 90.082031 474.6875 93.875 485.53125 C 97.667969 496.378906 102.0625 506.976562 107.058594 517.324219 Z M 609.058594 161.019531 L 616.476562 198.34375 L 579.167969 190.820312 Z M 609.058594 161.019531 " fill-opacity="1" fill-rule="nonzero"/></g><path fill="#000000" d="M 515.402344 564.355469 C 515.890625 564.355469 516.394531 564.355469 516.871094 564.355469 C 519.25 564.355469 521.621094 564.171875 523.972656 563.8125 C 526.328125 563.453125 528.640625 562.917969 530.914062 562.207031 C 533.1875 561.496094 535.394531 560.617188 537.535156 559.574219 C 539.671875 558.527344 541.722656 557.328125 543.683594 555.972656 C 545.640625 554.617188 547.488281 553.125 549.21875 551.488281 C 550.953125 549.855469 552.554688 548.097656 554.019531 546.222656 C 555.488281 544.347656 556.808594 542.371094 557.976562 540.292969 C 559.144531 538.21875 560.152344 536.066406 560.992188 533.835938 C 561.835938 531.609375 562.507812 529.328125 563.007812 527 C 563.507812 524.667969 563.828125 522.316406 563.972656 519.9375 C 564.113281 517.558594 564.078125 515.183594 563.859375 512.808594 C 563.644531 510.4375 563.25 508.09375 562.679688 505.777344 C 562.109375 503.464844 561.371094 501.207031 560.457031 499.007812 C 559.546875 496.804688 558.476562 494.683594 557.242188 492.644531 C 556.011719 490.605469 554.632812 488.671875 553.109375 486.839844 C 551.582031 485.011719 549.929688 483.304688 548.148438 481.722656 L 458.675781 402.324219 C 459.589844 398.855469 460.261719 395.339844 460.699219 391.777344 C 461.136719 388.214844 461.328125 384.640625 461.277344 381.054688 C 461.226562 377.46875 460.9375 373.898438 460.402344 370.351562 C 459.867188 366.804688 459.09375 363.308594 458.085938 359.867188 C 457.078125 356.421875 455.839844 353.066406 454.375 349.789062 C 452.90625 346.515625 451.226562 343.355469 449.332031 340.308594 C 447.4375 337.265625 445.34375 334.359375 443.054688 331.597656 C 440.765625 328.839844 438.300781 326.246094 435.660156 323.820312 C 433.015625 321.394531 430.222656 319.15625 427.277344 317.113281 C 424.332031 315.066406 421.261719 313.230469 418.066406 311.601562 C 414.871094 309.972656 411.582031 308.570312 408.195312 307.390625 C 404.808594 306.207031 401.359375 305.261719 397.84375 304.550781 C 394.332031 303.839844 390.785156 303.371094 387.207031 303.140625 C 383.628906 302.914062 380.050781 302.929688 376.472656 303.1875 C 372.898438 303.445312 369.355469 303.945312 365.847656 304.683594 C 362.339844 305.425781 358.898438 306.398438 355.519531 307.605469 C 355.128906 307.746094 354.746094 307.910156 354.375 308.097656 C 354.003906 308.285156 353.644531 308.496094 353.300781 308.730469 C 352.957031 308.960938 352.625 309.214844 352.3125 309.492188 C 352 309.765625 351.707031 310.058594 351.429688 310.371094 C 351.152344 310.679688 350.898438 311.007812 350.664062 311.351562 C 350.429688 311.695312 350.214844 312.054688 350.027344 312.425781 C 349.835938 312.796875 349.671875 313.175781 349.527344 313.566406 C 349.386719 313.960938 349.269531 314.359375 349.179688 314.765625 C 349.085938 315.171875 349.019531 315.582031 348.980469 315.996094 C 348.941406 316.410156 348.925781 316.828125 348.941406 317.242188 C 348.953125 317.660156 348.992188 318.074219 349.054688 318.484375 C 349.121094 318.894531 349.210938 319.300781 349.324219 319.703125 C 349.441406 320.101562 349.582031 320.492188 349.746094 320.875 C 349.910156 321.257812 350.101562 321.628906 350.3125 321.988281 C 350.523438 322.347656 350.757812 322.691406 351.011719 323.019531 C 351.265625 323.347656 351.542969 323.660156 351.835938 323.953125 L 375.066406 347.210938 L 347.050781 375.25 L 323.816406 352 C 323.523438 351.707031 323.210938 351.429688 322.882812 351.175781 C 322.554688 350.917969 322.210938 350.683594 321.851562 350.472656 C 321.492188 350.261719 321.121094 350.070312 320.738281 349.90625 C 320.355469 349.742188 319.964844 349.601562 319.566406 349.484375 C 319.164062 349.367188 318.761719 349.277344 318.347656 349.214844 C 317.9375 349.148438 317.523438 349.109375 317.105469 349.097656 C 316.691406 349.085938 316.273438 349.097656 315.859375 349.136719 C 315.445312 349.175781 315.035156 349.242188 314.628906 349.335938 C 314.222656 349.425781 313.824219 349.542969 313.429688 349.683594 C 313.039062 349.828125 312.65625 349.992188 312.289062 350.183594 C 311.917969 350.375 311.558594 350.585938 311.214844 350.820312 C 310.871094 351.058594 310.542969 351.3125 310.230469 351.589844 C 309.921875 351.867188 309.628906 352.160156 309.351562 352.476562 C 309.078125 352.789062 308.824219 353.117188 308.59375 353.464844 C 308.359375 353.808594 308.148438 354.167969 307.960938 354.542969 C 307.773438 354.914062 307.609375 355.296875 307.46875 355.6875 C 306.261719 359.066406 305.289062 362.511719 304.550781 366.023438 C 303.8125 369.535156 303.3125 373.078125 303.054688 376.65625 C 302.796875 380.234375 302.78125 383.816406 303.011719 387.394531 C 303.238281 390.976562 303.710938 394.523438 304.421875 398.042969 C 305.128906 401.558594 306.074219 405.011719 307.253906 408.398438 C 308.433594 411.785156 309.839844 415.078125 311.464844 418.277344 C 313.09375 421.472656 314.925781 424.546875 316.972656 427.496094 C 319.015625 430.441406 321.25 433.238281 323.675781 435.882812 C 326.097656 438.523438 328.691406 440.992188 331.449219 443.285156 C 334.207031 445.574219 337.109375 447.667969 340.152344 449.566406 C 343.195312 451.460938 346.355469 453.144531 349.625 454.609375 C 352.898438 456.078125 356.253906 457.316406 359.695312 458.328125 C 363.136719 459.335938 366.628906 460.109375 370.171875 460.644531 C 373.71875 461.179688 377.285156 461.472656 380.867188 461.523438 C 384.453125 461.574219 388.027344 461.382812 391.585938 460.945312 C 395.144531 460.511719 398.65625 459.835938 402.125 458.921875 L 481.480469 548.445312 C 483.609375 550.867188 485.960938 553.050781 488.539062 554.988281 C 491.117188 556.925781 493.863281 558.578125 496.78125 559.945312 C 499.699219 561.316406 502.730469 562.371094 505.867188 563.113281 C 509.003906 563.855469 512.183594 564.269531 515.402344 564.355469 Z M 405.316406 437.675781 C 404.175781 437.679688 403.070312 437.867188 401.996094 438.242188 C 400.847656 438.652344 399.691406 439.03125 398.523438 439.371094 C 397.351562 439.710938 396.171875 440.015625 394.984375 440.285156 C 393.796875 440.550781 392.601562 440.78125 391.398438 440.976562 C 390.195312 441.171875 388.988281 441.328125 387.777344 441.449219 C 386.566406 441.566406 385.351562 441.648438 384.132812 441.695312 C 382.914062 441.738281 381.699219 441.746094 380.480469 441.714844 C 379.261719 441.683594 378.046875 441.617188 376.832031 441.511719 C 375.621094 441.40625 374.410156 441.261719 373.207031 441.082031 C 372 440.902344 370.804688 440.683594 369.613281 440.429688 C 368.421875 440.175781 367.238281 439.886719 366.066406 439.558594 C 364.890625 439.230469 363.730469 438.867188 362.578125 438.46875 C 361.425781 438.070312 360.289062 437.636719 359.164062 437.167969 C 358.042969 436.699219 356.933594 436.195312 355.839844 435.65625 C 354.746094 435.121094 353.671875 434.550781 352.613281 433.945312 C 351.554688 433.34375 350.515625 432.707031 349.496094 432.039062 C 348.476562 431.371094 347.480469 430.671875 346.503906 429.941406 C 345.527344 429.210938 344.578125 428.453125 343.648438 427.664062 C 342.71875 426.875 341.816406 426.0625 340.9375 425.214844 C 340.058594 424.371094 339.207031 423.503906 338.378906 422.605469 C 337.554688 421.707031 336.757812 420.789062 335.992188 419.839844 C 335.222656 418.894531 334.484375 417.925781 333.773438 416.9375 C 333.066406 415.945312 332.390625 414.933594 331.742188 413.898438 C 331.097656 412.867188 330.484375 411.8125 329.902344 410.742188 C 329.320312 409.671875 328.773438 408.582031 328.257812 407.476562 C 327.746094 406.371094 327.265625 405.253906 326.820312 404.117188 C 326.375 402.984375 325.964844 401.835938 325.589844 400.675781 C 325.214844 399.515625 324.875 398.347656 324.574219 397.167969 C 324.273438 395.984375 324.007812 394.796875 323.777344 393.597656 C 323.546875 392.402344 323.355469 391.199219 323.199219 389.992188 C 323.046875 388.78125 322.929688 387.570312 322.847656 386.351562 C 322.769531 385.136719 322.726562 383.917969 322.71875 382.699219 C 322.714844 381.480469 322.746094 380.261719 322.816406 379.046875 L 340.046875 396.296875 C 340.515625 396.738281 341.019531 397.136719 341.566406 397.484375 C 342.109375 397.832031 342.679688 398.125 343.28125 398.363281 C 343.878906 398.601562 344.496094 398.78125 345.132812 398.902344 C 345.765625 399.023438 346.40625 399.085938 347.050781 399.085938 C 347.695312 399.085938 348.335938 399.023438 348.96875 398.902344 C 349.601562 398.78125 350.21875 398.601562 350.820312 398.363281 C 351.417969 398.125 351.992188 397.832031 352.535156 397.484375 C 353.078125 397.136719 353.585938 396.738281 354.054688 396.296875 L 396.089844 354.230469 C 396.550781 353.769531 396.960938 353.269531 397.324219 352.730469 C 397.683594 352.1875 397.988281 351.617188 398.238281 351.015625 C 398.488281 350.414062 398.675781 349.792969 398.800781 349.15625 C 398.929688 348.519531 398.992188 347.875 398.992188 347.222656 C 398.992188 346.570312 398.929688 345.925781 398.800781 345.289062 C 398.675781 344.652344 398.488281 344.03125 398.238281 343.429688 C 397.988281 342.828125 397.683594 342.257812 397.324219 341.714844 C 396.960938 341.175781 396.550781 340.671875 396.089844 340.214844 L 378.851562 322.972656 C 380.070312 322.902344 381.285156 322.871094 382.503906 322.875 C 383.722656 322.882812 384.9375 322.925781 386.152344 323.003906 C 387.371094 323.085938 388.582031 323.203125 389.789062 323.355469 C 390.996094 323.511719 392.199219 323.703125 393.394531 323.933594 C 394.59375 324.164062 395.78125 324.429688 396.960938 324.730469 C 398.140625 325.035156 399.308594 325.371094 400.46875 325.746094 C 401.628906 326.121094 402.773438 326.53125 403.910156 326.976562 C 405.042969 327.421875 406.160156 327.902344 407.265625 328.417969 C 408.371094 328.933594 409.457031 329.480469 410.527344 330.0625 C 411.597656 330.644531 412.648438 331.257812 413.679688 331.90625 C 414.714844 332.550781 415.726562 333.230469 416.714844 333.9375 C 417.707031 334.648438 418.675781 335.386719 419.621094 336.15625 C 420.566406 336.925781 421.488281 337.722656 422.382812 338.546875 C 423.277344 339.371094 424.148438 340.226562 424.992188 341.105469 C 425.835938 341.984375 426.652344 342.886719 427.4375 343.816406 C 428.226562 344.746094 428.984375 345.699219 429.714844 346.675781 C 430.441406 347.652344 431.140625 348.652344 431.808594 349.671875 C 432.476562 350.691406 433.113281 351.730469 433.714844 352.789062 C 434.320312 353.847656 434.890625 354.925781 435.425781 356.019531 C 435.964844 357.113281 436.464844 358.222656 436.933594 359.347656 C 437.402344 360.472656 437.835938 361.609375 438.234375 362.761719 C 438.636719 363.914062 438.996094 365.078125 439.324219 366.25 C 439.652344 367.425781 439.941406 368.609375 440.195312 369.800781 C 440.449219 370.992188 440.667969 372.191406 440.847656 373.394531 C 441.027344 374.601562 441.167969 375.8125 441.273438 377.027344 C 441.378906 378.242188 441.449219 379.457031 441.480469 380.675781 C 441.507812 381.894531 441.503906 383.113281 441.457031 384.332031 C 441.414062 385.546875 441.332031 386.765625 441.210938 387.976562 C 441.09375 389.191406 440.9375 390.398438 440.742188 391.601562 C 440.546875 392.804688 440.316406 394 440.050781 395.191406 C 439.78125 396.378906 439.476562 397.558594 439.136719 398.730469 C 438.796875 399.898438 438.421875 401.058594 438.007812 402.207031 C 437.679688 403.136719 437.492188 404.09375 437.445312 405.082031 C 437.402344 406.066406 437.503906 407.039062 437.75 407.996094 C 437.996094 408.953125 438.378906 409.851562 438.890625 410.695312 C 439.40625 411.539062 440.035156 412.285156 440.773438 412.941406 L 535.011719 496.566406 C 535.707031 497.183594 536.371094 497.835938 537.003906 498.523438 C 537.636719 499.210938 538.230469 499.929688 538.789062 500.675781 C 539.347656 501.421875 539.863281 502.199219 540.34375 503 C 540.824219 503.800781 541.261719 504.621094 541.65625 505.46875 C 542.050781 506.3125 542.402344 507.175781 542.707031 508.054688 C 543.015625 508.9375 543.277344 509.832031 543.492188 510.738281 C 543.707031 511.648438 543.878906 512.5625 544 513.488281 C 544.125 514.414062 544.199219 515.34375 544.226562 516.273438 C 544.253906 517.207031 544.234375 518.140625 544.167969 519.070312 C 544.101562 520 543.984375 520.925781 543.824219 521.84375 C 543.660156 522.765625 543.453125 523.671875 543.199219 524.570312 C 542.945312 525.46875 542.648438 526.351562 542.300781 527.21875 C 541.957031 528.085938 541.570312 528.933594 541.140625 529.761719 C 540.710938 530.585938 540.238281 531.390625 539.726562 532.171875 C 539.214844 532.949219 538.660156 533.703125 538.074219 534.425781 C 537.484375 535.148438 536.859375 535.839844 536.199219 536.5 C 534.886719 537.835938 533.453125 539.019531 531.890625 540.058594 C 530.332031 541.09375 528.683594 541.957031 526.941406 542.648438 C 525.199219 543.335938 523.410156 543.839844 521.5625 544.15625 C 519.71875 544.472656 517.859375 544.59375 515.988281 544.519531 C 514.121094 544.46875 512.273438 544.230469 510.453125 543.800781 C 508.632812 543.371094 506.878906 542.761719 505.183594 541.964844 C 503.488281 541.171875 501.894531 540.214844 500.398438 539.09375 C 498.902344 537.96875 497.539062 536.703125 496.304688 535.300781 L 412.726562 441.007812 C 411.785156 439.949219 410.667969 439.128906 409.375 438.546875 C 408.085938 437.96875 406.730469 437.675781 405.316406 437.675781 Z M 405.316406 437.675781 " fill-opacity="1" fill-rule="nonzero"/><path fill="#000000" d="M 523.863281 433.710938 C 524.804688 431.074219 525.667969 428.414062 526.460938 425.730469 C 527.25 423.042969 527.964844 420.339844 528.601562 417.613281 C 529.242188 414.890625 529.800781 412.148438 530.285156 409.390625 C 530.769531 406.636719 531.175781 403.867188 531.503906 401.085938 C 531.832031 398.308594 532.082031 395.519531 532.253906 392.726562 C 532.425781 389.933594 532.519531 387.136719 532.535156 384.339844 C 532.550781 381.539062 532.488281 378.742188 532.34375 375.945312 C 532.203125 373.152344 531.980469 370.363281 531.679688 367.578125 C 531.382812 364.796875 531.003906 362.023438 530.550781 359.261719 C 530.09375 356.5 529.5625 353.753906 528.953125 351.023438 C 528.34375 348.292969 527.660156 345.578125 526.898438 342.886719 C 526.136719 340.191406 525.296875 337.523438 524.386719 334.875 C 523.472656 332.230469 522.488281 329.613281 521.429688 327.023438 C 520.371094 324.429688 519.238281 321.871094 518.035156 319.34375 C 516.835938 316.820312 515.5625 314.328125 514.21875 311.871094 C 512.875 309.417969 511.464844 307 509.988281 304.625 C 508.507812 302.25 506.964844 299.917969 505.355469 297.628906 C 503.746094 295.339844 502.070312 293.097656 500.335938 290.902344 C 498.601562 288.707031 496.804688 286.5625 494.949219 284.46875 C 493.089844 282.375 491.179688 280.335938 489.207031 278.347656 C 487.238281 276.363281 485.210938 274.433594 483.132812 272.5625 C 481.054688 270.691406 478.921875 268.878906 476.742188 267.125 C 474.558594 265.375 472.332031 263.683594 470.054688 262.058594 C 467.78125 260.429688 465.460938 258.867188 463.09375 257.371094 C 460.730469 255.875 458.328125 254.445312 455.882812 253.085938 C 453.441406 251.726562 450.960938 250.433594 448.441406 249.210938 C 445.925781 247.992188 443.375 246.839844 440.796875 245.761719 C 438.214844 244.6875 435.605469 243.679688 432.964844 242.75 C 430.328125 241.820312 427.667969 240.964844 424.980469 240.183594 C 422.296875 239.398438 419.589844 238.695312 416.863281 238.066406 C 414.136719 237.4375 411.398438 236.886719 408.640625 236.410156 C 405.882812 235.9375 403.117188 235.539062 400.335938 235.21875 C 397.558594 234.902344 394.773438 234.660156 391.980469 234.5 C 389.1875 234.335938 386.394531 234.253906 383.597656 234.246094 C 380.800781 234.242188 378.003906 234.316406 375.210938 234.46875 C 372.417969 234.621094 369.632812 234.851562 366.851562 235.160156 C 364.070312 235.46875 361.304688 235.859375 358.546875 236.324219 C 355.785156 236.789062 353.042969 237.328125 350.316406 237.949219 C 347.589844 238.570312 344.878906 239.265625 342.191406 240.035156 C 339.503906 240.808594 336.839844 241.65625 334.195312 242.578125 C 331.554688 243.5 328.941406 244.492188 326.359375 245.5625 C 323.773438 246.632812 321.21875 247.773438 318.699219 248.984375 C 316.175781 250.195312 313.691406 251.480469 311.242188 252.832031 C 308.792969 254.183594 306.386719 255.605469 304.015625 257.09375 C 301.648438 258.582031 299.320312 260.132812 297.039062 261.753906 C 294.757812 263.371094 292.523438 265.054688 290.335938 266.796875 C 288.148438 268.542969 286.011719 270.347656 283.925781 272.210938 C 281.839844 274.078125 279.808594 276 277.832031 277.976562 C 275.855469 279.957031 273.933594 281.988281 272.070312 284.078125 C 270.207031 286.164062 268.402344 288.300781 266.660156 290.492188 C 264.914062 292.679688 263.234375 294.914062 261.617188 297.199219 C 260 299.484375 258.445312 301.808594 256.960938 304.179688 C 255.472656 306.550781 254.054688 308.960938 252.703125 311.410156 C 251.351562 313.863281 250.070312 316.347656 248.859375 318.871094 C 247.644531 321.394531 246.507812 323.949219 245.4375 326.535156 C 244.371094 329.121094 243.375 331.738281 242.453125 334.378906 C 241.53125 337.023438 240.6875 339.691406 239.914062 342.378906 C 239.144531 345.070312 238.449219 347.78125 237.832031 350.511719 C 237.210938 353.238281 236.667969 355.984375 236.203125 358.746094 C 235.738281 361.503906 235.351562 364.277344 235.042969 367.058594 C 234.734375 369.839844 234.503906 372.628906 234.351562 375.421875 C 234.199219 378.21875 234.125 381.015625 234.132812 383.8125 C 234.136719 386.613281 234.21875 389.410156 234.382812 392.203125 C 234.542969 394.996094 234.785156 397.785156 235.101562 400.566406 C 235.421875 403.347656 235.816406 406.117188 236.292969 408.875 C 236.765625 411.632812 237.320312 414.375 237.945312 417.101562 C 238.574219 419.832031 239.28125 422.539062 240.0625 425.226562 C 240.84375 427.914062 241.699219 430.578125 242.628906 433.214844 C 243.558594 435.855469 244.5625 438.46875 245.640625 441.050781 C 246.714844 443.632812 247.867188 446.183594 249.085938 448.703125 C 250.304688 451.222656 251.597656 453.703125 252.957031 456.148438 C 254.316406 458.59375 255.746094 461 257.238281 463.367188 C 258.734375 465.730469 260.296875 468.050781 261.921875 470.332031 C 263.546875 472.609375 265.234375 474.839844 266.988281 477.019531 C 268.738281 479.203125 270.550781 481.335938 272.417969 483.414062 C 274.289062 485.496094 276.21875 487.523438 278.203125 489.496094 C 280.1875 491.46875 282.226562 493.382812 284.320312 495.238281 C 286.410156 497.097656 288.554688 498.894531 290.746094 500.628906 C 292.941406 502.367188 295.179688 504.042969 297.46875 505.652344 C 299.757812 507.261719 302.085938 508.808594 304.460938 510.289062 C 306.835938 511.765625 309.25 513.179688 311.703125 514.523438 C 314.15625 515.867188 316.648438 517.140625 319.171875 518.34375 C 321.699219 519.546875 324.253906 520.679688 326.84375 521.738281 C 329.433594 522.796875 332.046875 523.785156 334.691406 524.695312 C 337.335938 525.609375 340.003906 526.445312 342.695312 527.210938 C 345.386719 527.972656 348.097656 528.65625 350.828125 529.269531 C 353.558594 529.878906 356.304688 530.410156 359.0625 530.867188 C 361.824219 531.320312 364.59375 531.699219 367.375 531.996094 C 370.15625 532.296875 372.941406 532.519531 375.734375 532.660156 C 378.527344 532.804688 381.324219 532.867188 384.121094 532.851562 C 386.917969 532.835938 389.714844 532.742188 392.503906 532.570312 C 395.296875 532.398438 398.082031 532.148438 400.859375 531.820312 C 403.636719 531.492188 406.402344 531.085938 409.15625 530.601562 C 411.914062 530.117188 414.652344 529.554688 417.375 528.917969 C 420.097656 528.277344 422.800781 527.5625 425.484375 526.773438 C 428.167969 525.980469 430.828125 525.117188 433.460938 524.175781 L 419.136719 508.007812 C 416.859375 508.660156 414.570312 509.25 412.265625 509.777344 C 409.957031 510.304688 407.636719 510.765625 405.304688 511.167969 C 402.972656 511.566406 400.632812 511.902344 398.28125 512.171875 C 395.929688 512.445312 393.574219 512.648438 391.214844 512.792969 C 388.851562 512.933594 386.488281 513.007812 384.121094 513.019531 C 381.753906 513.03125 379.390625 512.980469 377.027344 512.859375 C 374.664062 512.742188 372.304688 512.558594 369.953125 512.3125 C 367.601562 512.0625 365.253906 511.75 362.917969 511.375 C 360.582031 510.996094 358.261719 510.554688 355.949219 510.050781 C 353.636719 509.546875 351.339844 508.980469 349.058594 508.347656 C 346.78125 507.71875 344.519531 507.027344 342.273438 506.269531 C 340.03125 505.515625 337.8125 504.699219 335.613281 503.824219 C 333.417969 502.945312 331.246094 502.007812 329.097656 501.011719 C 326.953125 500.015625 324.835938 498.960938 322.746094 497.847656 C 320.65625 496.734375 318.601562 495.566406 316.578125 494.339844 C 314.554688 493.113281 312.5625 491.835938 310.609375 490.5 C 308.65625 489.164062 306.738281 487.777344 304.863281 486.335938 C 302.984375 484.894531 301.148438 483.402344 299.351562 481.863281 C 297.554688 480.320312 295.804688 478.730469 294.09375 477.09375 C 292.386719 475.457031 290.722656 473.773438 289.105469 472.042969 C 287.492188 470.316406 285.921875 468.542969 284.402344 466.726562 C 282.882812 464.914062 281.417969 463.058594 280 461.160156 C 278.582031 459.265625 277.21875 457.332031 275.90625 455.359375 C 274.59375 453.390625 273.339844 451.382812 272.136719 449.34375 C 270.9375 447.304688 269.792969 445.234375 268.707031 443.128906 C 267.617188 441.027344 266.589844 438.894531 265.617188 436.738281 C 264.648438 434.578125 263.738281 432.394531 262.886719 430.183594 C 262.035156 427.972656 261.246094 425.742188 260.519531 423.492188 C 259.792969 421.238281 259.125 418.964844 258.523438 416.675781 C 257.917969 414.386719 257.378906 412.082031 256.902344 409.765625 C 256.425781 407.445312 256.011719 405.113281 255.664062 402.773438 C 255.3125 400.429688 255.03125 398.082031 254.808594 395.722656 C 254.589844 393.367188 254.433594 391.003906 254.34375 388.640625 C 254.253906 386.273438 254.226562 383.90625 254.265625 381.539062 C 254.304688 379.171875 254.410156 376.808594 254.578125 374.445312 C 254.75 372.085938 254.984375 369.730469 255.28125 367.378906 C 255.578125 365.03125 255.941406 362.691406 256.371094 360.363281 C 256.796875 358.035156 257.285156 355.71875 257.839844 353.417969 C 258.394531 351.117188 259.011719 348.832031 259.691406 346.5625 C 260.371094 344.296875 261.109375 342.046875 261.914062 339.820312 C 262.714844 337.59375 263.578125 335.390625 264.503906 333.210938 C 265.425781 331.03125 266.410156 328.878906 267.453125 326.75 C 268.492188 324.625 269.59375 322.53125 270.75 320.464844 C 271.90625 318.398438 273.117188 316.367188 274.386719 314.367188 C 275.65625 312.371094 276.976562 310.40625 278.355469 308.480469 C 279.730469 306.554688 281.15625 304.667969 282.636719 302.820312 C 284.117188 300.972656 285.644531 299.167969 287.226562 297.40625 C 288.804688 295.640625 290.429688 293.921875 292.101562 292.246094 C 293.777344 290.574219 295.492188 288.945312 297.253906 287.367188 C 299.019531 285.789062 300.824219 284.257812 302.667969 282.777344 C 304.515625 281.296875 306.402344 279.867188 308.324219 278.488281 C 310.25 277.113281 312.210938 275.789062 314.207031 274.519531 C 316.207031 273.25 318.238281 272.039062 320.300781 270.878906 C 322.363281 269.722656 324.460938 268.621094 326.582031 267.582031 C 328.707031 266.539062 330.859375 265.554688 333.039062 264.628906 C 335.214844 263.707031 337.417969 262.84375 339.644531 262.039062 C 341.871094 261.234375 344.117188 260.492188 346.382812 259.8125 C 348.648438 259.132812 350.933594 258.515625 353.230469 257.964844 C 355.53125 257.410156 357.847656 256.917969 360.171875 256.492188 C 362.5 256.0625 364.839844 255.699219 367.183594 255.402344 C 369.53125 255.105469 371.886719 254.871094 374.246094 254.699219 C 376.605469 254.53125 378.96875 254.425781 381.335938 254.386719 C 383.699219 254.347656 386.066406 254.375 388.429688 254.464844 C 390.792969 254.554688 393.152344 254.710938 395.511719 254.929688 C 397.867188 255.148438 400.214844 255.433594 402.554688 255.785156 C 404.894531 256.132812 407.222656 256.546875 409.539062 257.023438 C 411.859375 257.5 414.160156 258.042969 416.449219 258.644531 C 418.738281 259.25 421.007812 259.914062 423.257812 260.644531 C 425.507812 261.371094 427.738281 262.164062 429.945312 263.011719 C 432.152344 263.863281 434.335938 264.777344 436.496094 265.746094 C 438.652344 266.71875 440.78125 267.746094 442.882812 268.835938 C 444.984375 269.921875 447.054688 271.066406 449.09375 272.269531 C 451.132812 273.472656 453.136719 274.730469 455.105469 276.042969 C 457.074219 277.351562 459.007812 278.71875 460.902344 280.136719 C 462.796875 281.554688 464.652344 283.023438 466.464844 284.542969 C 468.28125 286.0625 470.050781 287.632812 471.777344 289.25 C 473.507812 290.867188 475.1875 292.53125 476.824219 294.242188 C 478.460938 295.949219 480.050781 297.703125 481.589844 299.5 C 483.132812 301.300781 484.621094 303.136719 486.058594 305.015625 C 487.5 306.894531 488.886719 308.8125 490.222656 310.769531 C 491.554688 312.722656 492.835938 314.714844 494.058594 316.738281 C 495.285156 318.765625 496.453125 320.824219 497.566406 322.914062 C 498.675781 325.003906 499.730469 327.121094 500.726562 329.269531 C 501.722656 331.417969 502.660156 333.589844 503.535156 335.789062 C 504.410156 337.988281 505.226562 340.210938 505.980469 342.453125 C 506.738281 344.699219 507.429688 346.960938 508.058594 349.242188 C 508.6875 351.527344 509.257812 353.824219 509.761719 356.136719 C 510.265625 358.449219 510.707031 360.773438 511.082031 363.113281 C 511.457031 365.449219 511.769531 367.796875 512.019531 370.152344 C 512.265625 372.503906 512.449219 374.867188 512.566406 377.230469 C 512.6875 379.59375 512.738281 381.960938 512.726562 384.328125 C 512.714844 386.695312 512.640625 389.0625 512.5 391.425781 C 512.355469 393.789062 512.152344 396.144531 511.878906 398.5 C 511.609375 400.851562 511.273438 403.195312 510.875 405.527344 C 510.476562 407.859375 510.011719 410.183594 509.484375 412.488281 C 508.957031 414.796875 508.367188 417.089844 507.714844 419.367188 Z M 523.863281 433.710938 " fill-opacity="1" fill-rule="nonzero"/><path fill="#000000" d="M 522.191406 522.5 C 522.648438 522.039062 523.0625 521.539062 523.421875 520.996094 C 523.78125 520.457031 524.085938 519.886719 524.335938 519.285156 C 524.585938 518.683594 524.773438 518.0625 524.898438 517.425781 C 525.027344 516.785156 525.089844 516.140625 525.089844 515.492188 C 525.089844 514.839844 525.023438 514.195312 524.898438 513.558594 C 524.769531 512.917969 524.582031 512.300781 524.332031 511.699219 C 524.085938 511.097656 523.777344 510.523438 523.417969 509.984375 C 523.054688 509.441406 522.644531 508.941406 522.183594 508.484375 C 521.726562 508.023438 521.226562 507.613281 520.683594 507.25 C 520.144531 506.886719 519.574219 506.582031 518.972656 506.335938 C 518.371094 506.085938 517.75 505.898438 517.113281 505.769531 C 516.476562 505.644531 515.832031 505.582031 515.179688 505.582031 C 514.53125 505.582031 513.886719 505.644531 513.25 505.769531 C 512.609375 505.898438 511.992188 506.085938 511.390625 506.335938 C 510.789062 506.582031 510.21875 506.890625 509.679688 507.25 C 509.136719 507.613281 508.636719 508.023438 508.175781 508.484375 C 507.71875 508.941406 507.304688 509.441406 506.945312 509.984375 C 506.582031 510.523438 506.277344 511.097656 506.027344 511.699219 C 505.78125 512.296875 505.59375 512.917969 505.464844 513.558594 C 505.339844 514.195312 505.273438 514.839844 505.273438 515.492188 C 505.273438 516.140625 505.335938 516.785156 505.464844 517.425781 C 505.589844 518.0625 505.777344 518.683594 506.027344 519.285156 C 506.273438 519.886719 506.578125 520.457031 506.941406 520.996094 C 507.300781 521.539062 507.710938 522.039062 508.171875 522.5 C 508.632812 522.960938 509.132812 523.371094 509.671875 523.734375 C 510.214844 524.097656 510.785156 524.402344 511.386719 524.652344 C 511.988281 524.902344 512.609375 525.089844 513.246094 525.21875 C 513.886719 525.34375 514.53125 525.40625 515.179688 525.40625 C 515.832031 525.40625 516.476562 525.34375 517.117188 525.21875 C 517.753906 525.089844 518.375 524.902344 518.976562 524.652344 C 519.578125 524.402344 520.148438 524.097656 520.6875 523.734375 C 521.230469 523.371094 521.730469 522.960938 522.191406 522.5 Z M 522.191406 522.5 " fill-opacity="1" fill-rule="nonzero"/><path fill="#000000" d="M 572.765625 433.710938 C 573.722656 433.710938 574.671875 433.664062 575.621094 433.566406 C 576.570312 433.472656 577.511719 433.332031 578.445312 433.144531 C 579.382812 432.957031 580.304688 432.726562 581.21875 432.449219 C 582.128906 432.167969 583.027344 431.847656 583.90625 431.480469 C 584.785156 431.117188 585.648438 430.707031 586.488281 430.257812 C 587.328125 429.808594 588.144531 429.316406 588.9375 428.785156 C 589.730469 428.257812 590.496094 427.6875 591.230469 427.082031 C 591.96875 426.476562 592.675781 425.835938 593.347656 425.164062 C 594.023438 424.488281 594.660156 423.78125 595.265625 423.042969 C 595.871094 422.304688 596.4375 421.539062 596.96875 420.746094 C 597.5 419.953125 597.988281 419.136719 598.4375 418.296875 C 598.886719 417.453125 599.296875 416.59375 599.660156 415.710938 C 600.027344 414.832031 600.347656 413.933594 600.625 413.019531 C 600.902344 412.109375 601.132812 411.183594 601.320312 410.246094 C 601.507812 409.3125 601.648438 408.371094 601.742188 407.421875 C 601.835938 406.46875 601.882812 405.519531 601.882812 404.566406 L 601.882812 363.71875 C 601.882812 362.765625 601.835938 361.8125 601.742188 360.863281 C 601.648438 359.914062 601.507812 358.972656 601.320312 358.035156 C 601.132812 357.101562 600.902344 356.175781 600.625 355.261719 C 600.347656 354.351562 600.027344 353.453125 599.660156 352.570312 C 599.296875 351.691406 598.886719 350.828125 598.4375 349.988281 C 597.988281 349.148438 597.5 348.328125 596.96875 347.535156 C 596.4375 346.742188 595.871094 345.976562 595.265625 345.238281 C 594.660156 344.503906 594.023438 343.796875 593.347656 343.121094 C 592.675781 342.445312 591.96875 341.808594 591.230469 341.199219 C 590.496094 340.59375 589.730469 340.027344 588.9375 339.496094 C 588.144531 338.964844 587.328125 338.476562 586.488281 338.027344 C 585.648438 337.574219 584.785156 337.167969 583.90625 336.800781 C 583.027344 336.4375 582.128906 336.113281 581.21875 335.835938 C 580.304688 335.558594 579.382812 335.328125 578.445312 335.140625 C 577.511719 334.953125 576.570312 334.8125 575.621094 334.714844 C 574.671875 334.621094 573.722656 334.574219 572.765625 334.574219 C 571.75 334.585938 570.757812 334.445312 569.785156 334.144531 C 568.8125 333.84375 567.914062 333.402344 567.082031 332.816406 C 566.25 332.230469 565.53125 331.527344 564.921875 330.714844 C 564.3125 329.902344 563.84375 329.011719 563.515625 328.050781 C 560.132812 317.246094 555.8125 306.832031 550.546875 296.808594 C 550.09375 295.894531 549.792969 294.933594 549.644531 293.921875 C 549.5 292.914062 549.511719 291.90625 549.683594 290.898438 C 549.855469 289.890625 550.175781 288.9375 550.652344 288.03125 C 551.125 287.128906 551.726562 286.320312 552.457031 285.609375 L 552.65625 285.398438 C 553.320312 284.722656 553.949219 284.011719 554.542969 283.273438 C 555.136719 282.535156 555.695312 281.769531 556.214844 280.976562 C 556.738281 280.179688 557.214844 279.363281 557.65625 278.523438 C 558.097656 277.683594 558.496094 276.824219 558.851562 275.945312 C 559.210938 275.066406 559.523438 274.171875 559.792969 273.261719 C 560.0625 272.351562 560.285156 271.429688 560.464844 270.496094 C 560.644531 269.566406 560.78125 268.628906 560.867188 267.683594 C 560.957031 266.738281 560.996094 265.789062 560.992188 264.839844 C 560.988281 263.890625 560.9375 262.945312 560.84375 262 C 560.746094 261.058594 560.605469 260.121094 560.417969 259.191406 C 560.230469 258.257812 559.996094 257.339844 559.71875 256.433594 C 559.441406 255.523438 559.121094 254.632812 558.757812 253.757812 C 558.390625 252.882812 557.984375 252.023438 557.539062 251.1875 C 557.089844 250.351562 556.601562 249.539062 556.078125 248.75 C 555.550781 247.960938 554.984375 247.199219 554.382812 246.464844 C 553.78125 245.730469 553.148438 245.027344 552.476562 244.355469 L 523.617188 215.46875 C 522.929688 214.8125 522.214844 214.1875 521.46875 213.601562 C 520.726562 213.011719 519.953125 212.460938 519.15625 211.949219 C 518.359375 211.433594 517.539062 210.960938 516.695312 210.523438 C 515.851562 210.089844 514.988281 209.695312 514.109375 209.339844 C 513.230469 208.988281 512.332031 208.675781 511.421875 208.40625 C 510.511719 208.140625 509.589844 207.914062 508.660156 207.734375 C 507.726562 207.554688 506.789062 207.421875 505.84375 207.332031 C 504.902344 207.238281 503.953125 207.195312 503.003906 207.195312 C 502.054688 207.195312 501.109375 207.238281 500.164062 207.332031 C 499.21875 207.421875 498.28125 207.554688 497.351562 207.734375 C 496.417969 207.917969 495.5 208.140625 494.585938 208.40625 C 493.675781 208.675781 492.78125 208.988281 491.902344 209.339844 C 491.019531 209.695312 490.160156 210.089844 489.316406 210.523438 C 488.472656 210.960938 487.652344 211.433594 486.855469 211.949219 C 486.058594 212.460938 485.285156 213.011719 484.539062 213.601562 C 483.792969 214.1875 483.078125 214.8125 482.394531 215.46875 C 481.679688 216.195312 480.875 216.796875 479.972656 217.273438 C 479.070312 217.746094 478.113281 218.070312 477.109375 218.238281 C 476.105469 218.410156 475.097656 218.421875 474.089844 218.273438 C 473.082031 218.125 472.121094 217.824219 471.207031 217.371094 C 461.183594 212.097656 450.769531 207.773438 439.960938 204.394531 C 439.003906 204.0625 438.121094 203.597656 437.3125 202.988281 C 436.503906 202.382812 435.808594 201.664062 435.222656 200.839844 C 434.640625 200.011719 434.199219 199.117188 433.898438 198.148438 C 433.597656 197.183594 433.449219 196.195312 433.460938 195.183594 C 433.460938 194.230469 433.414062 193.277344 433.320312 192.328125 C 433.222656 191.378906 433.082031 190.4375 432.898438 189.5 C 432.710938 188.5625 432.476562 187.640625 432.199219 186.726562 C 431.921875 185.8125 431.601562 184.917969 431.238281 184.035156 C 430.871094 183.15625 430.464844 182.292969 430.015625 181.453125 C 429.566406 180.609375 429.074219 179.792969 428.546875 179 C 428.015625 178.207031 427.449219 177.441406 426.84375 176.703125 C 426.238281 175.964844 425.597656 175.261719 424.925781 174.585938 C 424.25 173.910156 423.546875 173.269531 422.808594 172.664062 C 422.070312 172.058594 421.308594 171.492188 420.515625 170.960938 C 419.722656 170.429688 418.90625 169.941406 418.066406 169.488281 C 417.222656 169.039062 416.363281 168.632812 415.484375 168.265625 C 414.601562 167.898438 413.707031 167.578125 412.792969 167.300781 C 411.882812 167.023438 410.957031 166.789062 410.023438 166.601562 C 409.089844 166.414062 408.144531 166.273438 407.199219 166.179688 C 406.25 166.085938 405.296875 166.039062 404.34375 166.035156 L 363.507812 166.035156 C 362.542969 166.039062 361.585938 166.09375 360.628906 166.191406 C 359.675781 166.289062 358.726562 166.433594 357.785156 166.628906 C 356.839844 166.820312 355.910156 167.058594 354.992188 167.34375 C 354.074219 167.625 353.171875 167.953125 352.285156 168.328125 C 351.402344 168.703125 350.535156 169.117188 349.691406 169.574219 C 348.847656 170.035156 348.023438 170.535156 347.230469 171.074219 C 346.433594 171.613281 345.667969 172.191406 344.925781 172.804688 C 344.1875 173.421875 343.480469 174.070312 342.808594 174.753906 C 342.132812 175.441406 341.492188 176.15625 340.886719 176.90625 C 340.285156 177.652344 339.71875 178.429688 339.191406 179.230469 C 338.664062 180.035156 338.175781 180.863281 337.730469 181.714844 C 337.285156 182.566406 336.878906 183.441406 336.519531 184.332031 C 336.160156 185.222656 335.84375 186.128906 335.574219 187.054688 C 335.300781 187.976562 335.078125 188.910156 334.898438 189.855469 C 334.71875 190.800781 334.585938 191.75 334.503906 192.710938 C 334.417969 193.667969 334.378906 194.628906 334.390625 195.589844 C 334.40625 196.542969 334.273438 197.476562 333.996094 198.390625 C 333.71875 199.304688 333.304688 200.152344 332.761719 200.933594 C 332.214844 201.71875 331.558594 202.394531 330.800781 202.972656 C 330.039062 203.546875 329.207031 203.992188 328.304688 204.304688 C 317.351562 207.699219 306.800781 212.070312 296.652344 217.410156 C 295.730469 217.859375 294.765625 218.160156 293.75 218.300781 C 292.738281 218.445312 291.726562 218.429688 290.714844 218.25 C 289.707031 218.070312 288.75 217.742188 287.847656 217.257812 C 286.945312 216.777344 286.136719 216.167969 285.425781 215.425781 C 284.742188 214.773438 284.027344 214.152344 283.28125 213.5625 C 282.535156 212.976562 281.765625 212.425781 280.96875 211.914062 C 280.171875 211.398438 279.351562 210.925781 278.507812 210.488281 C 277.667969 210.054688 276.804688 209.660156 275.925781 209.308594 C 275.046875 208.953125 274.148438 208.644531 273.242188 208.378906 C 272.332031 208.109375 271.410156 207.886719 270.480469 207.707031 C 269.546875 207.527344 268.613281 207.390625 267.667969 207.300781 C 266.722656 207.210938 265.777344 207.164062 264.828125 207.164062 C 263.882812 207.164062 262.9375 207.210938 261.992188 207.300781 C 261.046875 207.390625 260.109375 207.527344 259.179688 207.707031 C 258.25 207.886719 257.328125 208.109375 256.417969 208.378906 C 255.507812 208.644531 254.613281 208.953125 253.734375 209.308594 C 252.855469 209.660156 251.992188 210.054688 251.152344 210.488281 C 250.308594 210.925781 249.488281 211.398438 248.691406 211.914062 C 247.894531 212.425781 247.125 212.976562 246.378906 213.5625 C 245.632812 214.152344 244.917969 214.773438 244.234375 215.425781 L 215.371094 244.355469 C 214.703125 245.027344 214.070312 245.730469 213.46875 246.464844 C 212.867188 247.199219 212.304688 247.960938 211.777344 248.75 C 211.25 249.539062 210.761719 250.351562 210.316406 251.1875 C 209.867188 252.023438 209.460938 252.878906 209.097656 253.753906 C 208.734375 254.628906 208.414062 255.523438 208.136719 256.429688 C 207.859375 257.335938 207.625 258.253906 207.4375 259.183594 C 207.25 260.113281 207.109375 261.050781 207.011719 261.996094 C 206.914062 262.9375 206.863281 263.886719 206.859375 264.835938 C 206.855469 265.78125 206.898438 266.730469 206.984375 267.675781 C 207.074219 268.617188 207.207031 269.558594 207.386719 270.488281 C 207.566406 271.417969 207.789062 272.339844 208.058594 273.25 C 208.328125 274.160156 208.640625 275.054688 208.996094 275.933594 C 209.351562 276.8125 209.75 277.671875 210.191406 278.511719 C 210.628906 279.351562 211.109375 280.171875 211.628906 280.964844 C 212.148438 281.757812 212.703125 282.523438 213.296875 283.261719 C 213.894531 284.003906 214.519531 284.710938 215.183594 285.390625 L 215.394531 285.609375 C 216.121094 286.320312 216.722656 287.128906 217.199219 288.03125 C 217.671875 288.933594 217.996094 289.886719 218.167969 290.890625 C 218.34375 291.898438 218.355469 292.90625 218.210938 293.914062 C 218.0625 294.921875 217.765625 295.886719 217.316406 296.800781 C 212.042969 306.828125 207.714844 317.246094 204.328125 328.058594 C 204 329.019531 203.53125 329.910156 202.921875 330.722656 C 202.3125 331.535156 201.59375 332.234375 200.761719 332.820312 C 199.933594 333.40625 199.03125 333.847656 198.0625 334.148438 C 197.089844 334.445312 196.097656 334.589844 195.082031 334.574219 C 194.128906 334.574219 193.179688 334.621094 192.230469 334.714844 C 191.28125 334.8125 190.339844 334.953125 189.402344 335.140625 C 188.46875 335.328125 187.546875 335.558594 186.632812 335.835938 C 185.722656 336.113281 184.824219 336.4375 183.945312 336.800781 C 183.0625 337.167969 182.203125 337.574219 181.363281 338.027344 C 180.519531 338.476562 179.703125 338.964844 178.914062 339.496094 C 178.121094 340.027344 177.355469 340.59375 176.617188 341.199219 C 175.882812 341.808594 175.175781 342.445312 174.5 343.121094 C 173.828125 343.796875 173.1875 344.503906 172.582031 345.238281 C 171.976562 345.976562 171.410156 346.742188 170.882812 347.535156 C 170.351562 348.328125 169.863281 349.148438 169.410156 349.988281 C 168.960938 350.828125 168.554688 351.691406 168.191406 352.570312 C 167.824219 353.453125 167.503906 354.351562 167.226562 355.261719 C 166.949219 356.175781 166.714844 357.101562 166.53125 358.035156 C 166.34375 358.972656 166.203125 359.914062 166.109375 360.863281 C 166.015625 361.8125 165.964844 362.765625 165.964844 363.71875 L 165.964844 404.566406 C 165.964844 405.519531 166.015625 406.46875 166.109375 407.421875 C 166.203125 408.371094 166.34375 409.3125 166.53125 410.246094 C 166.714844 411.183594 166.949219 412.109375 167.226562 413.019531 C 167.503906 413.933594 167.824219 414.832031 168.191406 415.710938 C 168.554688 416.59375 168.960938 417.453125 169.410156 418.296875 C 169.863281 419.136719 170.351562 419.953125 170.882812 420.746094 C 171.410156 421.539062 171.976562 422.304688 172.582031 423.042969 C 173.1875 423.78125 173.828125 424.488281 174.5 425.164062 C 175.175781 425.835938 175.882812 426.476562 176.617188 427.082031 C 177.355469 427.6875 178.121094 428.257812 178.914062 428.785156 C 179.703125 429.316406 180.519531 429.808594 181.363281 430.257812 C 182.203125 430.707031 183.0625 431.117188 183.945312 431.480469 C 184.824219 431.847656 185.722656 432.167969 186.632812 432.449219 C 187.546875 432.726562 188.46875 432.957031 189.402344 433.144531 C 190.339844 433.332031 191.28125 433.472656 192.230469 433.566406 C 193.179688 433.664062 194.128906 433.710938 195.082031 433.710938 C 196.097656 433.695312 197.09375 433.839844 198.066406 434.140625 C 199.035156 434.441406 199.9375 434.882812 200.769531 435.46875 C 201.597656 436.054688 202.320312 436.753906 202.929688 437.570312 C 203.539062 438.382812 204.007812 439.273438 204.335938 440.234375 C 207.714844 451.039062 212.039062 461.453125 217.304688 471.472656 C 217.757812 472.386719 218.058594 473.351562 218.203125 474.359375 C 218.351562 475.371094 218.339844 476.378906 218.167969 477.386719 C 217.996094 478.390625 217.671875 479.347656 217.199219 480.25 C 216.726562 481.15625 216.121094 481.964844 215.394531 482.675781 L 215.195312 482.882812 C 214.53125 483.5625 213.902344 484.269531 213.304688 485.007812 C 212.710938 485.75 212.152344 486.515625 211.632812 487.308594 C 211.113281 488.101562 210.632812 488.917969 210.191406 489.761719 C 209.753906 490.601562 209.355469 491.460938 208.996094 492.339844 C 208.640625 493.21875 208.328125 494.113281 208.058594 495.023438 C 207.789062 495.933594 207.5625 496.855469 207.382812 497.785156 C 207.203125 498.71875 207.070312 499.65625 206.980469 500.601562 C 206.894531 501.546875 206.851562 502.492188 206.855469 503.441406 C 206.859375 504.390625 206.910156 505.339844 207.007812 506.28125 C 207.101562 507.226562 207.246094 508.164062 207.433594 509.09375 C 207.621094 510.023438 207.855469 510.945312 208.132812 511.851562 C 208.410156 512.757812 208.730469 513.652344 209.09375 514.527344 C 209.457031 515.402344 209.863281 516.257812 210.3125 517.097656 C 210.757812 517.933594 211.246094 518.746094 211.773438 519.535156 C 212.300781 520.324219 212.863281 521.085938 213.464844 521.820312 C 214.066406 522.554688 214.703125 523.257812 215.371094 523.929688 L 244.234375 552.816406 C 244.917969 553.472656 245.632812 554.09375 246.378906 554.683594 C 247.125 555.269531 247.894531 555.820312 248.695312 556.335938 C 249.492188 556.847656 250.3125 557.324219 251.15625 557.761719 C 252 558.195312 252.859375 558.589844 253.742188 558.945312 C 254.621094 559.296875 255.515625 559.609375 256.425781 559.875 C 257.335938 560.144531 258.257812 560.367188 259.191406 560.546875 C 260.121094 560.726562 261.058594 560.863281 262.003906 560.953125 C 262.949219 561.042969 263.894531 561.089844 264.84375 561.089844 C 265.792969 561.089844 266.742188 561.042969 267.683594 560.953125 C 268.628906 560.863281 269.566406 560.726562 270.5 560.546875 C 271.429688 560.367188 272.351562 560.144531 273.261719 559.875 C 274.171875 559.609375 275.066406 559.296875 275.949219 558.945312 C 276.828125 558.589844 277.691406 558.195312 278.535156 557.761719 C 279.378906 557.324219 280.199219 556.847656 280.996094 556.335938 C 281.792969 555.820312 282.566406 555.269531 283.308594 554.683594 C 284.054688 554.09375 284.769531 553.472656 285.457031 552.816406 C 286.167969 552.089844 286.976562 551.488281 287.878906 551.015625 C 288.78125 550.542969 289.738281 550.222656 290.742188 550.050781 C 291.746094 549.878906 292.75 549.867188 293.757812 550.015625 C 294.769531 550.164062 295.726562 550.460938 296.640625 550.914062 C 306.664062 556.183594 317.082031 560.511719 327.890625 563.890625 C 328.847656 564.21875 329.726562 564.6875 330.539062 565.292969 C 331.347656 565.902344 332.042969 566.617188 332.625 567.445312 C 333.207031 568.273438 333.652344 569.167969 333.953125 570.132812 C 334.253906 571.101562 334.398438 572.089844 334.390625 573.101562 C 334.390625 574.054688 334.4375 575.007812 334.53125 575.957031 C 334.625 576.90625 334.765625 577.847656 334.953125 578.785156 C 335.140625 579.71875 335.371094 580.644531 335.648438 581.558594 C 335.925781 582.46875 336.246094 583.367188 336.613281 584.246094 C 336.976562 585.128906 337.386719 585.992188 337.835938 586.832031 C 338.285156 587.671875 338.773438 588.492188 339.304688 589.285156 C 339.835938 590.078125 340.402344 590.84375 341.007812 591.582031 C 341.613281 592.316406 342.25 593.023438 342.925781 593.699219 C 343.597656 594.375 344.304688 595.011719 345.042969 595.617188 C 345.777344 596.222656 346.542969 596.792969 347.335938 597.324219 C 348.128906 597.851562 348.945312 598.34375 349.785156 598.792969 C 350.625 599.246094 351.488281 599.652344 352.367188 600.019531 C 353.246094 600.382812 354.144531 600.707031 355.054688 600.984375 C 355.96875 601.261719 356.890625 601.492188 357.828125 601.679688 C 358.761719 601.867188 359.703125 602.007812 360.652344 602.105469 C 361.601562 602.199219 362.550781 602.246094 363.507812 602.246094 L 404.34375 602.246094 C 405.296875 602.246094 406.25 602.199219 407.195312 602.105469 C 408.144531 602.007812 409.085938 601.867188 410.023438 601.679688 C 410.957031 601.492188 411.882812 601.261719 412.792969 600.984375 C 413.707031 600.707031 414.601562 600.382812 415.484375 600.019531 C 416.363281 599.652344 417.222656 599.246094 418.066406 598.792969 C 418.90625 598.34375 419.722656 597.851562 420.515625 597.324219 C 421.308594 596.792969 422.070312 596.222656 422.808594 595.617188 C 423.546875 595.011719 424.25 594.375 424.925781 593.699219 C 425.597656 593.023438 426.238281 592.316406 426.84375 591.578125 C 427.449219 590.84375 428.015625 590.078125 428.546875 589.285156 C 429.074219 588.492188 429.566406 587.671875 430.015625 586.832031 C 430.464844 585.992188 430.871094 585.128906 431.238281 584.246094 C 431.601562 583.367188 431.921875 582.46875 432.199219 581.554688 C 432.476562 580.644531 432.710938 579.71875 432.898438 578.785156 C 433.082031 577.847656 433.222656 576.90625 433.320312 575.957031 C 433.414062 575.007812 433.460938 574.054688 433.460938 573.101562 C 433.445312 572.085938 433.589844 571.09375 433.886719 570.121094 C 434.1875 569.152344 434.628906 568.253906 435.210938 567.421875 C 435.796875 566.589844 436.492188 565.871094 437.304688 565.261719 C 438.117188 564.652344 439 564.179688 439.960938 563.851562 C 447.230469 561.515625 454.328125 558.746094 461.261719 555.542969 L 447.507812 540.039062 C 443.089844 541.851562 438.59375 543.507812 434.066406 544.925781 C 432.582031 545.394531 431.144531 545.976562 429.753906 546.675781 C 428.367188 547.375 427.039062 548.179688 425.777344 549.089844 C 424.515625 550 423.335938 551.003906 422.234375 552.105469 C 421.132812 553.203125 420.125 554.382812 419.210938 555.644531 C 418.296875 556.902344 417.492188 558.226562 416.789062 559.617188 C 416.085938 561.003906 415.5 562.441406 415.027344 563.925781 C 414.554688 565.40625 414.203125 566.917969 413.972656 568.457031 C 413.738281 569.996094 413.632812 571.542969 413.648438 573.101562 C 413.644531 573.710938 413.585938 574.316406 413.464844 574.917969 C 413.347656 575.515625 413.171875 576.097656 412.9375 576.664062 C 412.703125 577.226562 412.414062 577.765625 412.078125 578.273438 C 411.738281 578.78125 411.351562 579.25 410.917969 579.683594 C 410.488281 580.117188 410.019531 580.503906 409.511719 580.84375 C 409.003906 581.183594 408.46875 581.46875 407.902344 581.703125 C 407.339844 581.941406 406.757812 582.117188 406.160156 582.238281 C 405.558594 582.359375 404.953125 582.417969 404.34375 582.417969 L 363.507812 582.417969 C 362.894531 582.417969 362.289062 582.359375 361.691406 582.238281 C 361.09375 582.117188 360.511719 581.941406 359.945312 581.703125 C 359.382812 581.46875 358.847656 581.183594 358.339844 580.84375 C 357.832031 580.503906 357.363281 580.117188 356.929688 579.683594 C 356.5 579.25 356.113281 578.78125 355.773438 578.273438 C 355.433594 577.765625 355.148438 577.226562 354.914062 576.664062 C 354.679688 576.097656 354.503906 575.515625 354.382812 574.917969 C 354.265625 574.316406 354.203125 573.710938 354.203125 573.101562 C 354.21875 571.542969 354.109375 569.996094 353.878906 568.457031 C 353.648438 566.917969 353.296875 565.40625 352.824219 563.925781 C 352.351562 562.441406 351.761719 561.003906 351.0625 559.617188 C 350.359375 558.226562 349.550781 556.902344 348.636719 555.644531 C 347.726562 554.382812 346.71875 553.203125 345.617188 552.105469 C 344.515625 551.003906 343.332031 550 342.070312 549.089844 C 340.808594 548.179688 339.484375 547.375 338.09375 546.675781 C 336.703125 545.976562 335.265625 545.394531 333.785156 544.925781 C 324.128906 541.902344 314.820312 538.035156 305.867188 533.328125 C 301.652344 531.097656 297.160156 529.984375 292.390625 529.984375 C 290.441406 529.992188 288.507812 530.191406 286.597656 530.578125 C 284.683594 530.964844 282.828125 531.539062 281.027344 532.292969 C 279.226562 533.050781 277.519531 533.972656 275.902344 535.066406 C 274.285156 536.160156 272.789062 537.402344 271.417969 538.789062 C 270.976562 539.207031 270.503906 539.582031 269.992188 539.910156 C 269.480469 540.238281 268.941406 540.515625 268.378906 540.742188 C 267.8125 540.96875 267.234375 541.140625 266.636719 541.253906 C 266.039062 541.371094 265.4375 541.425781 264.828125 541.425781 C 264.222656 541.425781 263.621094 541.371094 263.023438 541.253906 C 262.425781 541.140625 261.847656 540.96875 261.28125 540.742188 C 260.71875 540.515625 260.179688 540.238281 259.667969 539.910156 C 259.15625 539.582031 258.679688 539.207031 258.242188 538.789062 L 229.371094 509.910156 C 228.941406 509.476562 228.554688 509.003906 228.21875 508.496094 C 227.878906 507.984375 227.59375 507.449219 227.359375 506.882812 C 227.125 506.316406 226.949219 505.734375 226.832031 505.132812 C 226.710938 504.535156 226.652344 503.929688 226.652344 503.316406 C 226.652344 502.707031 226.710938 502.097656 226.832031 501.5 C 226.949219 500.898438 227.125 500.316406 227.359375 499.75 C 227.59375 499.183594 227.878906 498.648438 228.21875 498.136719 C 228.554688 497.628906 228.941406 497.15625 229.371094 496.722656 C 229.445312 496.660156 229.511719 496.59375 229.570312 496.515625 C 230.667969 495.421875 231.667969 494.246094 232.578125 492.992188 C 233.488281 491.738281 234.292969 490.421875 234.996094 489.039062 C 235.695312 487.65625 236.285156 486.230469 236.757812 484.753906 C 237.230469 483.277344 237.585938 481.773438 237.820312 480.242188 C 238.054688 478.710938 238.167969 477.171875 238.160156 475.621094 C 238.148438 474.070312 238.019531 472.53125 237.765625 471.003906 C 237.511719 469.476562 237.136719 467.976562 236.644531 466.507812 C 236.152344 465.039062 235.546875 463.617188 234.832031 462.242188 C 230.121094 453.285156 226.257812 443.976562 223.238281 434.316406 C 222.769531 432.832031 222.1875 431.394531 221.488281 430.003906 C 220.792969 428.613281 219.988281 427.285156 219.078125 426.023438 C 218.167969 424.761719 217.164062 423.578125 216.066406 422.476562 C 214.96875 421.375 213.789062 420.367188 212.527344 419.453125 C 211.269531 418.539062 209.945312 417.730469 208.558594 417.027344 C 207.167969 416.324219 205.734375 415.738281 204.253906 415.265625 C 202.769531 414.792969 201.261719 414.441406 199.722656 414.207031 C 198.183594 413.976562 196.636719 413.867188 195.082031 413.882812 C 194.472656 413.882812 193.867188 413.820312 193.269531 413.703125 C 192.667969 413.582031 192.085938 413.402344 191.523438 413.167969 C 190.960938 412.933594 190.421875 412.648438 189.914062 412.304688 C 189.410156 411.964844 188.9375 411.582031 188.507812 411.148438 C 188.074219 410.714844 187.691406 410.246094 187.351562 409.738281 C 187.011719 409.226562 186.722656 408.691406 186.492188 408.128906 C 186.257812 407.5625 186.078125 406.980469 185.960938 406.378906 C 185.839844 405.78125 185.78125 405.175781 185.78125 404.566406 L 185.78125 363.71875 C 185.78125 363.109375 185.839844 362.503906 185.960938 361.902344 C 186.078125 361.304688 186.257812 360.722656 186.492188 360.15625 C 186.722656 359.59375 187.011719 359.054688 187.351562 358.546875 C 187.691406 358.039062 188.074219 357.570312 188.507812 357.136719 C 188.9375 356.703125 189.410156 356.316406 189.914062 355.976562 C 190.421875 355.636719 190.960938 355.351562 191.523438 355.113281 C 192.085938 354.878906 192.667969 354.703125 193.269531 354.582031 C 193.867188 354.460938 194.472656 354.402344 195.082031 354.398438 C 196.636719 354.417969 198.183594 354.308594 199.722656 354.078125 C 201.261719 353.847656 202.769531 353.496094 204.253906 353.023438 C 205.734375 352.550781 207.167969 351.960938 208.558594 351.261719 C 209.945312 350.558594 211.269531 349.75 212.527344 348.835938 C 213.789062 347.925781 214.964844 346.917969 216.066406 345.816406 C 217.164062 344.714844 218.167969 343.53125 219.078125 342.269531 C 219.988281 341.007812 220.789062 339.679688 221.488281 338.289062 C 222.1875 336.898438 222.769531 335.460938 223.238281 333.976562 C 226.265625 324.3125 230.136719 314.996094 234.851562 306.03125 C 235.566406 304.65625 236.167969 303.238281 236.660156 301.769531 C 237.148438 300.300781 237.523438 298.800781 237.773438 297.273438 C 238.027344 295.746094 238.160156 294.210938 238.167969 292.660156 C 238.179688 291.113281 238.066406 289.574219 237.832031 288.042969 C 237.597656 286.511719 237.242188 285.011719 236.769531 283.535156 C 236.296875 282.0625 235.710938 280.632812 235.011719 279.253906 C 234.3125 277.871094 233.511719 276.554688 232.601562 275.300781 C 231.695312 274.046875 230.695312 272.871094 229.601562 271.777344 L 229.382812 271.558594 C 228.949219 271.125 228.566406 270.65625 228.226562 270.144531 C 227.886719 269.636719 227.601562 269.097656 227.371094 268.53125 C 227.136719 267.96875 226.960938 267.386719 226.839844 266.785156 C 226.722656 266.183594 226.664062 265.578125 226.664062 264.96875 C 226.664062 264.355469 226.722656 263.75 226.839844 263.148438 C 226.960938 262.550781 227.136719 261.964844 227.371094 261.402344 C 227.601562 260.835938 227.886719 260.296875 228.226562 259.789062 C 228.566406 259.28125 228.949219 258.808594 229.382812 258.375 L 258.242188 229.484375 C 258.679688 229.0625 259.15625 228.683594 259.667969 228.351562 C 260.179688 228.019531 260.71875 227.742188 261.28125 227.511719 C 261.847656 227.285156 262.429688 227.113281 263.027344 226.996094 C 263.625 226.878906 264.230469 226.824219 264.839844 226.824219 C 265.449219 226.824219 266.054688 226.878906 266.652344 226.996094 C 267.25 227.113281 267.832031 227.285156 268.398438 227.511719 C 268.960938 227.742188 269.5 228.019531 270.011719 228.351562 C 270.523438 228.683594 271 229.0625 271.4375 229.484375 C 272.53125 230.597656 273.707031 231.617188 274.960938 232.539062 C 276.21875 233.464844 277.539062 234.285156 278.925781 234.996094 C 280.3125 235.710938 281.746094 236.308594 283.226562 236.792969 C 284.710938 237.277344 286.222656 237.644531 287.761719 237.886719 C 289.300781 238.128906 290.851562 238.246094 292.410156 238.242188 C 293.96875 238.238281 295.519531 238.109375 297.058594 237.859375 C 298.59375 237.605469 300.105469 237.234375 301.582031 236.742188 C 303.0625 236.246094 304.492188 235.640625 305.875 234.917969 C 314.949219 230.144531 324.378906 226.238281 334.171875 223.199219 C 335.640625 222.734375 337.0625 222.152344 338.4375 221.457031 C 339.8125 220.761719 341.125 219.960938 342.371094 219.050781 C 343.617188 218.144531 344.785156 217.144531 345.871094 216.050781 C 346.957031 214.957031 347.949219 213.78125 348.84375 212.527344 C 349.742188 211.273438 350.53125 209.953125 351.21875 208.570312 C 351.902344 207.191406 352.472656 205.761719 352.929688 204.289062 C 353.382812 202.816406 353.71875 201.316406 353.933594 199.789062 C 354.144531 198.261719 354.234375 196.726562 354.203125 195.183594 C 354.203125 194.570312 354.265625 193.964844 354.382812 193.367188 C 354.503906 192.765625 354.679688 192.183594 354.914062 191.621094 C 355.148438 191.054688 355.433594 190.519531 355.773438 190.011719 C 356.113281 189.503906 356.5 189.03125 356.929688 188.601562 C 357.363281 188.167969 357.832031 187.78125 358.339844 187.441406 C 358.847656 187.101562 359.382812 186.8125 359.945312 186.578125 C 360.511719 186.34375 361.09375 186.167969 361.691406 186.046875 C 362.289062 185.925781 362.894531 185.867188 363.507812 185.863281 L 404.34375 185.863281 C 404.953125 185.867188 405.558594 185.925781 406.160156 186.046875 C 406.757812 186.167969 407.339844 186.34375 407.902344 186.578125 C 408.46875 186.8125 409.003906 187.101562 409.511719 187.441406 C 410.019531 187.78125 410.488281 188.167969 410.917969 188.601562 C 411.351562 189.03125 411.738281 189.503906 412.078125 190.011719 C 412.414062 190.519531 412.703125 191.054688 412.9375 191.621094 C 413.171875 192.183594 413.347656 192.765625 413.464844 193.367188 C 413.585938 193.964844 413.644531 194.570312 413.648438 195.183594 C 413.632812 196.738281 413.738281 198.289062 413.972656 199.828125 C 414.203125 201.367188 414.554688 202.875 415.027344 204.359375 C 415.5 205.84375 416.085938 207.277344 416.789062 208.667969 C 417.492188 210.054688 418.296875 211.382812 419.210938 212.640625 C 420.125 213.902344 421.132812 215.082031 422.234375 216.179688 C 423.335938 217.277344 424.515625 218.285156 425.777344 219.195312 C 427.039062 220.105469 428.367188 220.910156 429.757812 221.605469 C 431.144531 222.304688 432.582031 222.890625 434.066406 223.359375 C 443.722656 226.382812 453.027344 230.25 461.984375 234.957031 C 463.367188 235.679688 464.800781 236.289062 466.277344 236.78125 C 467.757812 237.273438 469.269531 237.644531 470.808594 237.898438 C 472.347656 238.148438 473.898438 238.277344 475.457031 238.28125 C 477.019531 238.285156 478.570312 238.164062 480.109375 237.917969 C 481.652344 237.675781 483.164062 237.308594 484.644531 236.824219 C 486.128906 236.335938 487.5625 235.738281 488.949219 235.019531 C 490.335938 234.304688 491.65625 233.484375 492.910156 232.558594 C 494.164062 231.628906 495.339844 230.609375 496.433594 229.496094 C 496.871094 229.074219 497.347656 228.703125 497.859375 228.371094 C 498.371094 228.042969 498.90625 227.765625 499.472656 227.539062 C 500.035156 227.316406 500.617188 227.144531 501.214844 227.03125 C 501.808594 226.914062 502.414062 226.855469 503.019531 226.855469 C 503.628906 226.855469 504.230469 226.914062 504.828125 227.03125 C 505.421875 227.144531 506.003906 227.316406 506.566406 227.539062 C 507.132812 227.765625 507.671875 228.042969 508.179688 228.371094 C 508.691406 228.703125 509.167969 229.074219 509.609375 229.496094 L 538.476562 258.375 C 538.910156 258.808594 539.292969 259.28125 539.632812 259.789062 C 539.972656 260.296875 540.257812 260.835938 540.492188 261.402344 C 540.722656 261.964844 540.898438 262.550781 541.019531 263.148438 C 541.136719 263.75 541.195312 264.355469 541.195312 264.96875 C 541.195312 265.578125 541.136719 266.183594 541.019531 266.785156 C 540.898438 267.382812 540.722656 267.96875 540.492188 268.53125 C 540.257812 269.097656 539.972656 269.636719 539.632812 270.144531 C 539.292969 270.65625 538.910156 271.125 538.476562 271.558594 C 538.40625 271.621094 538.339844 271.691406 538.28125 271.769531 C 537.183594 272.863281 536.179688 274.035156 535.269531 275.289062 C 534.359375 276.542969 533.554688 277.863281 532.855469 279.242188 C 532.152344 280.625 531.566406 282.054688 531.09375 283.53125 C 530.617188 285.003906 530.265625 286.507812 530.027344 288.039062 C 529.792969 289.570312 529.679688 291.113281 529.691406 292.660156 C 529.699219 294.210938 529.832031 295.75 530.085938 297.28125 C 530.339844 298.808594 530.710938 300.308594 531.203125 301.777344 C 531.695312 303.246094 532.300781 304.667969 533.019531 306.039062 C 537.726562 315 541.589844 324.308594 544.609375 333.96875 C 545.078125 335.453125 545.664062 336.890625 546.359375 338.28125 C 547.058594 339.671875 547.863281 341 548.773438 342.261719 C 549.683594 343.523438 550.6875 344.707031 551.785156 345.808594 C 552.882812 346.910156 554.0625 347.917969 555.320312 348.832031 C 556.582031 349.746094 557.902344 350.554688 559.292969 351.253906 C 560.679688 351.957031 562.113281 352.546875 563.597656 353.019531 C 565.078125 353.492188 566.589844 353.84375 568.128906 354.074219 C 569.664062 354.308594 571.210938 354.414062 572.765625 354.398438 C 573.378906 354.402344 573.984375 354.460938 574.582031 354.582031 C 575.179688 354.703125 575.761719 354.878906 576.328125 355.113281 C 576.890625 355.351562 577.425781 355.636719 577.933594 355.976562 C 578.441406 356.316406 578.910156 356.703125 579.34375 357.136719 C 579.773438 357.570312 580.160156 358.039062 580.5 358.546875 C 580.839844 359.054688 581.125 359.59375 581.359375 360.15625 C 581.59375 360.722656 581.769531 361.304688 581.890625 361.902344 C 582.007812 362.503906 582.070312 363.109375 582.070312 363.71875 L 582.070312 404.566406 C 582.0625 405.191406 581.996094 405.8125 581.863281 406.425781 C 581.734375 407.039062 581.542969 407.632812 581.292969 408.207031 C 581.042969 408.785156 580.742188 409.328125 580.382812 409.84375 C 580.023438 410.359375 579.621094 410.832031 579.167969 411.269531 C 578.714844 411.703125 578.222656 412.085938 577.695312 412.421875 C 577.164062 412.757812 576.609375 413.039062 576.023438 413.261719 C 575.4375 413.488281 574.835938 413.652344 574.21875 413.757812 C 573.601562 413.859375 572.976562 413.902344 572.351562 413.882812 C 570.828125 413.882812 569.3125 413.996094 567.804688 414.234375 C 566.300781 414.46875 564.824219 414.824219 563.371094 415.292969 C 561.921875 415.761719 560.519531 416.339844 559.160156 417.03125 C 557.800781 417.722656 556.503906 418.515625 555.269531 419.410156 C 554.035156 420.304688 552.878906 421.292969 551.800781 422.371094 C 550.722656 423.449219 549.734375 424.605469 548.839844 425.835938 C 547.941406 427.070312 547.148438 428.367188 546.457031 429.726562 C 545.761719 431.085938 545.179688 432.488281 544.710938 433.9375 C 543.273438 438.609375 541.589844 443.21875 539.757812 447.769531 L 555.203125 461.46875 C 558.472656 454.414062 561.285156 447.179688 563.644531 439.769531 C 563.976562 438.839844 564.449219 437.988281 565.058594 437.214844 C 565.667969 436.4375 566.382812 435.777344 567.207031 435.234375 C 568.027344 434.6875 568.914062 434.285156 569.863281 434.023438 C 570.816406 433.765625 571.78125 433.660156 572.765625 433.710938 Z M 572.765625 433.710938 " fill-opacity="1" fill-rule="nonzero"/></svg>